<?xml version="1.0" standalone="no"?>
<!DOCTYPE svg PUBLIC "-//W3C//DTD SVG 20010904//EN"
 "http://www.w3.org/TR/2001/REC-SVG-20010904/DTD/svg10.dtd">
<svg version="1.0" xmlns="http://www.w3.org/2000/svg"
 width="512.000000pt" height="512.000000pt" viewBox="0 0 512.000000 512.000000"
 preserveAspectRatio="xMidYMid meet">

<defs>
  <linearGradient id="brightGradient" x1="0%" y1="0%" x2="100%" y2="100%">
    <stop offset="0%" stop-color="#72A1DE"/>
    <stop offset="100%" stop-color="#A8E0FF"/>
  </linearGradient>
</defs>

<g transform="translate(0.000000,512.000000) scale(0.100000,-0.100000)"
fill="url(#brightGradient)" stroke="none">
<path d="M3182 5065 c-74 -46 -86 -82 -90 -277 l-4 -168 -39 0 c-67 0 -136
-20 -163 -47 -35 -34 -35 -91 -2 -130 24 -27 24 -27 157 -29 159 -1 196 11
229 76 18 35 20 59 20 223 l0 183 73 -8 c432 -51 829 -342 1021 -749 77 -163
126 -372 126 -541 l0 -78 -59 0 -58 0 -5 73 c-14 221 -207 374 -433 345 -85
-12 -154 -49 -218 -118 -63 -68 -95 -140 -104 -237 l-6 -63 -168 0 -168 0 -3
224 c-3 246 -4 250 -71 300 -27 20 -38 21 -162 16 -65 -3 -104 11 -142 52 -27
29 -53 89 -53 123 0 91 -100 137 -162 75 -29 -29 -30 -33 -26 -103 10 -184
155 -330 343 -344 l73 -6 4 -186 c4 -203 11 -231 64 -285 61 -61 86 -66 337
-66 254 0 278 5 320 64 20 28 22 41 19 129 -3 116 15 161 77 203 141 93 317
-31 282 -198 -14 -63 -1 -114 36 -150 43 -41 74 -48 204 -48 161 0 207 19 252
105 18 35 20 57 20 170 -2 330 -109 645 -310 909 -69 90 -227 243 -321 310
-218 155 -508 260 -752 273 -89 4 -98 3 -138 -22z"/>
<path d="M1513 4726 c-60 -27 -64 -61 -33 -256 18 -114 23 -127 50 -152 42
-39 92 -38 131 1 35 35 35 39 8 215 -19 119 -26 143 -48 167 -32 35 -67 43
-108 25z"/>
<path d="M821 4366 c-30 -17 -50 -53 -51 -91 0 -24 20 -49 118 -147 109 -109
121 -118 156 -118 52 0 96 44 96 96 0 35 -9 47 -118 156 -126 126 -144 135
-201 104z"/>
<path d="M2205 4279 c-478 -64 -893 -344 -1134 -764 -66 -116 -126 -269 -159
-409 -24 -102 -26 -129 -27 -326 0 -170 4 -233 18 -300 26 -119 78 -273 128
-372 86 -173 231 -366 289 -387 54 -18 115 17 126 74 7 40 -4 62 -66 135 -124
145 -239 374 -275 548 l-7 32 45 0 44 0 5 -73 c11 -176 138 -315 316 -347 99
-18 212 11 297 76 82 62 145 190 145 295 l0 49 170 0 170 0 0 -219 c0 -210 1
-219 23 -251 44 -65 68 -75 169 -72 108 3 147 -8 187 -53 81 -93 55 -232 -53
-285 -41 -19 -55 -21 -133 -15 -82 6 -90 5 -122 -17 -66 -45 -71 -67 -71 -310
l0 -218 -228 0 -229 0 -13 58 c-35 161 -155 443 -201 475 -34 25 -82 21 -117
-8 -51 -42 -49 -63 12 -195 67 -140 111 -272 132 -389 12 -69 14 -134 9 -331
-8 -282 2 -394 38 -467 32 -61 88 -118 152 -151 l50 -27 495 0 495 0 50 27
c65 34 128 100 157 163 22 48 23 61 29 420 6 363 6 372 33 464 73 256 168 422
407 711 159 192 295 485 316 682 7 73 -20 133 -79 174 -36 25 -52 29 -123 32
l-82 4 -6 66 c-8 105 -40 177 -111 248 -81 81 -147 108 -266 108 -109 0 -179
-27 -255 -95 -74 -69 -114 -151 -122 -253 l-6 -76 -168 0 -168 0 -3 223 c-3
210 -4 224 -26 258 -35 57 -77 72 -176 64 -86 -7 -122 2 -170 44 -60 53 -73
166 -25 235 46 68 96 84 235 75 67 -4 111 22 142 81 22 43 23 52 20 255 -3
237 -8 255 -83 307 -47 33 -101 40 -200 27z m85 -328 l0 -139 -73 -3 c-223
-12 -392 -228 -347 -445 33 -161 146 -273 307 -304 34 -7 74 -10 88 -8 l25 5
0 -173 0 -174 -217 0 c-240 0 -265 -5 -307 -63 -18 -25 -21 -43 -21 -135 0
-93 -3 -112 -22 -142 -23 -37 -76 -72 -126 -84 -34 -8 -102 9 -140 36 -51 37
-68 86 -65 195 3 88 1 101 -19 129 -37 51 -77 64 -199 64 l-107 0 6 120 c11
205 57 374 149 551 186 359 545 623 943 693 138 25 125 38 125 -123z m987
-1022 c15 -5 41 -22 56 -37 50 -47 58 -73 55 -182 -3 -87 -1 -102 18 -127 38
-51 79 -67 182 -71 l93 -4 -7 -32 c-13 -64 -67 -213 -101 -281 -54 -106 -110
-189 -212 -310 -116 -137 -216 -287 -280 -419 -51 -106 -116 -287 -127 -356
l-7 -40 -228 0 -229 0 0 170 0 170 48 0 c100 0 218 53 283 128 18 20 46 66 63
102 27 57 31 75 30 150 -1 109 -27 180 -94 253 -72 79 -154 119 -252 125 l-78
5 0 168 0 168 218 3 c239 3 259 8 306 71 19 25 21 40 18 127 -3 109 5 134 55
182 15 15 39 31 53 37 34 13 102 13 137 0z m-349 -2096 l-3 -38 -346 -5 c-372
-5 -366 -4 -389 -60 -15 -37 -6 -75 25 -106 l24 -24 341 0 340 0 0 -50 0 -50
-536 0 -535 0 3 48 3 47 67 5 c86 6 113 29 113 96 0 38 -5 50 -28 70 -23 20
-39 24 -93 24 l-64 0 0 40 0 40 541 0 540 0 -3 -37z m-29 -554 c-6 -11 -31
-30 -55 -40 -41 -19 -66 -20 -471 -17 -401 3 -430 4 -456 22 -15 10 -32 27
-38 37 -9 18 7 19 511 19 l521 0 -12 -21z"/>
<path d="M453 3675 c-29 -20 -46 -75 -34 -107 18 -49 52 -64 194 -87 174 -27
183 -27 218 8 39 40 40 89 2 131 -26 27 -39 31 -155 50 -153 24 -197 25 -225
5z"/>
<path d="M4097 2209 c-32 -18 -50 -75 -37 -114 18 -55 43 -64 207 -74 160 -9
201 -2 222 37 19 35 13 89 -13 119 -21 25 -33 28 -107 34 -127 11 -252 10
-272 -2z"/>
<path d="M3864 1616 c-38 -38 -44 -77 -19 -113 9 -12 65 -63 126 -113 98 -80
115 -90 151 -90 69 0 117 69 92 134 -7 18 -204 182 -243 203 -42 21 -70 16
-107 -21z"/>
<path d="M3357 1299 c-11 -6 -25 -27 -33 -45 -14 -32 -12 -44 16 -152 45 -169
57 -200 90 -217 16 -8 40 -15 54 -15 32 0 82 43 89 76 2 15 -13 92 -34 173
-31 117 -44 150 -64 169 -28 24 -86 29 -118 11z"/>
</g>
</svg>
