<?xml version="1.0" encoding="UTF-8"?>
<svg version="1.1" xmlns="http://www.w3.org/2000/svg" width="512" height="512">
<defs>
  <linearGradient id="brightGradient" x1="0%" y1="0%" x2="100%" y2="100%">
    <stop offset="0%" stop-color="#72A1DE"/>
    <stop offset="100%" stop-color="#A8E0FF"/>
  </linearGradient>
</defs>

<path d="M0 0 C2.65527344 1.25244141 2.65527344 1.25244141 5.359375 2.8515625 C6.88884766 3.74584961 6.88884766 3.74584961 8.44921875 4.65820312 C10.08310547 5.63176758 10.08310547 5.63176758 11.75 6.625 C12.90697352 7.30502178 14.06453713 7.98404047 15.22265625 8.66210938 C17.62665148 10.07067324 20.02805773 11.48350641 22.42773438 12.89941406 C27.9283488 16.14016978 33.46603409 19.31666323 39 22.5 C41.16684034 23.74969892 43.3335065 24.99969989 45.5 26.25 C47.10875 27.178125 47.10875 27.178125 48.75 28.125 C86.66666667 50 124.58333333 71.875 162.5 93.75 C163.57378906 94.3694751 164.64757812 94.9889502 165.75390625 95.62719727 C167.9076172 96.86976019 170.06126367 98.11243489 172.21484375 99.35522461 C177.23684262 102.25314623 182.25942807 105.15003349 187.28442383 108.04275513 C189.05045522 109.05947198 190.81627431 110.07655658 192.58203125 111.09375 C194.78734155 112.36400873 196.99304216 113.63359018 199.19921875 114.90234375 C200.20597656 115.48242188 201.21273438 116.0625 202.25 116.66015625 C203.12140625 117.16168213 203.9928125 117.66320801 204.890625 118.17993164 C205.91671875 118.7805542 206.9428125 119.38117676 208 120 C208.80812806 120.36977514 209.61625613 120.73955028 210.44887292 121.12053072 C217.43085579 124.61363684 217.43085579 124.61363684 218.92203641 128.24596381 C219.26446112 131.04538844 219.28580385 133.69678146 219.20254517 136.51620483 C219.21536154 138.10422942 219.21536154 138.10422942 219.22843683 139.72433531 C219.24491358 143.27285966 219.1899198 146.8166576 219.13525391 150.36474609 C219.13243323 152.90746957 219.13401638 155.45020119 219.13967896 157.99291992 C219.14195627 163.46753469 219.11359769 168.94062679 219.05730057 174.41492844 C218.9759616 182.32944541 218.94997973 190.2433864 218.93742065 198.15827604 C218.91554454 210.99988736 218.84902431 223.84086278 218.75439453 236.68212891 C218.66257704 249.15475283 218.59180667 261.62720392 218.54931641 274.10009766 C218.54668917 274.86916617 218.54406194 275.63823469 218.54135509 276.43060832 C218.52830453 280.28887381 218.51566749 284.14714052 218.50323606 288.00540805 C218.39960068 320.0040675 218.22349846 352.00194541 218 384 C133.5 432.75 133.5 432.75 130.24951172 434.62524414 C128.08442929 435.87435518 125.91939018 437.12354129 123.75439453 438.37280273 C118.31384294 441.51202309 112.87252784 444.64990563 107.4296875 447.78515625 C96.97793801 453.80747329 86.53700452 459.84669337 76.125 465.9375 C66.85903466 471.35685334 57.55007991 476.69795389 48.22363281 482.01217651 C39.83046855 486.7956841 31.4656164 491.6252791 23.125 496.5 C22.13773926 497.07435791 21.15047852 497.64871582 20.13330078 498.24047852 C15.93505148 500.68487039 11.74904718 503.14106486 7.609375 505.68359375 C6.96597168 506.07160156 6.32256836 506.45960938 5.65966797 506.859375 C4.03428381 507.84127602 2.41890271 508.83968751 0.8046875 509.83984375 C-2.70202868 511.29039348 -4.33661894 510.87041391 -8 510 C-10.65527344 508.74755859 -10.65527344 508.74755859 -13.359375 507.1484375 C-14.88884766 506.25415039 -14.88884766 506.25415039 -16.44921875 505.34179688 C-17.53847656 504.69275391 -18.62773437 504.04371094 -19.75 503.375 C-20.90697352 502.69497822 -22.06453713 502.01595953 -23.22265625 501.33789062 C-25.62665148 499.92932676 -28.02805773 498.51649359 -30.42773438 497.10058594 C-35.9283488 493.85983022 -41.46603409 490.68333677 -47 487.5 C-49.16684034 486.25030108 -51.3335065 485.00030011 -53.5 483.75 C-54.5725 483.13125 -55.645 482.5125 -56.75 481.875 C-74.625 471.5625 -74.625 471.5625 -92.5 461.25 C-93.57266113 460.63116943 -94.64532227 460.01233887 -95.75048828 459.37475586 C-97.91557071 458.12564482 -100.08060982 456.87645871 -102.24560547 455.62719727 C-107.68615706 452.48797691 -113.12747216 449.35009437 -118.5703125 446.21484375 C-129.02206199 440.19252671 -139.46299548 434.15330663 -149.875 428.0625 C-159.14032389 422.64352182 -168.44887288 417.30324113 -177.77435303 411.98883057 C-203.72756413 397.19489999 -203.72756413 397.19489999 -211.06074142 392.62763309 C-213.94126298 390.90547043 -213.94126298 390.90547043 -217.10811234 390.0184164 C-221.07046917 388.52305193 -223.19533859 387.2111396 -226 384 C-228.4065628 376.24945346 -227.51057373 367.5288711 -227.36230469 359.52172852 C-227.3589193 356.97885804 -227.36082078 354.43597583 -227.36761475 351.89311218 C-227.37034618 346.42097277 -227.33635448 340.95102926 -227.26876068 335.47934151 C-227.17110247 327.56879096 -227.13997083 319.6590699 -227.12490478 311.7479819 C-227.09866115 298.91232703 -227.01885885 286.07758891 -226.90527344 273.24243164 C-226.79507183 260.77665789 -226.71015785 248.31113342 -226.65917969 235.8449707 C-226.65602701 235.07616491 -226.65287432 234.30735911 -226.64962611 233.51525617 C-226.6339653 229.6582618 -226.61880089 225.80126566 -226.60388327 221.94426835 C-226.47954494 189.96217935 -226.26824439 157.98121709 -226 126 C-63.5 32.25 -63.5 32.25 -60.24658203 30.37304688 C-58.09128689 29.1295949 -55.93601327 27.88610564 -53.78076172 26.64257812 C-48.77662326 23.75537125 -43.7722948 20.8684957 -38.76715088 17.98303223 C-37.01658759 16.97380896 -35.26609589 15.96446164 -33.515625 14.95507812 C-31.33607835 13.6983234 -29.15640168 12.44179414 -26.9765625 11.18554688 C-25.47609375 10.32026367 -25.47609375 10.32026367 -23.9453125 9.4375 C-22.96852539 8.87933594 -21.99173828 8.32117187 -20.98535156 7.74609375 C-18.89766292 6.5250315 -16.8333069 5.26358928 -14.78808594 3.97265625 C-13.74168945 3.32167969 -12.69529297 2.67070313 -11.6171875 2 C-10.68245605 1.401875 -9.74772461 0.80375 -8.78466797 0.1875 C-5.29272615 -1.30161143 -3.61820457 -1.04975891 0 0 Z M11 43 C11 70.72 11 98.44 11 127 C19.25 131.62 27.5 136.24 36 141 C44.4375 145.9375 44.4375 145.9375 48.46875 148.328125 C54.09868016 151.66002003 59.76925756 154.92135957 65.4375 158.1875 C66.53167236 158.81825439 67.62584473 159.44900879 68.75317383 160.09887695 C73.95948286 163.09903949 79.16728612 166.09658346 84.37678528 169.09120178 C86.15129074 170.11150425 87.92543737 171.13242776 89.69946289 172.15356445 C91.92317007 173.43333321 94.14757649 174.71188804 96.37280273 175.98901367 C100.84069575 178.56111418 105.2754464 181.14902185 109.6171875 183.9296875 C112.62330397 186.17400255 112.62330397 186.17400255 115 186 C114.98432952 186.60922995 114.96865904 187.21845989 114.95251369 187.84615135 C114.57629262 202.70307388 114.2953971 217.55953448 114.11919308 232.42004967 C114.03170028 239.60713617 113.91255928 246.79103509 113.7175293 253.97607422 C113.547517 260.24245817 113.43828825 266.50653439 113.40049559 272.77516043 C113.37840791 276.09311873 113.31794496 279.40297647 113.20258904 282.71918869 C112.14841952 296.05932955 112.14841952 296.05932955 116.64604759 308.06410408 C120.6393268 311.43311578 125.03121497 313.4382972 129.91377544 315.20009995 C132.98746828 316.37861501 135.63078265 318.00953431 138.43359375 319.73046875 C140.4344135 320.88364977 142.43572015 322.03598639 144.4375 323.1875 C146.65632247 324.46471786 148.87507006 325.74206582 151.09375 327.01953125 C152.21910156 327.66744629 153.34445312 328.31536133 154.50390625 328.98291016 C157.50780334 330.71440538 160.50745006 332.4531368 163.50572205 334.1943512 C165.90458738 335.58740456 168.30458072 336.9785084 170.70462036 338.36953735 C172.40824502 339.35802549 174.11026525 340.34927715 175.81225586 341.34057617 C176.84229736 341.93717041 177.87233887 342.53376465 178.93359375 343.1484375 C179.84165771 343.67614746 180.74972168 344.20385742 181.68530273 344.74755859 C184.04741501 346.1121051 184.04741501 346.1121051 187 347 C187.56147406 320.77517754 187.98425352 294.55125945 188.24349213 268.32163048 C188.36708297 256.14140919 188.53544385 243.96492858 188.81054688 231.78710938 C189.05031475 221.16835691 189.20471686 210.55231294 189.25812387 199.93092883 C189.28933639 194.30887075 189.36222521 188.69455768 189.53752136 183.07499313 C191.31404844 160.97732243 191.31404844 160.97732243 184.64449692 140.77313805 C179.03526138 135.80863853 172.89141219 133.09703347 165.78815842 130.90844917 C162.08568324 129.70209358 159.15985447 127.96364656 155.8828125 125.87890625 C153.96389348 124.77282692 152.04463128 123.66734273 150.125 122.5625 C147.94009462 121.30340198 145.75519908 120.04428689 143.5703125 118.78515625 C142.48524414 118.16012207 141.40017578 117.53508789 140.28222656 116.89111328 C134.85340058 113.76319852 129.42680719 110.63141552 124 107.5 C121.83334417 106.24998121 119.6666775 104.99998122 117.5 103.75 C78.5 81.25 78.5 81.25 75.2487793 79.37426758 C73.08621417 78.1266526 70.92361661 76.87909384 68.76098633 75.6315918 C63.28129629 72.47056551 57.80220642 69.30850691 52.32421875 66.14453125 C45.88501853 62.42585422 39.44344032 58.71132491 33 55 C31.43475586 54.09797852 31.43475586 54.09797852 29.83789062 53.17773438 C26.87251402 51.47017013 23.90534701 49.76576607 20.9375 48.0625 C20.04442139 47.54792236 19.15134277 47.03334473 18.23120117 46.50317383 C17.42142822 46.03935303 16.61165527 45.57553223 15.77734375 45.09765625 C15.06827881 44.69039307 14.35921387 44.28312988 13.62866211 43.86352539 C12.15998789 42.92192745 12.15998789 42.92192745 11 43 Z M-24.96875 45.7109375 C-26.00572021 46.29093506 -27.04269043 46.87093262 -28.11108398 47.46850586 C-29.22942627 48.09764893 -30.34776855 48.72679199 -31.5 49.375 C-32.64476807 50.01767822 -33.78953613 50.66035645 -34.96899414 51.32250977 C-41.82613094 55.1828131 -48.64652246 59.0955752 -55.41430664 63.11010742 C-61.72670347 66.85253734 -68.07910016 70.5238528 -74.4375 74.1875 C-75.54472412 74.82550537 -76.65194824 75.46351074 -77.79272461 76.12084961 C-80.06337068 77.42889477 -82.33412358 78.73675448 -84.60498047 80.04443359 C-90.0716998 83.19332054 -95.53574887 86.34683264 -101 89.5 C-103.16665311 90.7500235 -105.33331979 92.00002347 -107.5 93.25 C-108.5725 93.86875 -109.645 94.4875 -110.75 95.125 C-146.5 115.75 -146.5 115.75 -149.75561523 117.62817383 C-151.90364046 118.86746267 -154.05159075 120.10688141 -156.19946289 121.34643555 C-161.28655549 124.28202567 -166.37441847 127.21625672 -171.4649353 130.14590454 C-173.87543748 131.53328095 -176.28551376 132.92139624 -178.69555664 134.30957031 C-180.40143968 135.29173815 -182.10793986 136.27283385 -183.81445312 137.25390625 C-185.35842773 138.14335937 -185.35842773 138.14335937 -186.93359375 139.05078125 C-188.2956897 139.83449097 -188.2956897 139.83449097 -189.68530273 140.6340332 C-191.49126201 141.69977966 -193.25521129 142.83680752 -195 144 C-195.29432844 146.72400881 -195.39114961 149.22087967 -195.36076355 151.94717407 C-195.36332682 152.77784405 -195.3658901 153.60851403 -195.36853105 154.46435583 C-195.37349495 157.26370328 -195.35693335 160.06251817 -195.34057617 162.86181641 C-195.33973046 164.86208585 -195.34020394 166.86235622 -195.34190369 168.86262512 C-195.34276725 174.30662886 -195.32508311 179.75043579 -195.30418181 185.19439363 C-195.28547511 190.87855828 -195.28366933 196.56272704 -195.28010559 202.24691772 C-195.27076743 213.01689047 -195.24612971 223.78677226 -195.21605712 234.55670488 C-195.18256816 246.81527187 -195.16604097 259.07384311 -195.15097082 271.33244443 C-195.11958168 296.55501345 -195.06678683 321.77750164 -195 347 C-191.38360716 345.58716277 -188.09649971 344.00554713 -184.73828125 342.05078125 C-183.71452393 341.4573291 -182.6907666 340.86387695 -181.63598633 340.25244141 C-180.53923584 339.61226074 -179.44248535 338.97208008 -178.3125 338.3125 C-177.15864392 337.6420768 -176.00458769 336.97199795 -174.8503418 336.30224609 C-173.05423762 335.25987042 -171.25834255 334.21714576 -169.46321106 333.1730957 C-165.32569231 330.76678744 -161.18079413 328.37379919 -157.03125 325.98828125 C-155.90420654 325.34012451 -154.77716309 324.69196777 -153.6159668 324.02416992 C-151.49283572 322.80357746 -149.36933161 321.58363351 -147.24536133 320.36450195 C-145.28684959 319.23665233 -143.34338944 318.0821173 -141.41859436 316.89764404 C-138.88342537 315.49038485 -136.84322264 314.55044693 -134.16104126 313.63023376 C-129.67835042 311.88985439 -125.89869325 309.94182659 -123 306 C-120.17535569 297.4305765 -121.26309697 287.75310629 -121.53515625 278.87109375 C-121.56315405 276.19333975 -121.58523235 273.51618846 -121.59947205 270.83839417 C-121.64594614 264.52568119 -121.76880408 258.21690324 -121.91971439 251.90591723 C-122.08786512 244.7165611 -122.16996617 237.52700845 -122.24514592 230.33617294 C-122.40159026 215.55544332 -122.66511453 200.77779041 -123 186 C-122.23186478 185.70039368 -121.46372955 185.40078735 -120.6723175 185.09210205 C-117.69766389 183.87644362 -115.01740078 182.39689336 -112.23046875 180.796875 C-111.10705078 180.15363281 -109.98363281 179.51039063 -108.82617188 178.84765625 C-107.61321505 178.14855234 -106.40032616 177.44933056 -105.1875 176.75 C-103.92393897 176.02454649 -102.66026552 175.29928874 -101.39648438 174.57421875 C-92.60438985 169.52432305 -83.84371373 164.4211056 -75.09375 159.29858398 C-66.23277069 154.11769848 -57.3243446 149.0215781 -48.40429688 143.94335938 C-46.17906072 142.67578612 -43.97840808 141.36428732 -41.80151367 140.01538086 C-38.92241956 138.3349584 -36.17032271 137.43761726 -32.95825195 136.56469727 C-26.98442186 134.62174478 -22.36292931 132.50869133 -19 127 C-15.30697289 114.59273861 -17.14420856 100.04813294 -17.69537354 87.30548096 C-17.89076409 82.31258538 -17.97672352 77.31789269 -18.07226562 72.32226562 C-18.27524728 62.54339301 -18.59888158 52.77261193 -19 43 C-21.08578892 43 -23.22248371 44.73325736 -24.96875 45.7109375 Z M-10.65625 156.5 C-11.58236084 157.04946289 -12.50847168 157.59892578 -13.46264648 158.16503906 C-14.96613647 159.07334473 -14.96613647 159.07334473 -16.5 160 C-18.66716137 161.28781797 -20.83516535 162.5742188 -23.00390625 163.859375 C-23.56924576 164.19563904 -24.13458527 164.53190308 -24.71705627 164.87835693 C-30.64959091 168.4020005 -36.64196359 171.81825342 -42.64047241 175.22796631 C-51.17292733 180.08067778 -59.70066025 184.94292048 -68.1875 189.875 C-69.22958618 190.47296387 -69.22958618 190.47296387 -70.29272461 191.08300781 C-73.7291335 192.95026676 -73.7291335 192.95026676 -76 196 C-75.34854004 196.37584229 -74.69708008 196.75168457 -74.02587891 197.13891602 C-73.10210449 197.67186279 -72.17833008 198.20480957 -71.2265625 198.75390625 C-70.18701416 199.35364258 -69.14746582 199.95337891 -68.07641602 200.57128906 C-65.74616432 201.91567138 -63.41592188 203.26006971 -61.08569336 204.60449219 C-55.10817017 208.0531854 -49.13048203 211.50159185 -43.15234375 214.94921875 C-42.05680176 215.58150391 -40.96125977 216.21378906 -39.83251953 216.86523438 C-37.65923117 218.11786885 -35.48443267 219.36788705 -33.30810547 220.61523438 C-28.28282891 223.49998736 -23.28838679 226.41662184 -18.35546875 229.45703125 C-17.48784912 229.98393555 -16.62022949 230.51083984 -15.72631836 231.05371094 C-14.12681761 232.02826626 -12.53689548 233.01880177 -10.95922852 234.02832031 C-6.75431321 236.60392291 -6.75431321 236.60392291 -1.9375 236.5390625 C1.52357114 234.72568214 4.91437962 232.8450356 8.25 230.8125 C9.76356586 229.90628644 11.27794319 229.00142733 12.79296875 228.09765625 C14.03506104 227.35539795 14.03506104 227.35539795 15.30224609 226.59814453 C20.36136172 223.60113359 25.46487381 220.68085165 30.5625 217.75 C43.07016537 210.54844913 55.54133381 203.28595845 68 196 C65.65110132 193.53590875 63.5237355 191.51499194 60.515625 189.9140625 C59.84063965 189.54829102 59.1656543 189.18251953 58.47021484 188.80566406 C57.73754395 188.41604492 57.00487305 188.02642578 56.25 187.625 C48.88502903 183.62042019 41.6089413 179.48668614 34.375 175.25 C33.37791016 174.66798828 32.38082031 174.08597656 31.35351562 173.48632812 C25.97915102 170.34528776 20.61972228 167.18079274 15.2734375 163.9921875 C14.18111816 163.34475586 13.08879883 162.69732422 11.96337891 162.03027344 C9.85976041 160.78299804 7.76028778 159.52869721 5.66552734 158.26660156 C4.71887207 157.70682617 3.7722168 157.14705078 2.796875 156.5703125 C1.96510742 156.07289551 1.13333984 155.57547852 0.27636719 155.06298828 C-4.11177133 153.01387255 -6.79463357 154.17870859 -10.65625 156.5 Z M-92 222 C-92.55878004 232.70773347 -92.98374773 243.41195413 -93.24349213 254.13134956 C-93.3682562 259.11122961 -93.53691291 264.08107735 -93.81054688 269.05517578 C-95.89001656 289.93568673 -95.89001656 289.93568673 -89.77838135 309.10214233 C-84.20081237 314.01335913 -77.88552663 316.65648255 -70.8963623 318.99133301 C-67.13355679 320.30174149 -64.11328363 322.07739876 -60.7421875 324.19140625 C-58.7867012 325.31552676 -56.83098027 326.43923922 -54.875 327.5625 C-45.39969067 333.01194042 -35.97006253 338.53329503 -26.58740234 344.14086914 C-25.73227051 344.64996826 -24.87713867 345.15906738 -23.99609375 345.68359375 C-22.86965454 346.35733032 -22.86965454 346.35733032 -21.72045898 347.04467773 C-20.18227245 348.08090889 -20.18227245 348.08090889 -19 348 C-18.60502853 337.22181489 -18.30354241 326.44536492 -18.11919308 315.66140175 C-18.0306763 310.65267998 -17.91081882 305.64892692 -17.7175293 300.64306641 C-17.53192366 295.8055756 -17.43101245 290.97283846 -17.38708687 286.132061 C-17.35582031 284.29186451 -17.29474144 282.45191169 -17.20258904 280.61375809 C-16.72478671 272.09171193 -16.72478671 272.09171193 -19 264 C-23.11478764 259.6613172 -28.49172089 257.2524485 -33.91377449 254.9267931 C-36.90553168 253.59772301 -39.63148396 251.95982304 -42.43359375 250.26953125 C-44.43444347 249.11640222 -46.4357499 247.96406532 -48.4375 246.8125 C-50.65759009 245.53392015 -52.87764091 244.25527213 -55.09765625 242.9765625 C-56.78592529 242.00444824 -56.78592529 242.00444824 -58.50830078 241.01269531 C-62.11083821 238.93715621 -65.70985022 236.85554559 -69.30859375 234.7734375 C-71.08891335 233.74401124 -72.86929051 232.71468459 -74.64968872 231.68539429 C-76.34167573 230.70677426 -78.033027 229.72705532 -79.72436523 228.74731445 C-81.26459351 227.85725708 -81.26459351 227.85725708 -82.8359375 226.94921875 C-83.73876465 226.42674561 -84.6415918 225.90427246 -85.57177734 225.3659668 C-87.68835891 224.17530987 -89.82429373 223.07668056 -92 222 Z M78.56640625 224.53515625 C77.62071777 225.08953369 76.6750293 225.64391113 75.70068359 226.21508789 C74.14728271 227.12955688 74.14728271 227.12955688 72.5625 228.0625 C70.35841977 229.35475844 68.15398046 230.64640459 65.94921875 231.9375 C65.37806335 232.2721376 64.80690796 232.60677521 64.21844482 232.95155334 C57.15658831 237.08546615 50.06124429 241.16138512 42.96313477 245.23266602 C40.90389412 246.41703821 38.87086505 247.64771875 36.86083984 248.91381836 C33.79855369 250.72846935 30.73173726 251.77037534 27.34619141 252.85375977 C20.65340501 255.33280445 15.0809877 257.94217806 11 264 C6.84622775 276.2853706 8.8498587 291.12077549 9.48937988 303.83184814 C9.71593148 308.81098731 9.81521446 313.79256574 9.92578125 318.77539062 C10.16058353 328.523385 10.53510999 338.26045364 11 348 C11.94110626 347.46138336 12.88221252 346.92276672 13.85183716 346.36782837 C15.10971236 345.64836159 16.36759655 344.92891053 17.62548828 344.20947266 C18.55177788 343.67925255 18.55177788 343.67925255 19.4967804 343.13832092 C24.2806481 340.40285576 29.08661628 337.70874024 33.90209961 335.02929688 C47.3731908 327.53318832 60.73921408 319.86248274 74 312 C74.83325806 311.71426117 75.66651611 311.42852234 76.52502441 311.13412476 C79.77745151 309.77745396 81.6599349 308.66010025 84 306 C85.45515218 299.69124598 85.16424385 293.47835515 84.9765625 287.0390625 C84.9579003 285.16437557 84.94367084 283.2896397 84.9336853 281.41488647 C84.89558668 276.49147777 84.79743928 271.57104152 84.68664551 266.64880371 C84.5841602 261.62174698 84.53863699 256.59420757 84.48828125 251.56640625 C84.38118278 241.70963473 84.21062117 231.85506495 84 222 C82.03252675 222 80.20289779 223.57246771 78.56640625 224.53515625 Z M-114.06640625 335.75390625 C-115.09628662 336.35364258 -116.12616699 336.95337891 -117.18725586 337.57128906 C-118.30108643 338.22838867 -119.41491699 338.88548828 -120.5625 339.5625 C-121.72819871 340.24384596 -122.89430227 340.92449968 -124.06079102 341.60449219 C-126.49164307 343.02223538 -128.92070769 344.44297335 -131.34863281 345.86572266 C-137.02786622 349.19000949 -142.73427845 352.46708708 -148.4375 355.75 C-158.96526939 361.82136516 -169.48507959 367.90641359 -180 374 C-177.07024778 376.2875096 -174.05999635 378.19978792 -170.8359375 380.046875 C-169.80968262 380.63670166 -168.78342773 381.22652832 -167.72607422 381.83422852 C-166.62021973 382.46643311 -165.51436523 383.0986377 -164.375 383.75 C-163.2096351 384.41890541 -162.04443611 385.08809996 -160.87939453 385.75756836 C-158.45802069 387.14862178 -156.03593877 388.53842958 -153.61328125 389.92724609 C-148.02848942 393.12968409 -142.45158197 396.34579313 -136.875 399.5625 C-135.79766602 400.18358643 -134.72033203 400.80467285 -133.61035156 401.44458008 C-126.4344281 405.584909 -119.27600335 409.7543114 -112.125 413.9375 C-103.44737759 419.01275123 -94.73394432 424.02258767 -86 429 C-76.28539974 434.53628113 -66.6034846 440.1251363 -56.95288086 445.77246094 C-48.41300485 450.76773756 -39.84988543 455.72215088 -31.2644043 460.63867188 C-26.38467162 463.43875579 -21.53279365 466.26244808 -16.7578125 469.23828125 C-15.58496704 469.96096191 -15.58496704 469.96096191 -14.38842773 470.69824219 C-12.96933008 471.57787809 -11.55911459 472.47208952 -10.16040039 473.38378906 C-8.11573818 474.70179285 -8.11573818 474.70179285 -5 476 C-1.53533491 474.92443282 1.52858409 473.2382279 4.67578125 471.453125 C5.57321045 470.94547607 6.47063965 470.43782715 7.39526367 469.91479492 C8.35795166 469.3654126 9.32063965 468.81603027 10.3125 468.25 C11.32868408 467.67290283 12.34486816 467.09580566 13.3918457 466.5012207 C21.51704339 461.87474475 29.5956416 457.17017856 37.66333008 452.44433594 C45.41246774 447.91014007 53.19917869 443.44435477 61 439 C70.72134099 433.46031101 80.40895092 427.86624937 90.06689453 422.21655273 C100.58347855 416.06664108 111.13914401 409.98508178 121.69580078 403.90429688 C125.02614252 401.98493338 128.35509148 400.06317647 131.68359375 398.140625 C145.10190146 390.39097206 158.53753017 382.67269671 172 375 C167.34559266 370.90412154 162.08219566 368.10970348 156.6875 365.125 C148.32854757 360.45193738 140.01526736 355.71188524 131.75 350.875 C130.26282471 350.00887085 130.26282471 350.00887085 128.74560547 349.12524414 C123.95480831 346.33186027 119.18275693 343.51331286 114.44140625 340.63671875 C113.57354492 340.11674316 112.70568359 339.59676758 111.81152344 339.06103516 C110.19162061 338.08966318 108.57846741 337.10690942 106.97363281 336.11083984 C106.2565918 335.68367676 105.53955078 335.25651367 104.80078125 334.81640625 C103.87519409 334.25095093 103.87519409 334.25095093 102.9309082 333.67407227 C100.24154955 332.73522801 98.70940348 333.17216926 96 334 C93.39365296 335.2455272 93.39365296 335.2455272 90.73828125 336.8515625 C89.71541016 337.44775391 88.69253906 338.04394531 87.63867188 338.65820312 C86.54103516 339.30724609 85.44339844 339.95628906 84.3125 340.625 C83.15083078 341.30478918 81.98871307 341.98381248 80.82617188 342.66210938 C78.41182554 344.07158303 75.99944078 345.48432987 73.58837891 346.89941406 C68.07681451 350.13055501 62.5370282 353.31276872 57 356.5 C54.83970246 357.74584878 52.67954675 358.99194354 50.51953125 360.23828125 C49.44783691 360.85654785 48.37614258 361.47481445 47.27197266 362.11181641 C42.84423712 364.66696538 38.41743958 367.22373574 33.99121094 369.78149414 C31.80987054 371.03997216 29.62695553 372.29572529 27.44238281 373.54858398 C22.23094462 376.53922981 17.04729698 379.56288307 11.91015625 382.6796875 C10.95343018 383.25114502 9.9967041 383.82260254 9.01098633 384.41137695 C7.22087169 385.48190001 5.44001403 386.56811831 3.6706543 387.67260742 C2.87699463 388.14287354 2.08333496 388.61313965 1.265625 389.09765625 C0.58274414 389.51539307 -0.10013672 389.93312988 -0.80371094 390.36352539 C-4.84154117 391.53367028 -8.08081784 389.47285989 -11.65527344 387.6340332 C-12.54762695 387.11156006 -13.43998047 386.58908691 -14.359375 386.05078125 C-15.37902344 385.4578125 -16.39867187 384.86484375 -17.44921875 384.25390625 C-19.08310547 383.29291016 -19.08310547 383.29291016 -20.75 382.3125 C-21.90720972 381.63743361 -23.06476857 380.96296538 -24.22265625 380.2890625 C-26.62570582 378.88984195 -29.0272392 377.48807065 -31.42773438 376.08447266 C-36.93786819 372.86550631 -42.47008184 369.68481153 -48 366.5 C-50.1576525 365.2553824 -52.31520418 364.01059 -54.47265625 362.765625 C-58.89690769 360.21314665 -63.32141668 357.66111545 -67.74609375 355.109375 C-68.85654053 354.4687915 -69.9669873 353.82820801 -71.11108398 353.16821289 C-73.30413758 351.9035654 -75.49764941 350.63971217 -77.69165039 349.37670898 C-82.72441195 346.47763144 -87.74840438 343.56585286 -92.75 340.61328125 C-93.63115479 340.09540039 -94.51230957 339.57751953 -95.42016602 339.04394531 C-97.05148745 338.08391636 -98.679791 337.11873325 -100.30444336 336.14746094 C-101.01737549 335.72883789 -101.73030762 335.31021484 -102.46484375 334.87890625 C-103.079646 334.5135376 -103.69444824 334.14816895 -104.32788086 333.77172852 C-108.25111473 331.96104925 -110.65376601 333.75101252 -114.06640625 335.75390625 Z " fill="url(#brightGradient)" transform="translate(260,1)"/>
</svg>
