<?xml version="1.0" standalone="no"?>
<!DOCTYPE svg PUBLIC "-//W3C//DTD SVG 20010904//EN"
 "http://www.w3.org/TR/2001/REC-SVG-20010904/DTD/svg10.dtd">
<svg version="1.0" xmlns="http://www.w3.org/2000/svg"
 width="512.000000pt" height="512.000000pt" viewBox="0 0 512.000000 512.000000"
 preserveAspectRatio="xMidYMid meet">

<defs>
  <linearGradient id="brightGradient" x1="0%" y1="0%" x2="100%" y2="100%">
    <stop offset="0%" stop-color="#72A1DE"/>
    <stop offset="100%" stop-color="#A8E0FF"/>
  </linearGradient>
</defs>

<g transform="translate(0.000000,512.000000) scale(0.100000,-0.100000)"
fill="url(#brightGradient)" stroke="none">
<path d="M2119 5071 c-18 -15 -36 -71 -98 -316 l-76 -298 -120 -49 c-66 -27
-132 -54 -146 -60 -24 -10 -46 1 -270 135 -284 170 -289 172 -326 163 -31 -8
-574 -541 -599 -588 -8 -15 -14 -36 -14 -46 0 -11 70 -136 155 -278 85 -143
155 -265 155 -272 0 -7 -10 -32 -22 -55 -12 -23 -38 -85 -58 -137 l-36 -95
-299 -76 c-245 -62 -301 -80 -316 -98 -18 -22 -19 -49 -19 -441 0 -392 1 -419
19 -441 15 -18 71 -36 317 -98 l298 -76 36 -95 c20 -52 46 -114 58 -137 12
-23 22 -48 22 -55 0 -7 -70 -129 -155 -272 -85 -142 -155 -267 -155 -278 0
-10 6 -31 14 -46 25 -47 568 -580 599 -588 38 -9 42 -6 326 163 224 135 246
146 270 135 14 -6 80 -33 146 -60 l120 -49 76 -298 c62 -245 80 -301 98 -316
21 -17 44 -19 248 -19 135 0 232 4 244 10 40 22 49 61 49 210 0 182 -17 220
-100 220 -74 0 -100 -43 -100 -165 l0 -86 -102 3 -102 3 -70 281 c-45 177 -78
289 -89 302 -10 11 -66 37 -125 57 -59 20 -147 57 -197 82 -49 25 -104 46
-122 46 -23 1 -92 -35 -276 -146 -135 -81 -249 -147 -254 -147 -10 0 -423 412
-423 423 0 5 66 119 147 253 99 166 146 254 146 274 0 16 -20 71 -46 122 -25
51 -62 141 -82 200 -20 59 -46 115 -57 125 -13 11 -125 44 -302 89 l-281 70 0
304 0 304 281 70 c177 45 289 78 302 89 11 10 37 66 57 125 20 59 57 149 82
201 26 52 46 107 46 122 0 18 -51 113 -146 273 -81 134 -147 248 -147 253 0
10 412 423 423 423 5 0 119 -66 254 -147 184 -111 253 -147 276 -146 18 0 73
21 122 46 50 25 138 62 197 82 59 20 115 46 125 57 11 13 44 125 89 302 l70
281 101 3 101 3 4 -122 3 -121 33 -29 c42 -38 82 -38 124 0 l33 29 3 172 c2
119 0 182 -9 202 -23 56 -33 58 -280 58 -206 0 -229 -2 -250 -19z"/>
<path d="M3573 5076 c-185 -60 -302 -249 -272 -438 13 -79 48 -152 99 -205 40
-42 40 -43 40 -118 l0 -75 -191 0 c-104 0 -209 -5 -232 -11 -61 -15 -117 -57
-152 -113 -28 -47 -30 -56 -33 -174 l-4 -124 -31 6 c-149 31 -370 25 -533 -14
-163 -38 -394 -147 -476 -223 -49 -46 -47 -112 5 -151 43 -32 75 -24 181 42
108 68 212 111 344 144 72 18 115 22 247 22 140 -1 172 -4 258 -27 400 -106
687 -394 794 -795 23 -86 26 -116 26 -262 0 -146 -3 -176 -26 -262 -107 -401
-394 -688 -795 -795 -86 -23 -116 -26 -262 -26 -146 0 -176 3 -262 26 -402
107 -688 394 -795 795 -23 84 -26 118 -27 257 0 132 4 175 22 247 33 132 76
236 144 344 38 60 61 108 61 126 0 65 -72 113 -133 88 -34 -14 -96 -102 -160
-226 -147 -286 -174 -647 -73 -968 131 -417 495 -754 926 -856 162 -38 387
-44 534 -14 l31 6 4 -124 c3 -118 5 -127 33 -174 35 -56 91 -98 152 -113 23
-6 128 -11 232 -11 l191 0 0 -75 c0 -75 0 -76 -40 -118 -178 -185 -117 -503
119 -620 61 -30 72 -32 171 -32 99 0 110 2 172 33 78 38 149 110 187 192 23
48 26 68 26 160 0 93 -3 112 -27 162 -14 31 -44 76 -66 100 l-40 43 -4 230
c-4 252 -8 270 -67 338 -18 19 -53 46 -79 59 -44 21 -61 23 -259 26 l-213 4 0
74 c0 41 4 74 8 74 14 0 171 150 222 211 l47 57 144 -144 c88 -89 161 -153
189 -167 41 -20 62 -22 252 -25 l207 -4 36 -34 c160 -150 411 -143 561 18 25
27 57 74 72 106 24 50 27 69 27 162 0 96 -3 110 -29 165 -38 77 -120 158 -193
193 -52 24 -70 27 -163 27 -93 0 -112 -3 -162 -27 -31 -14 -76 -45 -101 -67
l-44 -41 -129 0 -129 0 -159 159 -159 159 13 79 c7 43 13 134 13 203 0 69 -6
160 -13 203 l-13 79 159 159 159 159 129 0 129 0 44 -41 c25 -22 70 -53 101
-67 50 -24 69 -27 162 -27 93 0 111 3 163 27 73 35 155 116 193 193 26 55 29
69 29 165 0 93 -3 112 -27 162 -55 118 -170 206 -298 228 -117 20 -245 -20
-335 -104 l-36 -34 -207 -4 c-190 -3 -211 -5 -252 -25 -28 -14 -101 -78 -189
-167 l-144 -144 -47 57 c-51 61 -208 211 -222 211 -4 0 -8 33 -8 74 l0 74 213
4 c197 3 215 5 259 26 26 13 61 40 79 59 59 68 63 86 67 338 l4 230 40 43 c22
24 52 69 66 100 24 50 27 69 27 162 0 92 -3 112 -26 160 -38 81 -109 154 -186
192 -57 28 -78 33 -157 35 -57 2 -107 -2 -133 -11z m172 -187 c55 -15 120 -82
135 -139 15 -57 8 -103 -27 -158 -75 -119 -244 -122 -327 -4 -75 107 -18 263
110 302 41 12 63 12 109 -1z m-5 -748 c0 -139 -3 -167 -17 -183 -15 -17 -37
-18 -275 -18 l-260 0 -29 -29 c-27 -28 -29 -34 -29 -110 0 -46 -4 -81 -10 -81
-5 0 -30 10 -55 22 l-45 22 0 116 c0 173 -24 160 292 160 l260 0 34 34 34 34
0 99 0 98 50 0 50 0 0 -164z m1021 -543 c71 -24 120 -82 134 -159 22 -121
-102 -245 -225 -224 -61 10 -122 55 -149 109 -77 156 76 331 240 274z m-456
-188 l0 -50 -124 0 -125 0 -151 -150 c-83 -82 -154 -150 -157 -150 -4 0 -14
21 -24 46 l-17 45 154 155 154 154 145 0 145 0 0 -50z m-400 -1500 l151 -150
125 0 124 0 0 -50 0 -50 -145 0 -145 0 -154 154 -154 155 17 45 c10 25 20 46
24 46 3 0 74 -67 157 -150z m850 -11 c23 -7 57 -28 81 -53 68 -68 79 -152 32
-238 -55 -97 -188 -127 -281 -62 -136 96 -107 294 52 350 45 16 66 17 116 3z
m-1625 -580 c0 -76 2 -82 29 -110 l29 -29 258 0 c225 0 260 -2 276 -17 16 -14
18 -34 18 -182 l0 -166 -50 0 -50 0 0 99 0 98 -34 34 -34 34 -260 0 c-316 0
-292 -13 -292 161 l0 116 48 21 c26 12 50 21 55 22 4 0 7 -36 7 -81z m668
-733 c46 -29 92 -107 92 -156 0 -86 -69 -178 -149 -200 -174 -47 -318 156
-215 302 63 90 180 113 272 54z"/>
<path d="M3660 4793 c-78 -29 -90 -142 -19 -178 41 -22 73 -18 107 10 59 49
46 132 -23 161 -37 15 -42 15 -65 7z"/>
<path d="M4651 3496 c-53 -30 -66 -97 -26 -144 49 -59 132 -46 161 24 18 44
10 77 -28 109 -33 28 -70 31 -107 11z"/>
<path d="M4664 1800 c-30 -12 -64 -58 -64 -87 0 -56 48 -103 105 -103 30 0 81
43 89 75 9 36 -17 91 -53 109 -33 18 -46 19 -77 6z"/>
<path d="M3639 505 c-72 -39 -55 -154 28 -179 33 -10 89 18 108 54 21 41 12
82 -27 115 -33 28 -70 31 -109 10z"/>
<path d="M2507 4439 c-36 -21 -47 -63 -47 -182 l0 -114 -92 -12 c-498 -63
-939 -359 -1187 -796 -268 -471 -268 -1080 0 -1550 255 -448 703 -743 1216
-800 l62 -7 3 -150 3 -150 33 -29 c42 -38 82 -38 124 0 l33 29 3 206 c4 278 4
279 -158 290 -370 27 -673 161 -919 407 -201 201 -337 460 -387 739 -23 127
-23 353 0 480 50 279 186 538 387 739 246 246 549 380 919 407 52 3 103 11
112 16 40 20 48 59 48 238 0 181 -8 217 -49 240 -25 13 -81 12 -104 -1z"/>
<path d="M2180 3382 c-29 -30 -30 -32 -30 -131 l0 -101 -47 -24 c-56 -28 -83
-55 -112 -113 l-21 -43 -101 0 c-99 0 -101 -1 -131 -30 -27 -28 -30 -36 -25
-73 4 -28 14 -49 32 -64 23 -21 37 -23 126 -23 l99 0 0 -60 0 -60 -90 0 c-59
0 -101 -5 -119 -14 -66 -35 -66 -137 0 -172 18 -9 60 -14 119 -14 l90 0 0 -60
0 -60 -99 0 c-89 0 -103 -2 -126 -23 -18 -15 -28 -36 -32 -64 -5 -37 -2 -45
25 -73 30 -29 32 -30 131 -30 l101 0 21 -42 c29 -59 56 -86 112 -114 l47 -24
0 -101 c0 -99 1 -101 30 -131 28 -27 36 -30 73 -25 28 4 49 14 64 32 21 23 23
37 23 126 l0 99 60 0 60 0 0 -90 c0 -100 11 -135 51 -156 35 -18 63 -18 98 0
40 21 51 56 51 156 l0 90 60 0 60 0 0 -99 c0 -89 2 -103 23 -126 15 -18 36
-28 64 -32 37 -5 45 -2 73 25 29 30 30 32 30 131 l0 101 43 21 c58 29 85 56
113 112 l24 47 101 0 c99 0 101 1 131 30 27 28 30 36 25 73 -4 28 -14 49 -32
64 -23 21 -37 23 -126 23 l-99 0 0 60 0 60 90 0 c102 0 139 13 158 55 16 34
15 60 -2 94 -21 40 -56 51 -156 51 l-90 0 0 60 0 60 99 0 c89 0 103 2 126 23
18 15 28 36 32 64 5 37 2 45 -25 73 -30 29 -32 30 -131 30 l-101 0 -24 48
c-28 55 -55 82 -113 111 l-43 21 0 101 c0 99 -1 101 -30 131 -28 27 -36 30
-73 25 -28 -4 -49 -14 -64 -32 -21 -23 -23 -37 -23 -126 l0 -99 -60 0 -60 0 0
90 c0 102 -13 139 -55 158 -51 23 -107 7 -131 -39 -9 -18 -14 -60 -14 -119 l0
-90 -60 0 -60 0 0 99 c0 89 -2 103 -23 126 -15 18 -36 28 -64 32 -37 5 -45 2
-73 -25z m762 -439 c16 -14 17 -46 17 -383 0 -338 -1 -369 -17 -383 -15 -14
-63 -16 -382 -16 -319 0 -367 2 -382 16 -16 14 -18 45 -17 381 0 321 2 368 15
384 15 16 46 17 382 17 321 0 369 -2 384 -16z"/>
<path d="M2365 2845 c-90 -32 -108 -87 -103 -309 3 -181 13 -212 78 -251 32
-18 52 -20 220 -20 208 0 235 7 275 75 18 32 20 52 20 220 0 168 -2 188 -20
220 -39 66 -69 75 -260 77 -129 2 -180 -1 -210 -12z m295 -285 l0 -100 -100 0
-100 0 0 100 0 100 100 0 100 0 0 -100z"/>
</g>
</svg>
