<?xml version="1.0" encoding="UTF-8"?>
<svg version="1.1" xmlns="http://www.w3.org/2000/svg" width="512" height="512">
<path d="M0 0 C0.88449326 -0.01268417 1.76898651 -0.02536835 2.68028259 -0.03843689 C3.62827225 -0.03550125 4.5762619 -0.03256561 5.55297852 -0.02954102 C6.53428238 -0.03478287 7.51558624 -0.04002472 8.52662659 -0.04542542 C10.60026097 -0.05184374 12.67393177 -0.05051108 14.74755859 -0.04199219 C17.91708365 -0.03348698 21.08480358 -0.06223913 24.25415039 -0.09399414 C26.27042589 -0.0956064 28.28670458 -0.09502815 30.30297852 -0.09204102 C31.72192665 -0.10889198 31.72192665 -0.10889198 33.16954041 -0.12608337 C37.35235915 -0.08187787 39.84199663 0.02114766 43.50512695 2.17114258 C45.42969634 4.33144101 46.50745905 5.93584078 47.51391602 8.62670898 C47.96347656 9.80523437 47.96347656 9.80523437 48.42211914 11.00756836 C48.7140918 11.8190332 49.00606445 12.63049805 49.30688477 13.46655273 C49.77384766 14.68955078 49.77384766 14.68955078 50.25024414 15.93725586 C52.49438477 21.93971551 52.49438477 21.93971551 52.49438477 25.40405273 C53.64938477 25.58967773 54.80438477 25.77530273 55.99438477 25.96655273 C61.56424431 27.17970179 66.57113763 29.48458919 71.73266602 31.83984375 C73.04335726 32.43720413 74.35882946 33.02420199 75.67919922 33.59985352 C77.28158555 34.30977424 78.8556578 35.08287422 80.42407227 35.86499023 C85.13501178 36.69210175 88.28441491 34.65613686 92.43188477 32.52905273 C102.85348601 27.26175469 102.85348601 27.26175469 108.49438477 28.40405273 C111.52758262 30.36761007 113.95479069 32.84817573 116.49438477 35.40405273 C117.40945801 36.29560059 118.32453125 37.18714844 119.26733398 38.10571289 C121.82184646 40.60005248 124.35022411 43.11917109 126.86962891 45.64892578 C128.4497812 47.2345107 130.03530452 48.81458716 131.62133789 50.39428711 C132.63012282 51.40373166 133.63859815 52.41348572 134.64672852 53.42358398 C135.55414795 54.33213135 136.46156738 55.24067871 137.39648438 56.17675781 C139.93481275 58.87164549 140.42829255 59.77295263 140.81469727 63.46264648 C140.34329038 69.26325073 137.78823893 73.70001671 135.16235352 78.82006836 C132.87844822 83.44025253 132.87844822 83.44025253 133.03344727 88.47436523 C133.75661133 89.92456055 133.75661133 89.92456055 134.49438477 91.40405273 C135.05031648 92.65886521 135.60213976 93.91550304 136.15063477 95.17358398 C136.76490696 96.52138208 137.37949928 97.86903432 137.99438477 99.21655273 C140.54533437 104.90245935 142.49969302 110.21485964 143.49438477 116.40405273 C144.07704102 116.56260742 144.65969727 116.72116211 145.26000977 116.88452148 C164.78459694 122.44104708 164.78459694 122.44104708 168.49438477 128.40405273 C168.88879395 130.55979919 168.88879395 130.55979919 168.91430664 132.90966797 C168.93021851 133.79416122 168.94613037 134.67865448 168.96252441 135.58995056 C168.96282654 137.01193504 168.96282654 137.01193504 168.96313477 138.46264648 C168.97074829 139.44395035 168.97836182 140.42525421 168.98620605 141.43629456 C168.99700277 143.5099127 168.99986191 145.5835852 168.99536133 147.65722656 C168.99438922 150.8270145 169.03601167 153.99438004 169.08032227 157.16381836 C169.08552955 159.18008936 169.08821745 161.19636876 169.08813477 163.21264648 C169.10453003 164.15861191 169.12092529 165.10457733 169.13781738 166.07920837 C169.09055413 170.58765759 169.0053402 172.72483505 166.22949219 176.41479492 C163.84686418 178.14769263 161.88118295 179.39952012 159.13891602 180.42358398 C157.95845703 180.87314453 157.95845703 180.87314453 156.75415039 181.33178711 C155.94655273 181.62375977 155.13895508 181.91573242 154.30688477 182.21655273 C153.48768555 182.52786133 152.66848633 182.83916992 151.82446289 183.15991211 C145.8318676 185.40405273 145.8318676 185.40405273 143.49438477 185.40405273 C143.30875977 186.55905273 143.12313477 187.71405273 142.93188477 188.90405273 C141.71873571 194.47391228 139.41384831 199.4808056 137.05859375 204.64233398 C136.46123337 205.95302523 135.87423551 207.26849743 135.29858398 208.58886719 C134.58866326 210.19125352 133.81556328 211.76532577 133.03344727 213.33374023 C132.20633575 218.04467975 134.24230064 221.19408288 136.36938477 225.34155273 C141.63668281 235.76315398 141.63668281 235.76315398 140.49438477 241.40405273 C138.52082951 244.42902883 136.04717329 246.86285024 133.49438477 249.40405273 C132.64440918 250.28287109 131.79443359 251.16168945 130.91870117 252.06713867 C128.55862498 254.49561687 126.18121477 256.90292383 123.78662109 259.29711914 C122.29372295 260.79223409 120.80905084 262.2952223 119.32446289 263.79858398 C118.36726945 264.75870701 117.40960421 265.71835995 116.45141602 266.67749023 C115.59523682 267.53777832 114.73905762 268.39806641 113.85693359 269.28442383 C110.27589343 272.49725742 108.6096592 273.44712701 103.75219727 273.25952148 C98.48298826 272.43338566 94.02403552 270.07421698 89.31860352 267.66772461 C85.8361696 266.00733784 84.20459044 265.25973754 80.32250977 266.04858398 C79.38922852 266.49588867 78.45594727 266.94319336 77.49438477 267.40405273 C76.64618164 267.78303711 75.79797852 268.16202148 74.92407227 268.55249023 C74.08102539 268.95725586 73.23797852 269.36202148 72.36938477 269.77905273 C58.03815331 276.40405273 58.03815331 276.40405273 52.49438477 276.40405273 C52.39770508 277.05116211 52.30102539 277.69827148 52.20141602 278.36499023 C51.25566211 282.43016448 49.75274624 286.16940987 48.18188477 290.02905273 C47.738125 291.17374023 47.738125 291.17374023 47.28540039 292.34155273 C46.98698242 293.07631836 46.68856445 293.81108398 46.38110352 294.56811523 C46.11515381 295.23278809 45.8492041 295.89746094 45.57519531 296.58227539 C44.08247645 299.09835133 43.13682444 300.04407987 40.49438477 301.40405273 C37.21422591 301.84777129 33.96039464 301.82416726 30.65454102 301.80249023 C29.6954332 301.80536041 28.73632538 301.80823059 27.74815369 301.81118774 C25.72158212 301.81322743 23.69499083 301.80770426 21.66845703 301.79516602 C18.57157166 301.77912879 15.47599487 301.79500909 12.37915039 301.81420898 C10.40844439 301.81222619 8.43773921 301.80838177 6.46704102 301.80249023 C5.54294937 301.80856293 4.61885773 301.81463562 3.66676331 301.82089233 C-4.78958928 301.7287242 -4.78958928 301.7287242 -8.50561523 298.40405273 C-9.47436523 296.26269531 -9.47436523 296.26269531 -10.00561523 293.79858398 C-12.41267419 283.58222413 -12.41267419 283.58222413 -18.81079102 275.7019043 C-24.01762602 273.09221815 -29.47968697 271.57225392 -35.10766602 270.1496582 C-37.47632297 269.41316071 -39.25928189 268.48121711 -41.34545898 267.15795898 C-44.25907943 265.19983494 -44.25907943 265.19983494 -46.94702148 265.43139648 C-51.24303697 267.06453825 -55.38840081 268.98619879 -59.53491211 270.96459961 C-67.00414669 274.38416388 -67.00414669 274.38416388 -71.50561523 273.40405273 C-74.48654045 271.40018021 -76.94862317 268.91484369 -79.50561523 266.40405273 C-80.45291504 265.5081543 -81.40021484 264.61225586 -82.3762207 263.68920898 C-85.04940303 261.15747187 -87.68519106 258.59029913 -90.30810547 256.0065918 C-91.40452184 254.93194986 -92.50716764 253.86362944 -93.61572266 252.80151367 C-95.23832477 251.24591394 -96.84025778 249.6714095 -98.43920898 248.09155273 C-99.18127846 247.39122925 -99.18127846 247.39122925 -99.93833923 246.67675781 C-103.46331181 243.13027174 -104.3926276 240.36594546 -104.50561523 235.40405273 C-103.86889648 233.05224609 -103.86889648 233.05224609 -102.81811523 230.99389648 C-102.26510742 229.85017578 -102.26510742 229.85017578 -101.70092773 228.68334961 C-101.30647461 227.91055664 -100.91202148 227.13776367 -100.50561523 226.34155273 C-97.42193075 220.52311467 -97.42193075 220.52311467 -96.61499023 214.12670898 C-97.4663601 211.52405635 -98.42595375 209.29407717 -99.75561523 206.90405273 C-107.50561523 192.0818953 -107.50561523 192.0818953 -107.50561523 185.40405273 C-108.08827148 185.24549805 -108.67092773 185.08694336 -109.27124023 184.92358398 C-114.24606031 183.50779399 -119.11720751 181.89240566 -123.94311523 180.02905273 C-124.93182617 179.65006836 -125.92053711 179.27108398 -126.93920898 178.88061523 C-130.17864331 177.0168311 -130.9597533 175.81994016 -132.50561523 172.40405273 C-132.94081618 169.16264311 -132.92611678 165.95195181 -132.90405273 162.68530273 C-132.90692291 161.74980591 -132.90979309 160.81430908 -132.91275024 159.85046387 C-132.91478739 157.87694695 -132.90928204 155.90340968 -132.89672852 153.92993164 C-132.88066999 150.91433433 -132.89658919 147.90007725 -132.91577148 144.88452148 C-132.91378899 142.96394562 -132.90994519 141.04337058 -132.90405273 139.12280273 C-132.91012543 138.22372192 -132.91619812 137.32464111 -132.92245483 136.39831543 C-132.86914504 131.63824458 -132.76392287 128.16155531 -129.50561523 124.40405273 C-127.36083984 123.10205078 -127.36083984 123.10205078 -124.90795898 122.16577148 C-124.02430664 121.82094727 -123.1406543 121.47612305 -122.23022461 121.12084961 C-121.31047852 120.78118164 -120.39073242 120.44151367 -119.44311523 120.09155273 C-118.51950195 119.73254883 -117.59588867 119.37354492 -116.64428711 119.00366211 C-109.86549619 116.40405273 -109.86549619 116.40405273 -107.50561523 116.40405273 C-107.35866211 115.77241211 -107.21170898 115.14077148 -107.06030273 114.48999023 C-104.80490523 105.49432434 -101.67859342 96.16352001 -96.50561523 88.40405273 C-96.83042337 82.51476846 -99.56910601 77.59851113 -102.15405273 72.41381836 C-102.46858398 71.74157227 -102.78311523 71.06932617 -103.10717773 70.37670898 C-103.39931152 69.78124268 -103.69144531 69.18577637 -103.99243164 68.57226562 C-104.81030342 65.11673789 -104.4333639 62.84146015 -103.50561523 59.40405273 C-101.59755577 56.69610696 -99.30412332 54.47837825 -96.91577148 52.19311523 C-96.25604843 51.53951019 -95.59632538 50.88590515 -94.91661072 50.2124939 C-92.81412989 48.13687056 -90.69144041 46.08332473 -88.56811523 44.02905273 C-87.1429708 42.62544007 -85.71912722 41.22050528 -84.29663086 39.81420898 C-81.69550104 37.25516454 -79.0928837 34.69788609 -76.47070312 32.16040039 C-75.94521378 31.65078766 -75.41972443 31.14117493 -74.87831116 30.61611938 C-72.88544308 28.85645149 -71.60002183 28.41585356 -68.94311523 28.08374023 C-63.45944997 28.59471813 -58.9959752 31.25921572 -54.13842773 33.73608398 C-49.4898479 36.01856948 -49.4898479 36.01856948 -44.43139648 35.86499023 C-43.46588867 35.38288086 -42.50038086 34.90077148 -41.50561523 34.40405273 C-40.25083045 33.84805851 -38.99419003 33.29624017 -37.73608398 32.74780273 C-36.38781019 32.13457535 -35.04017126 31.51995054 -33.69311523 30.90405273 C-29.17879578 28.84311156 -25.16412248 27.13407664 -20.19311523 26.52905273 C-16.5347223 25.8551016 -16.5347223 25.8551016 -15.47827148 23.75170898 C-14.66732348 21.32763197 -14.1017793 18.88981284 -13.50561523 16.40405273 C-12.73033582 14.09952801 -11.91598774 11.80786922 -11.06811523 9.52905273 C-10.6775293 8.43850586 -10.28694336 7.34795898 -9.88452148 6.22436523 C-7.66038584 1.67528327 -5.02510488 0.03501235 0 0 Z M4.49438477 17.40405273 C4.17014526 18.28927612 4.17014526 18.28927612 3.83935547 19.19238281 C2.84594423 21.87393351 1.82680698 24.54497912 0.80688477 27.21655273 C0.4672168 28.14532227 0.12754883 29.0740918 -0.22241211 30.03100586 C-2.84773728 36.82740841 -2.84773728 36.82740841 -5.75170898 39.37280273 C-9.42643096 40.74886884 -13.12592441 41.9538886 -16.88061523 43.09155273 C-23.87630638 45.28457278 -30.14340797 48.00003658 -36.38208008 51.86376953 C-40.72147584 54.42875397 -44.56585649 55.25646304 -49.50561523 54.40405273 C-52.38065485 53.42761138 -55.04878759 52.14790474 -57.75561523 50.77905273 C-60.33616408 49.47438863 -62.77720138 48.4139202 -65.50561523 47.40405273 C-68.84297894 48.55815585 -70.94839345 50.61203705 -73.39624023 53.09936523 C-74.4597168 54.17250977 -74.4597168 54.17250977 -75.54467773 55.26733398 C-76.27428711 56.01370117 -77.00389648 56.76006836 -77.75561523 57.52905273 C-78.50069336 58.2831543 -79.24577148 59.03725586 -80.01342773 59.81420898 C-81.84874944 61.67306045 -83.67923433 63.53642278 -85.50561523 65.40405273 C-84.25873187 69.38359168 -82.76328709 73.00075303 -80.88061523 76.71655273 C-78.57483374 81.87513295 -77.00246513 85.8184836 -78.50561523 91.40405273 C-79.99864813 94.49778918 -81.59067739 97.47671996 -83.29614258 100.45581055 C-86.49767836 106.10823556 -88.51657191 111.76503646 -90.40014648 117.96655273 C-93.51805248 127.66180811 -93.51805248 127.66180811 -96.34545898 129.78686523 C-97.03768555 130.03178711 -97.72991211 130.27670898 -98.44311523 130.52905273 C-104.19323529 132.65872683 -109.84546046 135.04565491 -115.50561523 137.40405273 C-115.50561523 146.31405273 -115.50561523 155.22405273 -115.50561523 164.40405273 C-109.06386682 166.87029687 -109.06386682 166.87029687 -102.61181641 169.30932617 C-101.40489136 169.78160645 -101.40489136 169.78160645 -100.17358398 170.26342773 C-99.35140381 170.57763672 -98.52922363 170.8918457 -97.68212891 171.21557617 C-93.93491719 173.26172611 -92.72163439 175.75370531 -91.40014648 179.73217773 C-91.03592298 181.03848578 -90.67544606 182.34584245 -90.31811523 183.65405273 C-87.75873043 192.46857401 -83.81392982 200.33099596 -79.50561523 208.40405273 C-77.68906739 212.03714842 -77.82655589 215.50729678 -78.50561523 219.40405273 C-79.84040521 222.77074971 -81.46705171 225.99161814 -83.19116211 229.17431641 C-84.31790918 231.25478609 -84.31790918 231.25478609 -85.50561523 234.40405273 C-84.34322462 237.73847452 -82.29773915 239.84672444 -79.81030273 242.29467773 C-78.7371582 243.3581543 -78.7371582 243.3581543 -77.64233398 244.44311523 C-76.8959668 245.17272461 -76.14959961 245.90233398 -75.38061523 246.65405273 C-74.62651367 247.39913086 -73.87241211 248.14420898 -73.09545898 248.91186523 C-71.23660751 250.74718694 -69.37324519 252.57767183 -67.50561523 254.40405273 C-62.08536639 252.66755341 -56.99445988 250.80467948 -51.93920898 248.17358398 C-46.88773833 246.57624896 -42.91484351 246.76650528 -38.18139648 248.90795898 C-37.07151367 249.58729492 -35.96163086 250.26663086 -34.81811523 250.96655273 C-27.70312135 255.12843363 -20.36905194 257.6555423 -12.47558594 259.96875 C-11.18334106 260.36211548 -11.18334106 260.36211548 -9.86499023 260.76342773 C-9.09638672 260.98482422 -8.3277832 261.2062207 -7.53588867 261.43432617 C-3.60328553 263.31266908 -2.16305079 266.81837392 -0.68139648 270.73217773 C-0.40465088 271.45308594 -0.12790527 272.17399414 0.15722656 272.91674805 C0.49536377 273.82005859 0.83350098 274.72336914 1.18188477 275.65405273 C2.27500977 278.54155273 3.36813477 281.42905273 4.49438477 284.40405273 C13.40438477 284.40405273 22.31438477 284.40405273 31.49438477 284.40405273 C35.03656047 275.98906711 35.03656047 275.98906711 38.11938477 267.40405273 C39.33184526 264.74523189 40.07895902 263.64372143 42.62719727 262.17358398 C45.55108463 261.10440129 48.50046887 260.25795128 51.49438477 259.40405273 C54.17968396 258.49489505 56.83781042 257.51864627 59.49438477 256.52905273 C60.17911865 256.27792725 60.86385254 256.02680176 61.56933594 255.76806641 C66.69138989 253.83988597 71.33211502 251.43530914 75.96704102 248.50561523 C79.91096929 246.78662331 83.39457119 246.66820524 87.48828125 248.1027832 C90.30462679 249.34367988 93.0474974 250.71039463 95.79711914 252.09155273 C99.5074837 254.07563191 99.5074837 254.07563191 103.47680664 253.70751953 C107.37605317 251.18839112 110.51372506 247.83845208 113.80688477 244.59155273 C114.5603418 243.8793457 115.31379883 243.16713867 116.09008789 242.43334961 C116.79713867 241.73661133 117.50418945 241.03987305 118.23266602 240.32202148 C118.88275635 239.69062256 119.53284668 239.05922363 120.20263672 238.40869141 C121.75659831 236.44368286 121.75659831 236.44368286 121.28637695 233.86791992 C119.84091763 229.3711334 117.7515787 225.15784385 115.77172852 220.87670898 C113.85302251 215.66041041 113.84600596 212.89870264 116.06860352 207.77514648 C116.76311083 206.45866744 117.46803921 205.14764692 118.18188477 203.84155273 C122.19422955 196.17550356 126.19492034 188.27344575 128.07641602 179.77514648 C128.92991955 176.04797638 129.5086446 174.06177645 132.77172852 171.88452148 C135.64304729 170.55155302 138.51194406 169.46692493 141.49438477 168.40405273 C146.44438477 166.42405273 146.44438477 166.42405273 151.49438477 164.40405273 C151.49438477 155.49405273 151.49438477 146.58405273 151.49438477 137.40405273 C148.17375977 136.33155273 144.85313477 135.25905273 141.43188477 134.15405273 C135.55828357 131.89651516 130.62313456 129.81394596 127.82250977 123.91577148 C126.2887969 119.68966941 125.25730402 115.34060256 124.2175293 110.97094727 C123.04491491 106.80860166 121.13263069 103.09026418 119.11938477 99.27905273 C118.5986438 98.27636353 118.5986438 98.27636353 118.06738281 97.25341797 C117.21923844 95.63194668 116.35791614 94.01738208 115.49438477 92.40405273 C113.94049578 89.29627475 114.23939511 86.85165261 114.49438477 83.40405273 C115.44630758 80.71323843 116.72225674 78.23582202 118.05688477 75.71655273 C120.62200841 71.31798014 120.62200841 71.31798014 121.32250977 66.44677734 C120.24069895 63.77828941 118.73493407 62.30592316 116.67797852 60.29467773 C115.91420898 59.54057617 115.15043945 58.78647461 114.36352539 58.00952148 C113.56108398 57.2322168 112.75864258 56.45491211 111.93188477 55.65405273 C110.72242188 54.46489258 110.72242188 54.46489258 109.48852539 53.25170898 C107.49704699 51.29558227 105.49890756 49.34679554 103.49438477 47.40405273 C98.0524315 49.14962655 92.92426317 51.02899998 87.83032227 53.63452148 C83.18263357 55.16561625 79.17319584 54.94310188 74.80297852 52.82983398 C73.50645296 52.13681179 72.21625801 51.43184542 70.93188477 50.71655273 C64.66265062 47.39810648 58.508738 44.77295546 51.77563477 42.50952148 C50.69282227 42.1447168 49.61000977 41.77991211 48.49438477 41.40405273 C47.49072876 41.18313965 47.49072876 41.18313965 46.46679688 40.95776367 C43.07125047 40.05670314 41.08931131 39.31596921 39.12573242 36.30615234 C37.950715 33.66427147 36.97631097 31.02012796 36.05688477 28.27905273 C35.39269539 26.44268975 34.7273915 24.60672936 34.06079102 22.77124023 C33.78178955 21.95768066 33.50278809 21.14412109 33.21533203 20.3059082 C32.65053661 18.423354 32.65053661 18.423354 31.49438477 17.40405273 C29.49473494 17.31647271 27.49202367 17.29708697 25.49047852 17.30639648 C23.66806641 17.31123047 23.66806641 17.31123047 21.80883789 17.31616211 C20.52944336 17.32454102 19.25004883 17.33291992 17.93188477 17.34155273 C16.00699219 17.34832031 16.00699219 17.34832031 14.04321289 17.35522461 C10.86022454 17.36705728 7.67732714 17.38354205 4.49438477 17.40405273 Z " fill="#000000" transform="translate(237.505615234375,103.595947265625)"/>
<path d="M0 0 C17.40684218 13.21654239 28.86922788 32.71784743 31.96313477 54.41577148 C34.43882289 76.19581319 29.45280375 98.35771158 15.9699707 115.93237305 C2.86604961 132.24959969 -16.19861871 144.82805526 -37.3347168 147.3269043 C-51.14931781 148.41192205 -64.1822248 147.83463549 -77.3347168 143.3269043 C-78.38530273 142.9762793 -79.43588867 142.6256543 -80.51831055 142.2644043 C-101.10873036 134.55303771 -115.88176111 118.10040709 -125.2097168 98.6394043 C-133.76861224 78.62929702 -134.02642979 55.33067706 -126.0222168 35.1394043 C-125.14787029 33.19211341 -124.25234153 31.25417917 -123.3347168 29.3269043 C-122.91577148 28.41295898 -122.49682617 27.49901367 -122.06518555 26.55737305 C-112.64488343 7.58102958 -94.46944563 -5.81250786 -74.85424805 -12.63012695 C-48.90280889 -20.32050903 -21.88385553 -15.85656189 0 0 Z M-97.71362305 21.79174805 C-110.79293562 36.86283411 -115.46705954 53.53778242 -114.49438477 73.14868164 C-113.32032702 89.16541438 -104.40022762 103.63016001 -93.0300293 114.5378418 C-78.02765327 127.37594062 -61.17437058 131.5217157 -41.82446289 130.53393555 C-25.3296002 129.162329 -11.40578198 120.09702353 -0.3347168 108.3269043 C11.2889013 94.25059615 16.42664697 78.05763808 15.4855957 59.8503418 C13.95203599 45.98571007 8.70479691 33.97047219 -0.3347168 23.3269043 C-1.00116211 22.53670898 -1.66760742 21.74651367 -2.35424805 20.93237305 C-11.87973627 10.55860387 -27.24112708 2.12429903 -41.47119141 1.18603516 C-63.64659715 0.30555084 -81.86002388 5.36544086 -97.71362305 21.79174805 Z " fill="#000000" transform="translate(305.334716796875,188.673095703125)"/>
<path d="M0 0 C15.65429889 12.97037225 26.16525189 30.91544951 28.7668457 51.17285156 C30.70152644 72.26383504 26.12257456 92.65603233 12.83862305 109.4543457 C0.13730791 124.64888196 -17.30151017 135.77305495 -37.2331543 138.17285156 C-59.39676041 139.96643818 -80.84846048 135.66436463 -98.22143555 121.00488281 C-98.88530273 120.4003125 -99.54916992 119.79574219 -100.2331543 119.17285156 C-100.98983398 118.49609375 -101.74651367 117.81933594 -102.52612305 117.12207031 C-108.22129177 111.75124956 -112.37015406 105.95972666 -116.2331543 99.17285156 C-116.69592773 98.38265625 -117.15870117 97.59246094 -117.63549805 96.77832031 C-126.82979027 79.92677559 -128.10285697 58.66903588 -123.7956543 40.11035156 C-119.22154744 26.06816337 -111.95323289 14.26503984 -101.2331543 4.17285156 C-100.45456055 3.43679687 -99.6759668 2.70074219 -98.8737793 1.94238281 C-71.24889434 -22.02081438 -28.59328812 -22.3195333 0 0 Z M-71.2331543 5.17285156 C-72.53446289 5.69878906 -72.53446289 5.69878906 -73.86206055 6.23535156 C-88.72670923 12.93491153 -99.40485956 25.23777154 -105.26049805 40.28613281 C-105.58147461 41.23875 -105.90245117 42.19136719 -106.2331543 43.17285156 C-106.59666992 44.22859375 -106.96018555 45.28433594 -107.3347168 46.37207031 C-111.14771805 62.50272345 -108.37739877 79.03340584 -99.8581543 93.11035156 C-98.677936 94.81763316 -97.47112569 96.50697266 -96.2331543 98.17285156 C-95.72268555 98.87796875 -95.2122168 99.58308594 -94.6862793 100.30957031 C-86.04722617 111.1939219 -71.94725277 119.18530106 -58.2331543 121.17285156 C-39.78036737 122.3120241 -23.00250124 119.247043 -8.7331543 106.67285156 C-7.21345244 105.19281566 -5.7110584 103.69462666 -4.2331543 102.17285156 C-3.67241211 101.63273437 -3.11166992 101.09261719 -2.53393555 100.53613281 C7.80240774 89.76571737 12.29863664 73.88607917 12.18896484 59.31713867 C11.53816633 41.39564129 3.47551554 27.30858956 -9.2331543 15.17285156 C-26.56280252 0.63402092 -50.22634185 -3.58719094 -71.2331543 5.17285156 Z " fill="#000000" transform="translate(133.233154296875,28.8271484375)"/>
<path d="M0 0 C1.58101037 1.35367554 3.14410211 2.72859239 4.6875 4.125 C5.44546875 4.79015625 6.2034375 5.4553125 6.984375 6.140625 C20.41359337 18.64369038 29.32021783 36.5221566 30.0234375 54.9453125 C30.35669768 77.92758635 25.51191514 97.7796288 9.6875 115.125 C9.17058594 115.7334375 8.65367187 116.341875 8.12109375 116.96875 C-4.3074067 130.67436453 -23.95897175 138.44426036 -42.0859375 139.4453125 C-56.21201614 139.91322607 -69.71701056 137.88137267 -82.3125 131.125 C-83.25480469 130.63257813 -84.19710937 130.14015625 -85.16796875 129.6328125 C-104.53587547 118.97923644 -116.32499977 102.0955704 -122.55078125 81.1328125 C-127.78800166 60.45250625 -123.93501115 39.13555721 -113.38134766 20.86425781 C-110.75610808 16.59239697 -107.68441787 12.82100814 -104.3125 9.125 C-103.79558594 8.5165625 -103.27867187 7.908125 -102.74609375 7.28125 C-77.10060605 -20.99948832 -29.41131981 -22.78469528 0 0 Z M-85.3125 15.125 C-86.55 16.04925781 -86.55 16.04925781 -87.8125 16.9921875 C-99.63242165 27.07605816 -106.34299167 42.65642587 -107.6328125 57.9140625 C-108.35447175 74.93562651 -103.01952489 89.60693758 -91.875 102.5 C-80.45657209 114.53356208 -65.81395973 121.8587684 -49.12426758 122.52734375 C-32.42135037 122.7958734 -16.45079278 116.76652991 -4.3125 105.125 C1.46014539 98.43440935 6.35641798 91.32860592 9.6875 83.125 C10.00589844 82.35671875 10.32429688 81.5884375 10.65234375 80.796875 C15.65345782 66.13923191 13.83607972 48.71560181 7.1796875 35.0234375 C-1.28402218 19.47383135 -13.70452752 9.21692183 -30.36328125 3.41015625 C-49.80256815 -2.10367875 -69.66473726 2.8106515 -85.3125 15.125 Z " fill="#000000" transform="translate(474.3125,361.875)"/>
<path d="M0 0 C2.43314212 1.89858817 4.73628171 3.86974324 7.015625 5.94921875 C7.6240625 6.46613281 8.2325 6.98304688 8.859375 7.515625 C22.56498953 19.94412545 30.33488536 39.5956905 31.3359375 57.72265625 C31.80385107 71.84873489 29.77199767 85.35372931 23.015625 97.94921875 C22.52320313 98.89152344 22.03078125 99.83382812 21.5234375 100.8046875 C10.86986144 120.17259422 -6.0138046 131.96171852 -26.9765625 138.1875 C-47.65686875 143.42472041 -68.97381779 139.5717299 -87.24511719 129.01806641 C-91.51697803 126.39282683 -95.28836686 123.32113662 -98.984375 119.94921875 C-99.89703125 119.17384766 -99.89703125 119.17384766 -100.828125 118.3828125 C-113.06638245 107.28493813 -121.72495668 89.07389652 -123.28808594 72.78417969 C-123.42023236 69.56199284 -123.45241009 66.36141641 -123.421875 63.13671875 C-123.41357666 61.9981543 -123.40527832 60.85958984 -123.39672852 59.68652344 C-123.02404298 41.06020447 -116.52809862 24.81333433 -103.984375 10.94921875 C-103.31921875 10.19125 -102.6540625 9.43328125 -101.96875 8.65234375 C-75.4658648 -19.81371813 -31.23118901 -21.46122282 0 0 Z M-89.171875 19.57421875 C-102.198228 33.40301649 -106.52984229 49.18540943 -106.25390625 67.53515625 C-105.81306115 80.03952108 -101.04254791 89.81293798 -93.984375 99.94921875 C-93.241875 101.02171875 -92.499375 102.09421875 -91.734375 103.19921875 C-84.28715972 110.64643403 -75.85569689 116.29582676 -65.984375 119.94921875 C-65.14777344 120.26761719 -64.31117187 120.58601563 -63.44921875 120.9140625 C-49.17688798 125.58539851 -33.1909513 123.68448131 -19.734375 117.44140625 C-4.31915182 108.98662823 6.08785767 96.53287702 12.05859375 80.07421875 C16.86925598 63.451461 14.00338548 47.21721942 5.88671875 32.20703125 C-2.13069861 18.24768662 -15.01248893 8.78274718 -30.421875 4.19921875 C-51.61876316 -0.99609698 -73.08434253 4.70733563 -89.171875 19.57421875 Z " fill="#000000" transform="translate(130.984375,361.05078125)"/>
<path d="M0 0 C2.1737263 1.66567675 4.26368496 3.38278676 6.33984375 5.16796875 C7.31050781 5.94140625 8.28117188 6.71484375 9.28125 7.51171875 C23.48011457 19.37456918 31.15309794 38.21363472 33.33984375 56.16796875 C34.65159647 79.77951769 27.77162442 100.44860105 12.09765625 118.27734375 C-1.96399798 133.01618813 -20.99287811 141.00948361 -41.17041016 141.63867188 C-61.97336209 141.84252246 -80.02438974 136.35884594 -95.66015625 122.16796875 C-96.50320313 121.41773438 -97.34625 120.6675 -98.21484375 119.89453125 C-113.22180041 105.79985159 -120.1059703 87.17885336 -121.9453125 67.046875 C-122.59906946 46.09822814 -114.59606524 25.49369651 -100.30444336 10.27392578 C-94.67978942 4.55979076 -88.69840288 0.05835173 -81.66015625 -3.83203125 C-80.88542969 -4.2909375 -80.11070312 -4.74984375 -79.3125 -5.22265625 C-54.95521493 -18.72285432 -22.56064999 -15.53736394 0 0 Z M-89.66015625 24.16796875 C-99.41697254 35.92569463 -105.5881827 51.10803643 -104.93359375 66.56640625 C-103.0820039 84.18296106 -96.00930276 99.44165965 -82.66015625 111.16796875 C-67.66225721 122.27481725 -51.03129786 126.53752678 -32.58544922 123.86767578 C-16.64356547 120.6481289 -3.56837018 111.25898387 6.21484375 98.48046875 C14.72012506 85.47239145 18.33326544 69.57034082 15.65625 54.2578125 C11.82365279 36.66885342 3.21162912 22.57992344 -12.0546875 12.62890625 C-38.41785056 -2.15343705 -68.69984877 2.00681033 -89.66015625 24.16796875 Z " fill="#000000" transform="translate(470.66015625,25.83203125)"/>
<path d="M0 0 C4.75884206 2.18544025 9.20755118 4.80619015 13.6875 7.5 C14.88906179 8.20468266 16.09153169 8.90781926 17.29492188 9.609375 C20.27856588 11.3559773 23.24525757 13.1289575 26.20452881 14.91650391 C27.42731656 15.65440812 28.65170964 16.38965715 29.87750244 17.12255859 C31.69896004 18.21177639 33.51605377 19.30792555 35.33203125 20.40625 C36.39784424 21.04884766 37.46365723 21.69144531 38.56176758 22.35351562 C41 24 41 24 42 26 C42.12059588 27.63742096 42.17991741 29.2795397 42.20874023 30.92114258 C42.22803085 31.94593216 42.24732147 32.97072174 42.26719666 34.02656555 C42.32482847 38.71534811 42.37420696 43.4039756 42.4050293 48.09301758 C42.42663078 50.56744321 42.46075841 53.04179201 42.50756836 55.51586914 C42.574411 59.07993764 42.60200345 62.6424252 42.62109375 66.20703125 C42.66283974 67.86506523 42.66283974 67.86506523 42.70542908 69.55659485 C42.68486609 77.22181219 42.68486609 77.22181219 39.36083984 80.9987793 C38.2517627 81.65918213 37.14268555 82.31958496 36 83 C34.97414795 83.64582031 33.9482959 84.29164063 32.89135742 84.95703125 C31.80701416 85.56933594 30.7226709 86.18164062 29.60546875 86.8125 C29.01381424 87.14870361 28.42215973 87.48490723 27.81257629 87.83129883 C25.94068732 88.89319213 24.0642279 89.94668737 22.1875 91 C20.94174904 91.7051849 19.6963039 92.41091033 18.45117188 93.1171875 C16.05457059 94.47584555 13.65300837 95.82504816 11.24755859 97.16796875 C9.25678343 98.29101618 7.27733794 99.43483435 5.31884766 100.61328125 C4.54976074 101.07089844 3.78067383 101.52851563 2.98828125 102 C2.35059814 102.391875 1.71291504 102.78375 1.0559082 103.1875 C-1.82982832 104.3279502 -3.91311821 104.32049068 -7 104 C-10.04516602 102.65820312 -10.04516602 102.65820312 -13.25390625 100.78125 C-13.83607407 100.44508667 -14.41824188 100.10892334 -15.01805115 99.76257324 C-16.87348401 98.68702105 -18.71778468 97.59380995 -20.5625 96.5 C-21.77341994 95.79572416 -22.98500434 95.09258948 -24.19726562 94.390625 C-27.2087672 92.64052915 -30.20541117 90.86694537 -33.19464111 89.07910156 C-34.41757953 88.34812515 -35.64203594 87.61968345 -36.86785889 86.89355469 C-38.67533236 85.82147628 -40.47702775 84.74029495 -42.27734375 83.65625 C-43.33042725 83.02525391 -44.38351074 82.39425781 -45.46850586 81.74414062 C-48 80 -48 80 -50 77 C-50.26742554 74.77468872 -50.26742554 74.77468872 -50.29052734 72.14892578 C-50.30328705 71.16425323 -50.31604675 70.17958069 -50.32919312 69.16506958 C-50.33141876 68.10254974 -50.33364441 67.04002991 -50.3359375 65.9453125 C-50.3425943 64.85161346 -50.3492511 63.75791443 -50.35610962 62.631073 C-50.36624039 60.31607751 -50.37092651 58.00105279 -50.37060547 55.68603516 C-50.37497449 52.14566836 -50.41127982 48.60655206 -50.44921875 45.06640625 C-50.45508761 42.8177126 -50.45905654 40.56901302 -50.4609375 38.3203125 C-50.47530853 37.26184113 -50.48967957 36.20336975 -50.50448608 35.11282349 C-50.45926696 27.83032355 -50.45926696 27.83032355 -48.35644531 24.02856445 C-45.65079939 21.69938791 -42.95746442 19.96040636 -39.8359375 18.22265625 C-39.24382477 17.88882431 -38.65171204 17.55499237 -38.04165649 17.21104431 C-36.1580928 16.15167315 -34.26700485 15.10670671 -32.375 14.0625 C-30.51222841 13.02210936 -28.65112903 11.97879203 -26.79058838 10.93441772 C-25.57488989 10.25385449 -24.35724144 9.57676236 -23.13763428 8.90322876 C-19.52591833 6.90068278 -16.05964 4.75052736 -12.6015625 2.49609375 C-8.34313008 -0.01067376 -4.88624077 -1.4465363 0 0 Z M-12.375 22.5625 C-13.13683594 22.98080078 -13.89867187 23.39910156 -14.68359375 23.83007812 C-16.2767428 24.71442213 -17.85651891 25.62319614 -19.42358398 26.55297852 C-22 28 -22 28 -25.03149414 29.28881836 C-28.36899139 30.89982901 -30.5476843 32.20523632 -33 35 C-34.36386641 40.8683758 -34.04443068 46.46151317 -33.6875 52.4375 C-33.63226755 54.04345243 -33.58208696 55.64958703 -33.53710938 57.25585938 C-33.41640261 61.17509814 -33.22701273 65.0855386 -33 69 C-29.39405663 71.12709071 -25.78274425 73.24466488 -22.16625977 75.35375977 C-20.93786893 76.07189844 -19.71095712 76.79257349 -18.4855957 77.51586914 C-16.71953045 78.55772574 -14.94826982 79.59021228 -13.17578125 80.62109375 C-12.11270752 81.2442749 -11.04963379 81.86745605 -9.9543457 82.50952148 C-7.09108375 83.9540479 -5.19610461 84.8822274 -2 85 C1.05224694 83.7814898 1.05224694 83.7814898 4.140625 81.8515625 C4.99210114 81.35358658 4.99210114 81.35358658 5.86077881 80.84555054 C7.66552636 79.78547192 9.45744307 78.70553754 11.25 77.625 C12.47058824 76.90495007 13.69193546 76.18618505 14.9140625 75.46875 C20.25724885 72.62501482 20.25724885 72.62501482 25 69 C25.38805363 64.24763656 25.48515356 59.4941575 25.56982422 54.7277832 C25.60641535 53.12603051 25.66092069 51.52458048 25.73388672 49.92407227 C26.45806955 40.87013215 26.45806955 40.87013215 23.30371094 32.78613281 C20.94246846 31.18805721 18.62628259 30.10390315 16 29 C14.32147741 28.02268832 12.65469201 27.02495093 11 26.0078125 C9.33511364 25.04379379 7.66843951 24.08285607 6 23.125 C5.14277344 22.62742187 4.28554688 22.12984375 3.40234375 21.6171875 C-4.04676934 17.3200763 -4.92949574 18.42011397 -12.375 22.5625 Z " fill="#000000" transform="translate(431,372)"/>
<path d="M0 0 C4.49171332 2.58751842 7.17625891 6.47405354 9.30078125 11.109375 C10.66917709 17.67767503 10.04809104 23.15047017 6.92578125 29.109375 C4.59109404 32.07619644 1.94285167 34.65355718 -0.77734375 37.265625 C-1.91136627 38.38547791 -1.91136627 38.38547791 -3.06829834 39.5279541 C-5.47534526 41.9005854 -7.89888889 44.25544932 -10.32421875 46.609375 C-12.73174284 48.96665175 -15.13565883 51.32751872 -17.53729248 53.6907959 C-19.02795554 55.15541928 -20.5225454 56.61606117 -22.02178955 58.07189941 C-26.04719976 62.00278886 -29.8537956 66.03360967 -33.49676514 70.32263184 C-38.0997094 75.53627434 -43.08306722 79.80402534 -50.07421875 81.109375 C-57.38324651 81.38133882 -62.20854289 79.51006508 -67.67398071 74.70204163 C-69.38029857 73.08233669 -71.05258764 71.4344211 -72.71484375 69.76953125 C-73.32309998 69.16556015 -73.9313562 68.56158905 -74.55804443 67.9393158 C-75.83452603 66.66854725 -77.10843575 65.39519052 -78.37988281 64.11938477 C-80.32362763 62.17246709 -82.28036083 60.23928965 -84.23828125 58.30664062 C-85.48127877 57.06591514 -86.72349374 55.82440507 -87.96484375 54.58203125 C-88.54816467 54.00792007 -89.1314856 53.4338089 -89.73248291 52.84230042 C-94.46544988 48.05484697 -96.35912484 44.14564884 -96.51171875 37.296875 C-96.40220379 31.36116431 -95.11702393 27.47855247 -91.07421875 23.109375 C-84.904493 18.29698891 -79.71349288 17.34430569 -72.07421875 18.109375 C-64.39414351 20.1122464 -59.29285478 26.50575762 -54.07421875 32.109375 C-51.24386761 30.82560825 -49.23541002 29.50533942 -47.08496094 27.26782227 C-46.53048279 26.6970546 -45.97600464 26.12628693 -45.40472412 25.53822327 C-44.8161261 24.9236174 -44.22752808 24.30901154 -43.62109375 23.67578125 C-42.34940169 22.37391573 -41.07725168 21.07249742 -39.8046875 19.77148438 C-37.81367592 17.72482645 -35.82680782 15.67456867 -33.84814453 13.6159668 C-31.92965006 11.62449393 -29.99544628 9.64938231 -28.05859375 7.67578125 C-27.47809265 7.06319962 -26.89759155 6.45061798 -26.29949951 5.81947327 C-18.95294296 -1.61560466 -9.91355459 -4.08091956 0 0 Z M-10.07421875 15.109375 C-14.94652879 19.05021401 -19.30758006 23.34446745 -23.51171875 27.984375 C-28.59700692 33.5895782 -33.85193723 39.00363883 -39.19921875 44.359375 C-39.9461499 45.1107373 -40.69308105 45.86209961 -41.46264648 46.63623047 C-42.16204346 47.33377441 -42.86144043 48.03131836 -43.58203125 48.75 C-44.2073877 49.37422852 -44.83274414 49.99845703 -45.47705078 50.64160156 C-48.33638294 53.26928499 -51.00995096 53.64273576 -54.875 53.56640625 C-59.31394165 52.64392637 -62.0087515 49.25537117 -65.07421875 46.109375 C-66.05564933 45.13636149 -67.0388302 44.16511131 -68.0234375 43.1953125 C-70.72880267 40.52102859 -73.40651933 37.82120915 -76.07421875 35.109375 C-77.06421875 35.439375 -78.05421875 35.769375 -79.07421875 36.109375 C-78.6339199 40.48512853 -75.71879782 42.84689608 -72.7265625 45.75 C-72.19527237 46.27704529 -71.66398224 46.80409058 -71.11659241 47.34710693 C-69.4218905 49.02504687 -67.71704658 50.69224228 -66.01171875 52.359375 C-64.8593413 53.49670245 -63.70764023 54.63471566 -62.55664062 55.7734375 C-59.73694691 58.56009492 -56.90811287 61.33716292 -54.07421875 64.109375 C-50.64867361 62.63003816 -48.41306602 60.70130618 -45.78051758 58.07446289 C-44.94317581 57.24342545 -44.10583405 56.412388 -43.24311829 55.5561676 C-42.34820175 54.65720261 -41.45328522 53.75823761 -40.53125 52.83203125 C-39.60704758 51.90974228 -38.68284515 50.98745331 -37.7306366 50.03721619 C-35.77817409 48.08769752 -33.82936308 46.13461912 -31.88305664 44.17895508 C-29.38805034 41.67253885 -26.88415157 39.17522938 -24.37746143 36.6805048 C-21.98635798 34.29836269 -19.60290008 31.90863281 -17.21875 29.51953125 C-16.31776077 28.62259048 -15.41677155 27.72564972 -14.48847961 26.80152893 C-13.66059433 25.96733932 -12.83270905 25.13314972 -11.97973633 24.27368164 C-10.88197624 23.17353477 -10.88197624 23.17353477 -9.76203918 22.05116272 C-7.86406101 20.11838763 -7.86406101 20.11838763 -7.07421875 17.109375 C-8.06421875 16.449375 -9.05421875 15.789375 -10.07421875 15.109375 Z " fill="#000000" transform="translate(299.07421875,214.890625)"/>
<path d="M0 0 C0.65564941 -0.0049649 1.31129883 -0.00992981 1.98681641 -0.01504517 C4.15414482 -0.02964072 6.32140006 -0.03646425 8.48876953 -0.04199219 C9.9970805 -0.04774561 11.50539145 -0.05350332 13.01370239 -0.05926514 C16.17613058 -0.06976758 19.33853339 -0.07561525 22.50097656 -0.07910156 C26.54848652 -0.08458599 30.59566004 -0.10861582 34.6430645 -0.13707352 C37.7589312 -0.15571866 40.87471714 -0.16090648 43.99063492 -0.16243744 C45.48254359 -0.16546006 46.97445097 -0.17347547 48.46630478 -0.18662262 C50.55592032 -0.20372377 52.64471741 -0.20179359 54.734375 -0.1953125 C56.51616653 -0.20078094 56.51616653 -0.20078094 58.33395386 -0.20635986 C61.8232323 0.19908909 63.7025744 1.06846617 66.49658203 3.16113281 C67.9571753 6.08231934 67.64814752 8.67173522 67.67358398 11.93408203 C67.68015518 12.63020599 67.68672638 13.32632996 67.6934967 14.04354858 C67.71323402 16.35097355 67.72489244 18.65833345 67.73486328 20.96582031 C67.73893881 21.75333805 67.74301434 22.54085579 67.74721336 23.3522377 C67.76807476 27.51949044 67.78237683 31.68671023 67.79174805 35.85400391 C67.80281997 40.16067823 67.83722816 44.46683691 67.87691975 48.77332878 C67.90304779 52.08302785 67.91143639 55.39260326 67.91502953 58.70239639 C67.91990447 60.29004529 67.93154431 61.87768834 67.95006752 63.46523666 C67.97438209 65.68704018 67.97350905 67.90749908 67.96655273 70.12939453 C67.97241898 71.39355194 67.97828522 72.65770935 67.98432922 73.96017456 C67.49658203 77.16113281 67.49658203 77.16113281 65.90470886 79.56925964 C62.63732512 81.72913779 60.40222066 81.66232596 56.49658203 81.6628418 C55.80016602 81.66824478 55.10375 81.67364777 54.38623047 81.67921448 C52.08924572 81.69169946 49.79351505 81.67521395 47.49658203 81.65722656 C45.89762303 81.65738156 44.29866365 81.65887062 42.69970703 81.66163635 C39.3505795 81.66302023 36.00188028 81.65046463 32.65283203 81.62768555 C28.36192228 81.59930059 24.07172413 81.60203821 19.78076172 81.61477566 C16.47959323 81.62173384 13.17858893 81.61394203 9.87744141 81.60151863 C8.29541656 81.59700546 6.71337409 81.59666617 5.13134766 81.60058403 C2.91939217 81.60349771 0.70841395 81.58698338 -1.50341797 81.56518555 C-2.76154297 81.55978256 -4.01966797 81.55437958 -5.31591797 81.54881287 C-8.7294038 81.13364726 -10.12136092 80.5977891 -12.50341797 78.16113281 C-13.63444227 74.7680599 -13.65116496 72.14406174 -13.68041992 68.56591797 C-13.68699112 67.90051498 -13.69356232 67.235112 -13.70033264 66.54954529 C-13.72002715 64.34976077 -13.73171852 62.15004433 -13.74169922 59.95019531 C-13.74577475 59.19794048 -13.74985027 58.44568565 -13.7540493 57.67063522 C-13.77489195 53.69025702 -13.78920239 49.70991312 -13.79858398 45.72949219 C-13.80965495 41.62135141 -13.84406728 37.5137513 -13.88375568 33.40580177 C-13.90991154 30.24361165 -13.91827478 27.08155072 -13.92186546 23.91926193 C-13.92673281 22.40500607 -13.93835117 20.89075602 -13.95690346 19.37660599 C-13.9812786 17.2556807 -13.98033415 15.13615948 -13.97338867 13.01513672 C-13.97925491 11.8095108 -13.98512115 10.60388489 -13.99116516 9.36172485 C-13.40512564 5.51613955 -12.24679314 3.87399694 -9.50341797 1.16113281 C-6.13206981 0.03735009 -3.5542232 0.02045761 0 0 Z M3.49658203 17.16113281 C3.49658203 32.67113281 3.49658203 48.18113281 3.49658203 64.16113281 C19.00658203 64.16113281 34.51658203 64.16113281 50.49658203 64.16113281 C50.49658203 48.65113281 50.49658203 33.14113281 50.49658203 17.16113281 C34.98658203 17.16113281 19.47658203 17.16113281 3.49658203 17.16113281 Z " fill="#000000" transform="translate(57.50341796875,382.8388671875)"/>
<path d="M0 0 C5.61276412 4.41485921 8.73001606 10.84325394 12.25 16.9375 C12.88679687 18.00935547 13.52359375 19.08121094 14.1796875 20.18554688 C14.78554688 21.22646484 15.39140625 22.26738281 16.015625 23.33984375 C16.56508789 24.28206787 17.11455078 25.22429199 17.68066406 26.19506836 C19.09562009 29.20329001 19.71434361 31.69401488 20 35 C18.21267359 39.26972421 15.99710624 40.85440271 12 43 C7.96195406 44.45124596 3.82166769 45.54217535 -0.3125 46.6875 C-1.41529297 47.00783203 -2.51808594 47.32816406 -3.65429688 47.65820312 C-9.6020182 49.3235651 -14.81915617 50.55275839 -21 50 C-23.5 48.5 -23.5 48.5 -25 46 C-25.6932981 42.11115549 -25.57095716 39.06034902 -23.6875 35.5625 C-22 34 -22 34 -19 33 C-28.09250043 29.3442524 -37.3791479 27.69624358 -47 26 C-48.28261719 25.76925781 -49.56523437 25.53851563 -50.88671875 25.30078125 C-89.17051417 19.66022205 -130.22417434 25.339649 -165.83984375 40.18359375 C-169.46351369 41.55311819 -172.1308965 41.36848605 -176 41 C-178.5 39.5 -178.5 39.5 -180 37 C-180.54686219 34.22011721 -180.72991469 31.74791413 -180 29 C-177.01725362 25.14820653 -173.22905513 23.45777857 -168.8125 21.6875 C-168.079104 21.39190186 -167.34570801 21.09630371 -166.59008789 20.79174805 C-148.37687827 13.71392097 -129.33148023 9.55239349 -110 7 C-109.24396484 6.896875 -108.48792969 6.79375 -107.70898438 6.6875 C-76.09981621 2.9277009 -44.57211836 7.03864217 -14 15 C-12.66709803 15.33505408 -11.33392189 15.6690298 -10 16 C-10.350625 15.34 -10.70125 14.68 -11.0625 14 C-12.37510154 9.79967506 -11.97287405 7.30844224 -11 3 C-7.98260982 -0.71371099 -4.54917296 -0.63848041 0 0 Z " fill="#000000" transform="translate(337,11)"/>
<path d="M0 0 C2.35509706 2.92032035 2.49861417 5.23212195 2.5625 8.9375 C0.91685389 12.74846995 -1.13092153 14.55512048 -4.4375 16.9375 C28.41404898 25.51483941 62.00807143 28.18018439 95.5625 21.9375 C96.46436035 21.77121094 97.3662207 21.60492188 98.29541016 21.43359375 C113.16672408 18.58740927 128.95747845 14.74001078 142.5625 7.9375 C149.53109504 7.48791322 149.53109504 7.48791322 153 9 C155.35509706 11.92032035 155.49861417 14.23212195 155.5625 17.9375 C151.97196114 25.50860431 144.35791785 26.93945568 136.94140625 29.6328125 C89.87261385 46.24426246 40.73406623 47.01972905 -7.4375 34.9375 C-8.18741211 34.75010254 -8.93732422 34.56270508 -9.70996094 34.36962891 C-10.28004883 34.22702637 -10.85013672 34.08442383 -11.4375 33.9375 C-11.045625 35.13375 -10.65375 36.33 -10.25 37.5625 C-9.37418496 41.01063893 -9.40445028 41.84661328 -10.6875 45.375 C-12.4375 47.9375 -12.4375 47.9375 -14.4375 48.9375 C-21.55966216 49.63804054 -21.55966216 49.63804054 -24.81640625 47.0390625 C-28.40730812 43.15093023 -30.9166857 38.49014804 -33.5625 33.9375 C-34.08714844 33.04804688 -34.61179688 32.15859375 -35.15234375 31.2421875 C-36.15495559 29.54155476 -37.15356069 27.8385512 -38.14746094 26.1328125 C-39.16238226 24.40567917 -40.21171127 22.69876198 -41.2734375 21 C-42.92829057 18.06791134 -42.98891739 16.24600437 -42.4375 12.9375 C-39.09084719 8.99169635 -36.2039563 7.10481003 -31.32421875 5.48046875 C-30.15826172 5.09052734 -28.99230469 4.70058594 -27.79101562 4.29882812 C-26.58123047 3.91146484 -25.37144531 3.52410156 -24.125 3.125 C-22.92681641 2.71830078 -21.72863281 2.31160156 -20.49414062 1.89257812 C-6.31891215 -2.7543976 -6.31891215 -2.7543976 0 0 Z " fill="#000000" transform="translate(199.4375,449.0625)"/>
<path d="M0 0 C3.82431001 0.71705813 5.22060062 1.8303547 8 4.5625 C9.47092723 7.22505028 10.45343032 10.00194182 11.4375 12.875 C11.73043945 13.70386719 12.02337891 14.53273437 12.32519531 15.38671875 C17.94441691 31.72913668 21.8215981 48.42830463 24 65.5625 C24.13099342 66.58404175 24.13099342 66.58404175 24.26463318 67.6262207 C24.9062987 72.96619648 25.17272567 78.22558132 25.203125 83.6015625 C25.21364647 84.85454636 25.21364647 84.85454636 25.22438049 86.13284302 C25.24179981 88.8177841 25.24823395 91.50250446 25.25 94.1875 C25.25067474 95.10567505 25.25134949 96.0238501 25.25204468 96.96984863 C25.22674355 118.63991046 22.47467981 138.59425995 17 159.5625 C17.61875 159.23942871 18.2375 158.91635742 18.875 158.58349609 C22.23229191 156.97042225 25.35587677 156.98003768 29 157.5625 C31.5 159.0625 31.5 159.0625 33 161.5625 C33.77403846 166.98076923 33.77403846 166.98076923 33 169.5625 C28.94304051 174.59843949 23.53103148 177.47308895 18 180.6875 C17.11054688 181.21214844 16.22109375 181.73679687 15.3046875 182.27734375 C13.60405476 183.27995559 11.9010512 184.27856069 10.1953125 185.27246094 C8.46817917 186.28738226 6.76126198 187.33671127 5.0625 188.3984375 C2.13041134 190.05329057 0.30850437 190.11391739 -3 189.5625 C-6.94580365 186.21584719 -8.83268997 183.3289563 -10.45703125 178.44921875 C-10.84697266 177.28326172 -11.23691406 176.11730469 -11.63867188 174.91601562 C-12.2197168 173.10133789 -12.2197168 173.10133789 -12.8125 171.25 C-13.21919922 170.05181641 -13.62589844 168.85363281 -14.04492188 167.61914062 C-18.64769356 153.57875305 -18.64769356 153.57875305 -16 147.125 C-12.92670082 144.72398502 -9.86056878 144.23137909 -6 144.5625 C-2.51868367 146.63647568 -1.28513718 147.70708846 0 151.5625 C12.02702758 108.39951269 10.47745921 59.80858279 -6.17114258 18.00073242 C-7.83466352 13.70148848 -8.42423831 10.1621364 -8 5.5625 C-5.54999553 2.17572911 -4.13607554 0.77551416 0 0 Z " fill="#000000" transform="translate(468,159.4375)"/>
<path d="M0 0 C4.79878351 5.16752121 6.77378031 11.32322079 9.25 17.8125 C9.93835937 19.53823242 9.93835937 19.53823242 10.640625 21.29882812 C12.99752597 27.41905459 14.7871692 32.42482199 14 39 C11.95694308 42.06458538 10.55920198 42.82153128 7.0625 43.9375 C3.37119268 44.0128328 1.8873919 43.24574926 -1 41 C-3 38 -3 38 -3 35 C-3.66 35 -4.32 35 -5 35 C-5.67832076 38.99810235 -6.34114242 42.99864545 -7 47 C-7.12310547 47.74443359 -7.24621094 48.48886719 -7.37304688 49.25585938 C-7.77387139 51.69071876 -8.16870688 54.1264943 -8.5625 56.5625 C-8.68923096 57.32860596 -8.81596191 58.09471191 -8.9465332 58.8840332 C-12.3699122 80.24004305 -12.2822027 102.62730733 -9 124 C-8.87641113 124.81952148 -8.75282227 125.63904297 -8.62548828 126.48339844 C-6.20543452 141.93067491 -2.00110664 156.84910009 3.71875 171.40234375 C5.19571374 175.54954985 5.21477279 177.78878765 4 182 C2.375 184.4375 2.375 184.4375 0 186 C-3.4375 186.5625 -3.4375 186.5625 -7 186 C-11.71923664 182.20696868 -13.50929838 178.22963291 -15.4375 172.6875 C-15.73043945 171.86499756 -16.02337891 171.04249512 -16.32519531 170.19506836 C-31.81241262 125.29132691 -32.9274207 77.03938672 -22 31 C-22.99 31.66 -23.98 32.32 -25 33 C-29.36253463 33.56551375 -31.29752588 33.49322651 -34.9375 30.9375 C-37 28 -37 28 -37.625 24.5 C-36.56645851 18.57216768 -31.72538133 15.63731534 -27.03833008 12.30834961 C-26.44818115 11.89721924 -25.85803223 11.48608887 -25.25 11.0625 C-24.63600342 10.6301001 -24.02200684 10.1977002 -23.3894043 9.75219727 C-21.59758879 8.49461389 -19.8002388 7.2454871 -18 6 C-17.07316406 5.35804688 -16.14632813 4.71609375 -15.19140625 4.0546875 C-6.49649235 -1.85614067 -6.49649235 -1.85614067 0 0 Z " fill="#000000" transform="translate(47,163)"/>
<path d="M0 0 C9.3237332 7.49384164 16.72152709 17.42897742 18.08984375 29.6796875 C19.27458363 44.58149383 15.79362129 56.31769775 6.34765625 67.796875 C-1.07837612 75.96242926 -11.73170563 81.11624133 -22.7421875 81.98046875 C-37.32875714 82.02341253 -49.03964904 78.83199054 -59.9921875 68.75390625 C-70.00391395 57.92656053 -72.72555317 46.38625413 -72.25 32.08984375 C-71.54257325 20.31030726 -66.19024998 10.76424718 -57.77734375 2.61328125 C-41.16056649 -11.17447479 -17.65483569 -12.83407585 0 0 Z M-51.51953125 21.86328125 C-55.58472846 28.81750906 -56.02424875 35.79046338 -54.91015625 43.6796875 C-52.50912036 51.4539667 -47.69933589 57.87768483 -40.66015625 61.99609375 C-33.53355985 65.27387126 -26.00261117 66.08722939 -18.39453125 63.984375 C-9.41456743 60.34962774 -3.79118331 54.50020354 0.08984375 45.6796875 C2.39413062 38.22377839 1.5224176 31.02594504 -1.66796875 23.99609375 C-6.0121603 15.89513277 -12.21001758 11.66409871 -20.91015625 8.6796875 C-33.4380326 6.63080885 -44.07392471 11.76111121 -51.51953125 21.86328125 Z " fill="#000000" transform="translate(111.91015625,53.3203125)"/>
<path d="M0 0 C4.27557925 0.7634963 5.92065743 2.32294308 8.5 5.625 C10.95076956 9.43203554 13.1610631 13.36420131 15.375 17.3125 C16.36448835 19.05355147 17.35399057 20.79459523 18.34431458 22.53517151 C19.37328152 24.34572127 20.39887145 26.15815676 21.42431641 27.97070312 C23.464513 31.57035826 25.53083364 35.15448129 27.60546875 38.734375 C28.10593719 39.59836662 28.10593719 39.59836662 28.61651611 40.47981262 C30.21036093 43.2306334 31.80512536 45.98092074 33.39990234 48.73120117 C35.1098337 51.69025991 36.80732901 54.65603964 38.5 57.625 C39.37265503 59.13731201 39.37265503 59.13731201 40.26293945 60.68017578 C40.81296631 61.65325684 41.36299316 62.62633789 41.9296875 63.62890625 C42.4232373 64.49459229 42.91678711 65.36027832 43.42529297 66.25219727 C45.09259092 69.93335783 44.83795341 71.84724919 43.5 75.625 C41.92114034 77.68438216 40.80857577 78.47071211 38.5 79.625 C36.08556936 79.73852237 33.69928614 79.79278918 31.28393555 79.80200195 C30.54065002 79.80857315 29.7973645 79.81514435 29.03155518 79.82191467 C26.56660872 79.841659 24.10172322 79.85331283 21.63671875 79.86328125 C20.79528635 79.86735678 19.95385395 79.8714323 19.0869236 79.87563133 C14.63322825 79.89649707 10.17956375 79.9107965 5.72583008 79.92016602 C1.12556601 79.93123069 -3.47421437 79.96562952 -8.07430744 80.00533772 C-11.61137288 80.03148354 -15.14832273 80.03985603 -18.6854763 80.04344749 C-20.38114882 80.04831886 -22.07681599 80.05994855 -23.77239418 80.07848549 C-26.14723649 80.10283423 -28.52082303 80.10192027 -30.89575195 80.0949707 C-31.59464035 80.10778076 -32.29352875 80.12059082 -33.01359558 80.13378906 C-36.52510761 80.09638407 -38.42205211 79.67445695 -41.41447449 77.77580261 C-44.09615568 75.0101846 -44.46638773 73.45679886 -44.5 69.625 C-43.55859375 66.8203125 -43.55859375 66.8203125 -41.9375 63.75 C-41.62941406 63.16250977 -41.32132812 62.57501953 -41.00390625 61.96972656 C-36.6989787 53.90607938 -31.9940112 46.05311238 -27.34765625 38.18359375 C-24.6668624 33.63652047 -22.03400756 29.06586842 -19.43359375 24.47265625 C-18.75924893 23.28605646 -18.08477097 22.09953231 -17.41015625 20.91308594 C-16.1214245 18.64249372 -14.83860418 16.36853335 -13.5625 14.09082031 C-6.16256818 1.1004586 -6.16256818 1.1004586 0 0 Z M-0.5 26.625 C-2.54856691 30.14244527 -4.59303955 33.66223674 -6.6340332 37.18408203 C-7.3263195 38.37741354 -8.01964792 39.57014119 -8.71411133 40.76220703 C-9.72242721 42.49345264 -10.72646203 44.22718931 -11.73046875 45.9609375 C-12.33270264 46.99782715 -12.93493652 48.0347168 -13.55541992 49.10302734 C-16.00454928 53.53882648 -18.23396608 58.09293217 -20.5 62.625 C-6.97 62.625 6.56 62.625 20.5 62.625 C19.02680924 58.94202309 17.57146314 55.80099181 15.63671875 52.38671875 C15.07919922 51.40123047 14.52167969 50.41574219 13.94726562 49.40039062 C13.36654297 48.38138672 12.78582031 47.36238281 12.1875 46.3125 C11.61837891 45.30509766 11.04925781 44.29769531 10.46289062 43.25976562 C7.26888972 37.63084324 4.05036882 32.03785738 0.5 26.625 C0.17 26.625 -0.16 26.625 -0.5 26.625 Z " fill="#000000" transform="translate(426.5,46.375)"/>
</svg>
