<?xml version="1.0" encoding="UTF-8"?>
<svg version="1.1" xmlns="http://www.w3.org/2000/svg" width="512" height="512">
<path d="M0 0 C1.21782166 -0.01189865 2.43564331 -0.0237973 3.69036865 -0.03605652 C6.25528016 -0.05252826 8.82030485 -0.05599272 11.38525391 -0.04711914 C15.27313628 -0.04299394 19.15579505 -0.10808323 23.04296875 -0.17773438 C36.72008308 -0.27812756 47.18680854 -0.15072796 58.046875 8.76953125 C59.03461914 9.51050049 60.02236328 10.25146973 61.04003906 11.01489258 C78.62361236 24.40809484 92.91590669 42.692168 102.41015625 62.6328125 C103.9144784 65.04242896 103.9144784 65.04242896 106.90234375 65.5546875 C108.00191406 65.64621094 109.10148437 65.73773438 110.234375 65.83203125 C119.886418 67.00910966 126.3509504 70.67703708 133.046875 77.76953125 C133.60375 78.90390625 134.160625 80.03828125 134.734375 81.20703125 C136.73013977 83.97417964 136.73013977 83.97417964 139.296875 84.0703125 C141.43694936 84.03331653 143.57649709 83.96078517 145.71484375 83.8671875 C175.12382312 82.79841352 205.72093216 89.66118332 228.296875 109.14453125 C242.41662962 122.40442902 250.14087174 138.93189737 251.25 158.3203125 C251.5569036 182.94932633 244.58678899 208.66942135 230.7734375 229.28125 C227.02162695 234.37087416 227.02162695 234.37087416 226.47265625 240.33203125 C227.51678425 242.85375857 227.51678425 242.85375857 228.8359375 245.2734375 C232.36638348 252.55071163 231.35133433 261.24838378 229.046875 268.76953125 C228.68851562 269.41148437 228.33015625 270.0534375 227.9609375 270.71484375 C226.74651545 272.89715104 226.15700896 274.258477 226.046875 276.76953125 C227.61033877 280.10180925 229.59437043 283.0604721 231.65234375 286.09765625 C246.88619586 308.7730143 254.65872601 339.56089099 249.859375 366.51953125 C245.66216289 385.10439605 235.69962845 401.01772343 219.609375 411.58203125 C217.76807143 412.6666701 215.91384786 413.72969827 214.046875 414.76953125 C213.18191406 415.28 212.31695312 415.79046875 211.42578125 416.31640625 C183.16464795 431.87005124 146.17401923 431.98915681 115.046875 427.76953125 C114.386875 427.43953125 113.726875 427.10953125 113.046875 426.76953125 C112.96179688 427.41535156 112.87671875 428.06117188 112.7890625 428.7265625 C111.77030844 432.90345413 110.01668822 436.58473058 108.171875 440.45703125 C107.77548828 441.28920166 107.37910156 442.12137207 106.97070312 442.97875977 C98.39346002 460.59701552 87.4872097 476.5058247 74.046875 490.76953125 C73.42425781 491.45660156 72.80164063 492.14367187 72.16015625 492.8515625 C66.56208427 498.80171448 60.03079117 503.56190522 53.046875 507.76953125 C52.01581635 508.40394638 52.01581635 508.40394638 50.96392822 509.05117798 C44.0036066 512.95308286 38.13059482 513.51726165 30.2421875 513.46875 C29.04181854 513.4759053 27.84144958 513.48306061 26.60470581 513.49043274 C24.07843767 513.49817913 21.55210209 513.49326313 19.02587891 513.47631836 C15.18912626 513.45711758 11.35601182 513.49650832 7.51953125 513.54101562 C5.0520812 513.54130609 2.58462788 513.53816354 0.1171875 513.53125 C-1.01443817 513.54653244 -2.14606384 513.56181488 -3.3119812 513.57756042 C-20.75491656 513.32608752 -34.49356544 500.76316598 -46.2097168 488.93481445 C-58.84087709 475.72159068 -82.953125 445.75334136 -82.953125 426.76953125 C-83.613125 427.09953125 -84.273125 427.42953125 -84.953125 427.76953125 C-119.77612332 432.49017034 -160.83719764 431.31495302 -190.89453125 410.7578125 C-193.34888082 408.85053932 -195.66287353 406.86996007 -197.953125 404.76953125 C-199.01080078 403.83173828 -199.01080078 403.83173828 -200.08984375 402.875 C-213.43205415 390.39685656 -220.22881815 372.6637664 -221.23828125 354.6328125 C-222.3443729 320.63919151 -206.01021854 285.7467228 -184.33984375 260.25 C-182.64707669 257.85969335 -182.64707669 257.85969335 -183.48046875 255.2578125 C-185.08024136 252.55474844 -186.84672029 250.2081832 -188.828125 247.76953125 C-208.78412406 222.02744885 -223.46176834 187.74371819 -220.953125 154.76953125 C-218.38944644 134.64064879 -209.51565135 117.07159428 -193.33056641 104.51025391 C-162.26837308 81.8015297 -120.58766473 81.72720422 -83.953125 85.76953125 C-83.48261719 84.72152344 -83.01210937 83.67351562 -82.52734375 82.59375 C-81.89878952 81.21468325 -81.26986376 79.8357858 -80.640625 78.45703125 C-80.33189453 77.76673828 -80.02316406 77.07644531 -79.70507812 76.36523438 C-79.39892578 75.69814453 -79.09277344 75.03105469 -78.77734375 74.34375 C-78.49979248 73.73104248 -78.22224121 73.11833496 -77.9362793 72.48706055 C-76.953125 70.76953125 -76.953125 70.76953125 -73.953125 67.76953125 C-66.693125 71.39953125 -59.433125 75.02953125 -51.953125 78.76953125 C-52.87323917 83.37010211 -54.05753066 86.56625684 -55.953125 90.76953125 C-55.28821045 90.91874023 -54.6232959 91.06794922 -53.93823242 91.22167969 C-36.40969681 95.22225772 -19.55336661 100.37757709 -2.60847473 106.35620117 C-1.22275398 106.84440087 0.1641164 107.32935153 1.55220032 107.81079102 C4.30497216 108.76999535 7.01301797 109.75466903 9.68310547 110.92675781 C14.06377749 112.78194194 16.60242679 112.93355603 21.15625 111.41015625 C23.04739743 110.63960156 24.92725026 109.84093033 26.796875 109.01953125 C33.74901719 106.13222745 40.61177142 103.50409191 47.88671875 101.578125 C49.2054182 101.21782671 50.52410318 100.85747543 51.84277344 100.49707031 C54.39333592 99.80354515 56.93725563 99.17442115 59.51269531 98.56933594 C66.24858067 96.79481745 66.24858067 96.79481745 70.89941406 91.92407227 C72.26710411 88.74455262 72.26710411 88.74455262 73.18920898 85.56542969 C73.9822749 82.98012058 74.78383534 81.4344373 76.421875 79.33203125 C78.27876153 76.95859182 78.27876153 76.95859182 77.90625 74.53125 C76.80010439 70.97650024 74.96890473 68.09007584 72.921875 65.01953125 C72.51517578 64.40045898 72.10847656 63.78138672 71.68945312 63.14355469 C68.37729967 58.15452605 64.89977245 53.35790587 61.046875 48.76953125 C60.35980469 47.94839844 59.67273438 47.12726562 58.96484375 46.28125 C48.22816139 33.88987754 34.96604619 23.6845772 18.19921875 21.85546875 C0.74824052 21.37972957 -13.07931451 30.26523177 -25.453125 41.76953125 C-30.19388783 46.64896356 -33.97966222 52.21739805 -37.79296875 57.83007812 C-38.51613281 58.89258789 -38.51613281 58.89258789 -39.25390625 59.9765625 C-39.67841064 60.61053955 -40.10291504 61.2445166 -40.5402832 61.89770508 C-42.17141169 64.05873188 -44.00470951 65.89384691 -45.953125 67.76953125 C-49.27416832 65.84639993 -52.58332624 63.90368979 -55.890625 61.95703125 C-56.83615234 61.40982422 -57.78167969 60.86261719 -58.75585938 60.29882812 C-59.65498047 59.76708984 -60.55410156 59.23535156 -61.48046875 58.6875 C-62.31312256 58.20047607 -63.14577637 57.71345215 -64.00366211 57.21166992 C-65.953125 55.76953125 -65.953125 55.76953125 -66.953125 52.76953125 C-58.11243151 34.13150206 -40.54122433 16.22842423 -22.953125 5.76953125 C-22.2731395 5.35306839 -21.59315399 4.93660553 -20.89256287 4.50752258 C-13.89348393 0.57471376 -7.93734892 -0.00489497 0 0 Z M96.046875 96.76953125 C95.34924266 99.60580697 95.33122888 101.93557263 96.046875 104.76953125 C98.30234239 107.79830174 99.997993 109.33922068 103.484375 110.76953125 C107.11540329 110.76953125 109.0451568 109.7924283 112.046875 107.76953125 C114.68948127 104.13594763 115.16627578 102.55226969 114.484375 98.08203125 C112.72403284 93.95390029 112.72403284 93.95390029 109.046875 91.76953125 C102.87941327 90.98636151 99.72211061 91.25667784 96.046875 96.76953125 Z M139.3203125 111.05078125 C138.00573743 112.82505435 137.11943287 114.49885118 136.234375 116.51953125 C134.44970297 120.33984481 132.22656878 122.91102069 129.12109375 125.73828125 C125.94751974 131.7392212 130.53093455 142.8390318 131.921875 149.08203125 C134.12406558 159.12152602 136.03962616 169.1327132 137.50390625 179.3046875 C138.31365589 184.47193878 139.20617202 186.15531866 143.296875 189.26953125 C151.93546712 196.00074192 160.27435386 203.06990491 168.359375 210.45703125 C168.8555835 210.90957275 169.35179199 211.36211426 169.86303711 211.82836914 C173.52592375 215.20529412 176.94022641 218.76465992 180.23046875 222.50390625 C181.98415976 224.03005321 181.98415976 224.03005321 184.2421875 223.47265625 C185.16773438 223.240625 186.09328125 223.00859375 187.046875 222.76953125 C189.10677964 222.76953125 191.16672836 222.7705552 193.2265625 222.78759766 C200.03116265 222.83506173 200.03116265 222.83506173 206.17578125 220.37109375 C207.86529682 217.93549581 208.90793721 215.51241693 210.046875 212.76953125 C210.76975028 211.30936438 211.50241833 209.85402468 212.2421875 208.40234375 C221.69361319 189.60083277 228.98276984 168.77489881 223.0859375 147.72265625 C218.05767955 133.43181786 209.21620537 125.72774251 196.046875 118.76953125 C182.60534572 112.71380153 167.6987164 110.43006508 153.046875 109.76953125 C151.95890625 109.71667969 150.8709375 109.66382812 149.75 109.609375 C144.22530591 109.11750903 144.22530591 109.11750903 139.3203125 111.05078125 Z M-185.265625 133.08203125 C-193.47672869 143.2935738 -195.88865686 156.01362856 -194.953125 168.76953125 C-192.24454252 190.68856425 -182.46938967 210.11212294 -170.515625 228.45703125 C-170.10280273 229.09906494 -169.68998047 229.74109863 -169.26464844 230.40258789 C-167.99058682 232.34870295 -167.99058682 232.34870295 -165.953125 234.76953125 C-162.71950449 235.10015852 -162.71950449 235.10015852 -160.21337891 232.35449219 C-159.11124712 231.2450977 -158.01720888 230.12762679 -156.9296875 229.00390625 C-156.3464975 228.41409973 -155.7633075 227.82429321 -155.16244507 227.21661377 C-153.29380309 225.3245244 -151.43556441 223.42261389 -149.578125 221.51953125 C-147.7261946 219.63243152 -145.87212331 217.7475102 -144.01522827 215.86529541 C-142.85995558 214.69318051 -141.70779284 213.51798963 -140.55923462 212.33929443 C-138.14454724 209.88018858 -135.86057095 207.70082987 -133.08178711 205.63818359 C-130.8032614 203.99681699 -130.8032614 203.99681699 -130.44897461 201.72998047 C-130.50061768 201.0185791 -130.55226074 200.30717773 -130.60546875 199.57421875 C-130.66105957 198.38348755 -130.66105957 198.38348755 -130.71777344 197.16870117 C-130.77481445 196.3357251 -130.83185547 195.50274902 -130.890625 194.64453125 C-131.15376346 187.15569557 -130.81989504 181.39254568 -126.953125 174.76953125 C-126.355 173.69703125 -125.756875 172.62453125 -125.140625 171.51953125 C-120.65461087 165.87997063 -116.92483292 163.01424667 -109.953125 160.98046875 C-106.0670341 159.39480909 -104.37186193 158.55968836 -102.38671875 154.8137207 C-101.32626697 151.05301561 -100.58196588 147.30646851 -99.953125 143.45703125 C-99.69143253 142.09711078 -99.42440201 140.73820689 -99.15209961 139.38037109 C-98.62371598 136.72100602 -98.11953494 134.05902594 -97.63623047 131.39111328 C-96.77765642 126.8392593 -95.69500159 122.37201107 -94.515625 117.89453125 C-94.20753906 116.68023437 -93.89945312 115.4659375 -93.58203125 114.21484375 C-93.37449219 113.40789062 -93.16695313 112.6009375 -92.953125 111.76953125 C-95.93196251 110.2801125 -99.05327377 110.38978385 -102.328125 110.20703125 C-103.05346436 110.16602295 -103.77880371 110.12501465 -104.52612305 110.08276367 C-132.80315415 108.57544593 -164.73561396 111.35660185 -185.265625 133.08203125 Z M-66.953125 115.76953125 C-71.98671552 132.49545781 -71.98671552 132.49545781 -76.390625 149.39453125 C-76.63570801 150.39407837 -76.63570801 150.39407837 -76.88574219 151.41381836 C-77.77722491 155.26615543 -78.10501915 158.82028337 -77.953125 162.76953125 C-72.02841854 159.54031104 -66.24362291 156.14657904 -60.515625 152.58203125 C-47.30008321 144.4344577 -33.64665957 137.07597549 -19.953125 129.76953125 C-19.953125 129.10953125 -19.953125 128.44953125 -19.953125 127.76953125 C-24.12855397 126.53787433 -28.30544595 125.31133724 -32.48364258 124.08911133 C-33.89874787 123.67443022 -35.31347561 123.25845807 -36.7277832 122.84106445 C-51.62236124 117.88542419 -51.62236124 117.88542419 -66.953125 115.76953125 Z M67.72265625 122.30078125 C66.18061523 122.77451172 66.18061523 122.77451172 64.60742188 123.2578125 C63.53556641 123.59167969 62.46371094 123.92554687 61.359375 124.26953125 C60.27591797 124.60339844 59.19246094 124.93726562 58.07617188 125.28125 C55.39856155 126.10694481 52.72221459 126.93651412 50.046875 127.76953125 C50.046875 128.42953125 50.046875 129.08953125 50.046875 129.76953125 C51.13850952 130.3411499 51.13850952 130.3411499 52.25219727 130.92431641 C70.98405577 140.76431176 89.5127572 150.87758007 107.046875 162.76953125 C107.706875 162.43953125 108.366875 162.10953125 109.046875 161.76953125 C107.066875 153.18953125 105.086875 144.60953125 103.046875 135.76953125 C98.096875 134.77953125 98.096875 134.77953125 93.046875 133.76953125 C86.11501647 130.87263515 80.26497975 127.09668838 76.046875 120.76953125 C72.89303808 120.76953125 70.72614689 121.37152448 67.72265625 122.30078125 Z M-45.02880859 172.59326172 C-47.03099879 173.81713287 -49.04824369 175.01362513 -51.06640625 176.2109375 C-52.36293777 176.99972859 -53.6585538 177.79002698 -54.953125 178.58203125 C-55.54762451 178.93104492 -56.14212402 179.28005859 -56.75463867 179.63964844 C-59.38728274 181.28814486 -60.79000473 182.30747692 -61.83984375 185.28125 C-61.94005862 187.4825214 -61.92427715 189.57412849 -61.765625 191.76953125 C-61.70428903 200.96992664 -64.93948585 209.84435371 -70.88671875 216.83203125 C-75.56893055 221.222158 -81.24790431 223.94970953 -86.953125 226.76953125 C-88.70784529 251.30428096 -87.97547351 275.67088609 -86.203125 300.17724609 C-86.0488399 302.39419046 -85.92300442 304.61357983 -85.84375 306.83447266 C-85.58255439 312.06043168 -85.58255439 312.06043168 -82.7578125 316.36328125 C-81.30761719 317.306875 -81.30761719 317.306875 -79.828125 318.26953125 C-79.28953857 318.63224121 -78.75095215 318.99495117 -78.19604492 319.36865234 C-77.04478283 320.13923263 -75.8841924 320.89603306 -74.71533203 321.63964844 C-72.44090627 323.09795301 -70.23678874 324.65408113 -68.01782227 326.19482422 C-56.69525701 333.94723967 -44.79480198 340.85130117 -32.953125 347.76953125 C-31.89818848 348.38876465 -30.84325195 349.00799805 -29.75634766 349.64599609 C-26.75103051 351.39757281 -23.73105987 353.11991388 -20.703125 354.83203125 C-19.79296631 355.36296387 -18.88280762 355.89389648 -17.94506836 356.44091797 C-17.0969458 356.91158691 -16.24882324 357.38225586 -15.375 357.8671875 C-14.63862305 358.28492432 -13.90224609 358.70266113 -13.14355469 359.13305664 C-10.11828392 360.01211158 -8.7010309 359.19177633 -5.953125 357.76953125 C-5.004375 357.10953125 -4.055625 356.44953125 -3.078125 355.76953125 C2.57154911 352.15373982 8.31859793 351.40215637 14.921875 351.45703125 C15.62368896 351.4619458 16.32550293 351.46686035 17.04858398 351.47192383 C24.50457461 351.64002629 29.89767301 352.95815045 35.734375 357.58203125 C36.8275 358.30390625 37.920625 359.02578125 39.046875 359.76953125 C44.70343298 358.58718304 49.77289311 355.40643679 54.796875 352.64453125 C55.74844482 352.12246094 56.70001465 351.60039062 57.68041992 351.0625 C75.14907912 341.36538097 92.53106444 331.02121746 108.46459961 318.92382812 C110.046875 317.76953125 110.046875 317.76953125 112.9140625 316.12890625 C116.40892417 312.26279554 116.09185987 307.81686495 116.359375 302.76953125 C116.43220703 301.79113281 116.50503906 300.81273437 116.58007812 299.8046875 C117.06634175 292.75618044 117.046875 285.87482642 117.046875 278.76953125 C125.626875 278.76953125 134.206875 278.76953125 143.046875 278.76953125 C143.046875 282.72953125 143.046875 286.68953125 143.046875 290.76953125 C148.24887217 287.16814859 153.03770056 283.19324882 157.671875 278.89453125 C158.5076709 278.17281738 158.5076709 278.17281738 159.36035156 277.43652344 C161.1641503 275.81561234 161.1641503 275.81561234 163.046875 272.76953125 C162.55075385 269.1513972 162.55075385 269.1513972 161.69873047 266.83544922 C160.64655551 263.50080333 160.7562288 260.23800674 160.796875 256.76953125 C160.78914062 256.10953125 160.78140625 255.44953125 160.7734375 254.76953125 C160.78791082 251.06436249 161.20311339 248.19073513 162.43359375 244.6875 C163.40937829 241.02306959 163.40937829 241.02306959 162.10498047 239.00244141 C160.54422582 237.20478184 158.89944336 235.6509623 157.109375 234.08203125 C156.53896484 233.53998047 155.96855469 232.99792969 155.38085938 232.43945312 C151.51573441 228.83519148 147.39661703 225.76379811 143.046875 222.76953125 C142.716875 226.39953125 142.386875 230.02953125 142.046875 233.76953125 C129.671875 234.26453125 129.671875 234.26453125 117.046875 234.76953125 C117.046875 230.80953125 117.046875 226.84953125 117.046875 222.76953125 C116.87429725 218.93933553 116.65960938 215.15005603 116.359375 211.33203125 C116.27913086 209.90213867 116.27913086 209.90213867 116.19726562 208.44335938 C115.84736943 204.08943368 115.59273774 201.49533769 112.92578125 197.94921875 C111.97574219 197.22992188 111.02570313 196.510625 110.046875 195.76953125 C109.50877197 195.35018311 108.97066895 194.93083496 108.41625977 194.4987793 C106.53302893 193.06028327 104.61320988 191.69105759 102.671875 190.33203125 C101.56972656 189.55931885 101.56972656 189.55931885 100.4453125 188.77099609 C42.82600948 148.95500835 16.05898818 135.08375968 -45.02880859 172.59326172 Z M-103.953125 185.76953125 C-106.4447154 189.50691685 -106.41105785 191.34284708 -105.953125 195.76953125 C-104.41736202 198.71307696 -103.26148027 200.26845902 -100.1171875 201.47265625 C-97.12362878 202.09201323 -94.94019609 202.23440989 -92.13671875 200.9140625 C-89.38067769 198.86197409 -88.03058019 196.98822825 -86.890625 193.76953125 C-86.98423396 189.27630129 -88.66129975 187.01829566 -91.828125 183.95703125 C-96.5051753 181.34338549 -99.83648284 182.76549508 -103.953125 185.76953125 Z M-120.453125 228.64453125 C-121.0090332 229.16466797 -121.56494141 229.68480469 -122.13769531 230.22070312 C-127.38842944 235.17229071 -132.56060971 240.20589518 -137.703125 245.26953125 C-138.50169922 246.0466748 -139.30027344 246.82381836 -140.12304688 247.62451172 C-140.86619141 248.36330566 -141.60933594 249.10209961 -142.375 249.86328125 C-143.04112305 250.52005859 -143.70724609 251.17683594 -144.39355469 251.85351562 C-146.08557245 253.93225003 -146.81711462 255.08992873 -146.953125 257.76953125 C-145.89194135 259.65835064 -145.89194135 259.65835064 -144.140625 261.3828125 C-143.4909375 262.07842285 -142.84125 262.7740332 -142.171875 263.49072266 C-141.4396875 264.24272949 -140.7075 264.99473633 -139.953125 265.76953125 C-139.1796875 266.57438965 -138.40625 267.37924805 -137.609375 268.20849609 C-135.07886102 270.81358416 -132.5202243 273.38801621 -129.953125 275.95703125 C-129.08945313 276.83294922 -128.22578125 277.70886719 -127.3359375 278.61132812 C-126.48773438 279.46146484 -125.63953125 280.31160156 -124.765625 281.1875 C-123.63060547 282.32868286 -123.63060547 282.32868286 -122.47265625 283.49291992 C-119.50920528 286.17065057 -116.20320165 288.44804793 -112.953125 290.76953125 C-112.953125 268.65953125 -112.953125 246.54953125 -112.953125 223.76953125 C-116.26059661 223.76953125 -118.15366072 226.47722009 -120.453125 228.64453125 Z M188.046875 249.76953125 C185.82762414 253.09840754 185.28796567 254.90889633 185.5703125 258.83203125 C186.44410659 262.38450557 188.0630467 263.78031239 191.046875 265.76953125 C193.88315072 266.46716359 196.21291638 266.48517737 199.046875 265.76953125 C202.07564549 263.51406386 203.61656443 261.81841325 205.046875 258.33203125 C205.046875 254.80738617 203.89252444 252.73575356 202.046875 249.76953125 C197.11426117 246.48112203 192.83513552 246.57735757 188.046875 249.76953125 Z M-164.953125 277.76953125 C-182.58192169 298.66632942 -196.65011321 329.11490859 -194.953125 356.76953125 C-193.24265949 368.36590761 -188.33875171 379.44126112 -178.953125 386.76953125 C-156.43549581 402.82262129 -129.22064676 404.87951497 -102.390625 403.33203125 C-101.68703857 403.29287598 -100.98345215 403.2537207 -100.25854492 403.21337891 C-96.48039107 403.01336252 -96.48039107 403.01336252 -92.953125 401.76953125 C-93.16066406 400.96257812 -93.36820312 400.155625 -93.58203125 399.32421875 C-94.72708136 394.81109239 -95.8459676 390.29209214 -96.953125 385.76953125 C-97.21577148 384.69670898 -97.47841797 383.62388672 -97.74902344 382.51855469 C-98.63976279 378.8545856 -99.51751064 375.18773936 -100.390625 371.51953125 C-100.69774414 370.24110352 -101.00486328 368.96267578 -101.32128906 367.64550781 C-102.87083932 361.08261054 -104.19611652 354.56238062 -105.1640625 347.88671875 C-105.35299072 346.62762695 -105.54191895 345.36853516 -105.73657227 344.07128906 C-106.07954229 341.68775028 -106.38699797 339.29872423 -106.65209961 336.90527344 C-107.5592007 330.65728377 -108.71403433 327.33116592 -113.72265625 323.3125 C-115.45250967 322.11162553 -117.19509679 320.92876769 -118.953125 319.76953125 C-120.10159406 318.85526637 -121.2370898 317.92416198 -122.3515625 316.96875 C-123.33382812 316.13988281 -124.31609375 315.31101562 -125.328125 314.45703125 C-136.54249924 304.92440176 -147.02839342 294.79664199 -157.36352539 284.32250977 C-158.20133545 283.47615967 -159.03914551 282.62980957 -159.90234375 281.7578125 C-160.65862061 280.98993408 -161.41489746 280.22205566 -162.1940918 279.4309082 C-163.67102806 277.65509153 -163.67102806 277.65509153 -164.953125 277.76953125 Z M180.18505859 290.98193359 C179.61094238 291.6002002 179.03682617 292.2184668 178.4453125 292.85546875 C177.7961084 293.53448242 177.1469043 294.21349609 176.47802734 294.91308594 C175.79949707 295.64946289 175.1209668 296.38583984 174.421875 297.14453125 C172.98814577 298.64034216 171.55064784 300.13255003 170.109375 301.62109375 C169.41199219 302.34329102 168.71460938 303.06548828 167.99609375 303.80957031 C164.82080526 307.00235789 161.39643442 309.75412386 157.85546875 312.53515625 C153.67809467 315.85846358 149.66688272 319.37074376 145.64013672 322.87402344 C141.25674067 326.66459841 141.25674067 326.66459841 139.046875 327.76953125 C138.37811926 330.56647781 137.83280231 333.31032622 137.34765625 336.140625 C137.02575077 337.91899579 136.70355478 339.69731402 136.38110352 341.47558594 C136.13108078 342.88052307 136.13108078 342.88052307 135.87600708 344.31384277 C132.89815975 360.99006927 129.38143249 377.24146231 124.65673828 393.51367188 C123.91928598 396.24147782 123.41806844 398.96913514 123.046875 401.76953125 C140.53373086 410.51295918 173.61722887 402.57941329 191.31640625 396.6796875 C203.9847412 391.84978316 214.92058636 383.69159718 220.859375 371.33203125 C228.32188113 353.46129289 225.03078791 334.51095825 217.93359375 317.0234375 C212.41802192 303.47498974 212.41802192 303.47498974 204.046875 291.76953125 C201.25240877 291.48628859 198.53560062 291.30297966 195.734375 291.20703125 C194.2173117 291.1465546 192.70037377 291.08283246 191.18359375 291.015625 C190.17365356 290.97973267 190.17365356 290.97973267 189.14331055 290.94311523 C187.046875 290.76953125 187.046875 290.76953125 184.51342773 290.0612793 C182.02603382 289.50014214 182.02603382 289.50014214 180.18505859 290.98193359 Z M-78.953125 349.76953125 C-76.02912801 366.0240487 -72.18022479 382.08823189 -66.953125 397.76953125 C-57.77275507 396.47297726 -48.99120378 394.2952086 -40.078125 391.76953125 C-38.78660727 391.40962138 -37.49494101 391.05024403 -36.203125 390.69140625 C-30.74154742 389.16353277 -25.32290606 387.59754182 -19.953125 385.76953125 C-19.953125 385.10953125 -19.953125 384.44953125 -19.953125 383.76953125 C-20.68088135 383.38845215 -21.4086377 383.00737305 -22.15844727 382.61474609 C-38.78704351 373.87961125 -55.03201714 364.75473474 -70.953125 354.76953125 C-72.49991852 353.80325497 -74.04678681 352.83709837 -75.59375 351.87109375 C-76.70234375 351.17757813 -77.8109375 350.4840625 -78.953125 349.76953125 Z M103.50390625 352.9375 C102.77139648 353.41219727 102.03888672 353.88689453 101.28417969 354.37597656 C100.48399414 354.89772461 99.68380859 355.41947266 98.859375 355.95703125 C83.08891017 366.07910111 66.64759098 375.08890409 50.046875 383.76953125 C50.046875 384.42953125 50.046875 385.08953125 50.046875 385.76953125 C54.22230397 387.00118817 58.39919595 388.22772526 62.57739258 389.44995117 C63.99249787 389.86463228 65.40722561 390.28060443 66.8215332 390.69799805 C81.71611124 395.65363831 81.71611124 395.65363831 97.046875 397.76953125 C101.8067803 382.23536264 105.84432141 366.69914518 109.046875 350.76953125 C106.51110108 350.76953125 105.61606888 351.54953785 103.50390625 352.9375 Z M6.046875 381.76953125 C5.34840375 384.60921765 5.34840375 386.92984485 6.046875 389.76953125 C8.03609386 392.75335955 9.43190068 394.37229966 12.984375 395.24609375 C16.90750992 395.52844058 18.71799871 394.98878211 22.046875 392.76953125 C24.26612586 389.44065496 24.80578433 387.63016617 24.5234375 383.70703125 C23.64964341 380.15455693 22.0307033 378.75875011 19.046875 376.76953125 C13.23024297 375.3388274 9.43872594 376.68175484 6.046875 381.76953125 Z M-18.23828125 411.37890625 C-19.31924072 411.71970215 -20.4002002 412.06049805 -21.51391602 412.41162109 C-23.24726196 412.96003662 -23.24726196 412.96003662 -25.015625 413.51953125 C-33.65838623 416.23189667 -42.25885115 418.76784926 -51.13891602 420.57714844 C-52.75653887 420.91839642 -54.35780671 421.3358108 -55.953125 421.76953125 C-56.283125 422.42953125 -56.613125 423.08953125 -56.953125 423.76953125 C-56.13448316 425.9727987 -56.13448316 425.9727987 -54.8125 428.43359375 C-54.32458984 429.38314941 -53.83667969 430.33270508 -53.33398438 431.31103516 C-52.79580078 432.32858887 -52.25761719 433.34614258 -51.703125 434.39453125 C-50.88038086 435.95373291 -50.88038086 435.95373291 -50.04101562 437.54443359 C-38.02270835 459.93873055 -22.31525173 481.11510767 2.046875 490.76953125 C15.29343351 494.54759899 26.7883924 492.17217786 38.75390625 485.7578125 C43.59146424 482.8369145 47.85794807 479.55284026 52.046875 475.76953125 C52.6965625 475.20105469 53.34625 474.63257813 54.015625 474.046875 C68.84580901 460.21955179 79.29575418 441.29063048 87.046875 422.76953125 C83.12505532 421.42833434 79.2042384 420.2346945 75.1953125 419.18359375 C74.09574219 418.89226562 72.99617187 418.6009375 71.86328125 418.30078125 C69.5928514 417.7028928 67.32202556 417.10650579 65.05078125 416.51171875 C58.422767 414.75247865 52.00111345 412.7707679 45.59228516 410.32177734 C43.07219609 409.53731307 43.07219609 409.53731307 40.84277344 410.57666016 C38.01727845 412.45340955 35.23102952 414.37436905 32.4609375 416.33203125 C24.13411977 421.29039521 12.44525665 421.28925483 3.15234375 419.08203125 C-1.50192826 417.12576981 -5.4285848 414.12087315 -9.32421875 410.94140625 C-12.3403819 408.7715047 -14.93022952 410.32336123 -18.23828125 411.37890625 Z " fill="#000000" transform="translate(240.953125,-0.76953125)"/>
<path d="M0 0 C1.30365551 1.08998583 2.59459989 2.19528814 3.875 3.3125 C4.84308594 4.08464844 5.81117188 4.85679687 6.80859375 5.65234375 C16.40913081 13.66632589 22.45343272 24.82246134 26.875 36.3125 C27.30941406 37.42496094 27.74382812 38.53742188 28.19140625 39.68359375 C34.70949162 59.69207183 32.11980722 82.03972185 23.0625 100.6875 C19.95415425 106.77552518 16.35705254 112.13679648 11.875 117.3125 C11.27816406 118.10527344 10.68132812 118.89804687 10.06640625 119.71484375 C1.86635931 129.43504199 -9.38512742 135.85794315 -21.125 140.3125 C-22.23617187 140.745625 -23.34734375 141.17875 -24.4921875 141.625 C-44.4933664 148.15599719 -66.8577544 145.55572972 -85.5 136.5 C-91.58504784 133.38997734 -96.96623805 129.81377268 -102.125 125.3125 C-103.09308594 124.54035156 -104.06117188 123.76820313 -105.05859375 122.97265625 C-114.65913081 114.95867411 -120.70343272 103.80253866 -125.125 92.3125 C-125.77662109 90.64380859 -125.77662109 90.64380859 -126.44140625 88.94140625 C-132.95927113 68.93360501 -130.37054734 46.58451668 -121.3125 27.9375 C-118.20247734 21.85245216 -114.62627268 16.47126195 -110.125 11.3125 C-108.96677734 9.86037109 -108.96677734 9.86037109 -107.78515625 8.37890625 C-99.77117411 -1.22163081 -88.61503866 -7.26593272 -77.125 -11.6875 C-76.01253906 -12.12191406 -74.90007812 -12.55632812 -73.75390625 -13.00390625 C-49.0695884 -21.04522205 -20.46495623 -15.7264261 0 0 Z M-88.875 26.625 C-99.93361881 38.19071596 -103.72614885 51.41294061 -103.52954102 67.13574219 C-103.32762559 73.26226599 -102.65728014 78.67381952 -100.125 84.3125 C-99.79628906 85.12460937 -99.46757812 85.93671875 -99.12890625 86.7734375 C-96.02909325 93.74533524 -91.48177963 98.94640424 -86.125 104.3125 C-85.27615234 105.17875 -85.27615234 105.17875 -84.41015625 106.0625 C-74.62482438 115.24970645 -61.2973041 119.15753172 -48.125 119.3125 C-30.40942762 117.95308336 -16.68854381 110.78480536 -5.125 97.3125 C4.49885052 84.47355465 6.37390025 69.90171853 4.875 54.3125 C2.28513973 39.46294612 -6.64140068 27.47138585 -18.53125 18.49609375 C-41.71062115 3.48218289 -69.44761417 8.23720672 -88.875 26.625 Z " fill="#000000" transform="translate(305.125,191.6875)"/>
<path d="M0 0 C8.58 0 17.16 0 26 0 C26 5.28 26 10.56 26 16 C17.42 16 8.84 16 0 16 C0 10.72 0 5.44 0 0 Z " fill="#000000" transform="translate(359,248)"/>
<path d="M0 0 C8.58 0 17.16 0 26 0 C26 5.28 26 10.56 26 16 C17.42 16 8.84 16 0 16 C0 10.72 0 5.44 0 0 Z " fill="#000000" transform="translate(273,229)"/>
<path d="M0 0 C8.58 0 17.16 0 26 0 C26 5.28 26 10.56 26 16 C17.42 16 8.84 16 0 16 C0 10.72 0 5.44 0 0 Z " fill="#000000" transform="translate(243,214)"/>
</svg>
