<?xml version="1.0" encoding="UTF-8"?>
<svg version="1.1" xmlns="http://www.w3.org/2000/svg" width="512" height="512">
<path d="M0 0 C1.8075989 -0.00706366 3.61519189 -0.01581055 5.42277527 -0.02610779 C10.31754234 -0.04856303 15.21198545 -0.04567083 20.10678434 -0.03678632 C24.19960099 -0.03166671 28.29235729 -0.03897701 32.38516772 -0.04625839 C42.04443006 -0.0632456 51.70353439 -0.05970395 61.36279297 -0.04296875 C71.31266335 -0.02605242 81.26209484 -0.04187799 91.21191728 -0.07419163 C99.76846026 -0.10092295 108.32486691 -0.10815384 116.88144743 -0.09967655 C121.98574478 -0.09475721 127.08977819 -0.09690903 132.19404221 -0.11746407 C136.9959388 -0.13587654 141.7972064 -0.12979461 146.5990696 -0.10526466 C148.35578539 -0.1002742 150.11254957 -0.10370044 151.86922646 -0.11641312 C162.14406744 -0.18485574 171.07269679 0.03334741 179.15534973 7.20893192 C188.00605768 16.19836913 186.71166143 28.75139541 186.66650391 40.40063477 C186.66852834 42.24472163 186.67144284 44.0888077 186.67520142 45.93289185 C186.6796096 49.78761457 186.67324388 53.64212791 186.65917969 57.49682617 C186.64211289 62.41125155 186.65192273 67.32518437 186.66989708 72.2395916 C186.68079636 76.0454166 186.67726014 79.85112705 186.6695137 83.65695572 C186.66752738 85.46765325 186.66991517 87.27836154 186.67695236 89.08904648 C186.6846661 91.63182408 186.67282509 94.17383172 186.65625 96.71655273 C186.66232269 97.44832733 186.66839539 98.18010193 186.6746521 98.93405151 C186.59631823 105.49842965 185.12558064 109.72256175 183.26806641 116.53344727 C190.19806641 123.46344727 197.12806641 130.39344727 204.26806641 137.53344727 C208.13760336 135.66998042 208.13760336 135.66998042 211.15869141 133.76391602 C229.89382904 122.37033813 251.5339908 118.12615986 273.14306641 123.09594727 C284.29073332 125.89197582 293.55522561 131.46292177 303.26806641 137.53344727 C320.09806641 120.70344727 336.92806641 103.87344727 354.26806641 86.53344727 C352.94806641 82.24344727 351.62806641 77.95344727 350.26806641 73.53344727 C347.62745606 57.68978521 350.72267923 43.98390324 359.60400391 30.50610352 C367.92473317 19.90078095 381.03872224 13.24101581 394.26806641 11.53344727 C410.09718635 10.46446774 423.16738359 14.44025283 435.45556641 24.53344727 C446.14315987 34.65943152 451.22812126 47.97844817 451.64306641 62.53344727 C451.26579431 76.8226281 446.35271734 89.0236899 436.52587891 99.46704102 C425.54058276 109.52105773 412.17359688 113.91188139 397.48681641 113.74829102 C385.70579547 112.96193646 374.93932366 108.52013158 366.26806641 100.53344727 C362.60925464 102.0730086 360.28514851 104.27433784 357.49951172 107.07495117 C357.0405098 107.53366104 356.58150787 107.99237091 356.1085968 108.46498108 C354.59966966 109.97529637 353.09794186 111.49256114 351.59619141 113.01000977 C350.54859416 114.06133897 349.50055312 115.11222612 348.4520874 116.16268921 C345.69894121 118.92345743 342.95185514 121.69017976 340.20599365 124.45819092 C337.40089725 127.28377654 334.5901032 130.10368171 331.77978516 132.92407227 C326.27029108 138.45499101 320.76718764 143.99221315 315.26806641 149.53344727 C315.7514447 150.28481964 316.234823 151.03619202 316.73284912 151.81033325 C317.36547668 152.79806732 317.99810425 153.78580139 318.64990234 154.8034668 C319.27765564 155.78171417 319.90540894 156.75996155 320.55218506 157.76785278 C326.70761109 167.68894219 331.26806641 179.77514572 331.26806641 191.53344727 C344.46806641 191.53344727 357.66806641 191.53344727 371.26806641 191.53344727 C371.92806641 188.89344727 372.58806641 186.25344727 373.26806641 183.53344727 C377.71704935 174.45128783 385.04109617 167.62278996 394.57275391 164.25610352 C404.59110293 161.57002443 414.21878437 162.11986459 423.62353516 166.67407227 C431.77493693 171.50679827 438.30927968 178.8629257 441.42041016 187.86938477 C443.71904493 197.80541893 443.37072986 208.54564595 438.26806641 217.53344727 C431.79294817 226.40016123 424.0266205 232.92125324 413.06103516 234.93969727 C402.50589197 236.40245727 392.77733995 234.30610492 384.17431641 227.99829102 C376.5063534 221.71800042 373.68129466 216.18636029 371.26806641 206.53344727 C358.06806641 206.53344727 344.86806641 206.53344727 331.26806641 206.53344727 C330.93806641 209.83344727 330.60806641 213.13344727 330.26806641 216.53344727 C327.66020537 227.11575939 323.3882753 237.15604422 316.51806641 245.71313477 C316.10556641 246.31383789 315.69306641 246.91454102 315.26806641 247.53344727 C316.01903494 250.46222455 317.30389658 252.59132678 318.89306641 255.15844727 C320.26806641 257.53344727 320.26806641 257.53344727 320.26806641 260.53344727 C321.47462891 260.06938477 321.47462891 260.06938477 322.70556641 259.59594727 C331.26662656 257.04264862 339.55186034 256.67988812 347.72509766 260.76000977 C353.62174713 264.41730148 358.17487588 268.58114306 360.08056641 275.47094727 C360.14244141 276.15157227 360.20431641 276.83219727 360.26806641 277.53344727 C361.47462891 277.06938477 361.47462891 277.06938477 362.70556641 276.59594727 C372.14900503 273.77948311 380.05225159 274.2859674 388.95556641 278.59594727 C395.35788551 282.36794296 398.88089119 288.64863571 401.26806641 295.53344727 C401.53549194 298.30970764 401.53549194 298.30970764 401.55859375 301.36181641 C401.57135345 302.5097316 401.58411316 303.65764679 401.59725952 304.84034729 C401.60059799 306.68583412 401.60059799 306.68583412 401.60400391 308.56860352 C401.61066071 309.83941269 401.6173175 311.11022186 401.62417603 312.41954041 C401.63429311 315.10356694 401.63985948 317.78718815 401.63867188 320.47119141 C401.63846819 323.90686681 401.66583212 327.34171962 401.70021629 330.77719975 C401.72781198 334.06180361 401.72663336 337.34639941 401.72900391 340.63110352 C401.74337494 341.8634523 401.75774597 343.09580109 401.77255249 344.36549377 C401.76639923 345.51025681 401.76024597 346.65501984 401.75390625 347.83447266 C401.75675629 348.84087296 401.75960632 349.84727325 401.76254272 350.88417053 C401.12925194 354.27717943 399.98104356 355.45684257 397.26806641 357.53344727 C393.76806641 358.03344727 393.76806641 358.03344727 390.26806641 357.53344727 C387.36089568 355.31481697 386.42824998 354.01399798 385.26806641 350.53344727 C385.17242954 348.85728485 385.13269673 347.17765539 385.1262207 345.4987793 C385.11918625 344.47406525 385.11215179 343.4493512 385.10490417 342.39358521 C385.1007399 341.28731781 385.09657562 340.18105042 385.09228516 339.04125977 C385.06909033 336.70401114 385.04497313 334.36677152 385.02001953 332.02954102 C384.98487424 328.34051457 384.95554233 324.65182016 384.94213867 320.96264648 C384.92667939 317.40510816 384.88648446 313.84854183 384.84228516 310.29125977 C384.84514778 308.63793137 384.84514778 308.63793137 384.84806824 306.95120239 C384.77229763 300.88717239 384.77229763 300.88717239 382.43920898 295.39233398 C379.42843193 292.81456984 377.19501144 292.06591439 373.26806641 291.53344727 C368.57472124 292.94145082 365.79049672 294.32675687 363.26806641 298.53344727 C362.81369232 300.99510086 362.81369232 300.99510086 362.86743164 303.68164062 C362.85409286 304.70627914 362.84075409 305.73091766 362.82701111 306.78660583 C362.82689529 307.88771194 362.82677948 308.98881805 362.82666016 310.12329102 C362.8134523 311.25996719 362.80024445 312.39664337 362.78663635 313.56776428 C362.74571576 317.20218345 362.72406492 320.83634974 362.70556641 324.47094727 C362.68177187 328.10189675 362.65362564 331.73260825 362.61378479 335.36341858 C362.58945529 337.62264221 362.5745744 339.88199182 362.57017517 342.14134216 C362.55998856 343.16913284 362.54980194 344.19692352 362.53930664 345.25585938 C362.53503159 346.15646591 362.53075653 347.05707245 362.52635193 347.98497009 C362.1120003 352.07333578 361.19707968 354.75926953 358.01806641 357.40844727 C354.57805024 358.81572661 352.79874805 358.60800255 349.26806641 357.53344727 C347.61242676 356.38699341 347.61242676 356.38699341 346.26806641 354.53344727 C345.88952637 351.61373901 345.88952637 351.61373901 345.88330078 348.00170898 C345.87524162 347.01324226 345.87524162 347.01324226 345.86701965 346.00480652 C345.85724039 344.57417608 345.85429798 343.14348632 345.8573761 341.71282578 C345.86185912 339.44149384 345.84783771 337.17093921 345.82897949 334.89968872 C345.79217914 330.06928776 345.7785026 325.23896771 345.76806641 320.40844727 C345.75595474 314.82914476 345.7341601 309.25021941 345.68806458 303.67108536 C345.67459113 301.44600458 345.67864928 299.22141226 345.68347168 296.99630737 C345.91625767 286.31856941 345.91625767 286.31856941 342.26806641 276.53344727 C338.59043592 274.62380893 335.30126653 274.10499513 331.22900391 274.96313477 C327.47633087 276.38435987 325.27477401 278.1234857 323.26806641 281.53344727 C322.82446074 284.36235649 322.82446074 284.36235649 322.89916992 287.5078125 C322.89228653 288.71263779 322.88540314 289.91746307 322.87831116 291.15879822 C322.8875486 293.1057534 322.8875486 293.1057534 322.89697266 295.09204102 C322.89027714 296.44199147 322.88169876 297.79193378 322.87132263 299.14186096 C322.83128425 304.86588144 322.83001926 310.58982759 322.83227539 316.31396484 C322.83232657 319.82009336 322.8131199 323.32572145 322.78294182 326.83171272 C322.77214293 328.81083431 322.78427219 330.79003818 322.79676819 332.76914978 C322.78673264 333.97712723 322.77669708 335.18510468 322.76635742 336.4296875 C322.76652359 337.49017807 322.76668976 338.55066864 322.76686096 339.64329529 C322.14306335 343.25774913 320.80425472 344.93041297 318.26806641 347.53344727 C315.21567522 348.70744388 313.73016299 348.66240445 310.58056641 347.78344727 C308.26806641 346.53344727 308.26806641 346.53344727 306.26806641 343.53344727 C306.07110339 341.09402412 305.98778479 338.76706754 305.99682617 336.32739258 C305.98898605 335.23169449 305.98898605 335.23169449 305.98098755 334.11386108 C305.97074777 332.52770384 305.96496718 330.941513 305.96310616 329.35532379 C305.95944273 326.84103234 305.94271528 324.32713544 305.92234802 321.81292725 C305.86694522 314.66450353 305.83630766 307.51602078 305.81176758 300.36743164 C305.79584831 295.99368201 305.76557919 291.62021022 305.7270031 287.24660492 C305.71538668 285.58335074 305.70942304 283.92004675 305.70932198 282.25675201 C305.70912884 279.92323522 305.6907832 277.59047821 305.66870117 275.25708008 C305.67327835 274.57630402 305.67785553 273.89552795 305.68257141 273.19412231 C305.60836963 268.23522812 304.50385589 264.87337508 302.26806641 260.53344727 C299.01073125 258.1977612 295.21324868 257.22788223 291.22900391 257.85375977 C286.9717615 259.42984525 285.16365232 261.55035322 283.26806641 265.53344727 C282.82606093 268.70618681 282.82606093 268.70618681 282.89916992 272.17211914 C282.89540344 272.81830704 282.89163696 273.46449493 282.88775635 274.13026428 C282.88134652 275.52596083 282.88163261 276.92170107 282.88794136 278.31739807 C282.89708342 280.52899187 282.88679403 282.73974361 282.87132263 284.95129395 C282.83130402 291.23599003 282.83002133 297.52061758 282.83227539 303.80541992 C282.83232654 307.65632678 282.81313723 311.50677743 282.78294182 315.3575592 C282.77213511 317.53200968 282.78423363 319.70558284 282.79676819 321.88000488 C282.78786184 323.21827047 282.77778678 324.55652897 282.76635742 325.89477539 C282.76652359 327.05883911 282.76668976 328.22290283 282.76686096 329.42224121 C282.16313396 333.18795813 280.92110944 334.84245145 278.26806641 337.53344727 C274.79352507 338.99641204 273.54725982 338.64619845 270.01806641 337.22094727 C267.26806641 335.53344727 267.26806641 335.53344727 266.26806641 333.53344727 C266.16921065 331.74784959 266.13463748 329.95855318 266.1300354 328.17022705 C266.12458206 327.03182373 266.11912872 325.89342041 266.11351013 324.72052002 C266.1124678 323.4654364 266.11142548 322.21035278 266.11035156 320.91723633 C266.10255241 318.89536122 266.0947492 316.87348612 266.08679366 314.85161161 C266.07907183 312.67398679 266.07369373 310.4963662 266.06883621 308.31873322 C266.05816272 303.78021875 266.03791881 299.241779 266.01571655 294.70330811 C265.95377307 281.79613677 265.89980221 268.88896932 265.86669922 255.98168945 C265.848344 248.85609402 265.81939534 241.73062325 265.77869451 234.60511947 C265.75763663 230.83449546 265.74216902 227.0640285 265.73988724 223.29334259 C265.73773703 219.74412058 265.72183014 216.19522534 265.69549751 212.64610291 C265.68489992 210.72692736 265.68905316 208.807688 265.69367981 206.88848877 C265.67397892 198.77622983 265.67397892 198.77622983 262.26806641 191.53344727 C259.89503621 189.36980209 258.30156953 188.57781949 255.08447266 188.43969727 C251.23666801 188.69242663 248.89392601 189.06405257 245.76806641 191.40844727 C243.12217833 195.15678871 243.13847056 198.28587224 243.12330627 202.74928284 C243.11640778 204.05156326 243.10950928 205.35384369 243.10240173 206.69558716 C243.09968701 208.14227281 243.09704986 209.58895861 243.09448242 211.03564453 C243.08817697 212.55679005 243.08141118 214.07793373 243.07421875 215.59907532 C243.05954374 218.8778959 243.04782072 222.15670932 243.03827095 225.43554878 C243.02281289 230.62633217 242.99886124 235.81705468 242.97337341 241.00779724 C242.90219395 255.76964464 242.84250089 270.53152745 242.79125977 285.29345703 C242.76289201 293.44415651 242.72747227 301.59479592 242.68460602 309.74543232 C242.65792854 314.89837877 242.63996462 320.05125728 242.62856877 325.20425904 C242.6193953 328.42242457 242.60201072 331.64050822 242.58238983 334.85862541 C242.574962 336.34280474 242.57083617 337.82700515 242.57039452 339.311203 C242.55864846 361.16447972 242.55864846 361.16447972 236.26806641 368.53344727 C233.23654719 371.21850714 230.90501877 371.78738128 226.95556641 371.65844727 C217.18610904 370.03556043 212.14754843 360.88351522 206.69946289 353.45800781 C200.09532177 344.48889142 193.99080671 338.10769403 183.26806641 334.53344727 C177.35850397 334.00453634 172.26065798 333.94902254 167.26806641 337.53344727 C166.34856569 339.79683365 166.08667743 340.99858234 166.87744141 343.33032227 C171.08264149 350.53100735 175.86201603 357.32472883 180.62451172 364.1628418 C183.6153453 368.47671495 186.56443519 372.81905798 189.51806641 377.15844727 C190.80707508 379.05041102 192.09613812 380.94233774 193.38525391 382.83422852 C194.02946289 383.77991699 194.67367187 384.72560547 195.33740234 385.69995117 C197.82408514 389.34947577 200.31271337 392.99767119 202.80151367 396.64575195 C204.65725342 399.36674912 206.51151777 402.08874776 208.36572266 404.81079102 C211.11717852 408.84902536 213.87652355 412.88176092 216.63916016 416.91235352 C234.10217135 442.42505061 248.48408142 463.86045388 249.26806641 495.53344727 C251.71624848 496.7575383 253.289052 496.65658307 256.02627563 496.65370178 C257.0303093 496.65507645 258.03434296 496.65645111 259.06880188 496.65786743 C260.17434921 496.65427216 261.27989655 496.65067688 262.41894531 496.64697266 C263.57991226 496.64711868 264.74087921 496.64726471 265.93702698 496.64741516 C269.7895797 496.64671629 273.64208459 496.63892508 277.49462891 496.63110352 C280.1597807 496.62923924 282.82492981 496.62776621 285.49008179 496.6268158 C291.79760726 496.62370472 298.10511545 496.61549433 304.4126333 496.60546631 C311.59270996 496.59429825 318.77278743 496.58879297 325.95287061 496.58377087 C340.72461139 496.57331154 355.4963386 496.5557164 370.26806641 496.53344727 C370.25759277 495.47544922 370.24711914 494.41745117 370.23632812 493.32739258 C370.19972261 489.34647091 370.17702068 485.36556364 370.15820312 481.38452148 C370.14823686 479.67193081 370.13465894 477.95935673 370.1171875 476.24682617 C369.87463255 451.83438391 369.87463255 451.83438391 374.58056641 441.53344727 C375.01626953 440.54860352 375.45197266 439.56375977 375.90087891 438.54907227 C376.35205078 437.55391602 376.80322266 436.55875977 377.26806641 435.53344727 C378.17323235 433.45415177 379.06921455 431.37083212 379.95556641 429.28344727 C380.35130859 428.37079102 380.74705078 427.45813477 381.15478516 426.51782227 C384.76813328 416.8315136 384.63683788 407.41487443 384.72436523 397.21850586 C384.74611011 395.09133117 384.78551921 392.96501017 384.82666016 390.83813477 C384.84011475 389.57984863 384.85356934 388.3215625 384.86743164 387.02514648 C385.30311321 383.22799977 386.27881211 380.77864066 388.26806641 377.53344727 C391.35980392 375.98757851 393.86236193 376.23985205 397.26806641 376.53344727 C399.46142578 378.05566406 399.46142578 378.05566406 401.26806641 380.53344727 C401.66747857 383.32123114 401.82972466 385.70526808 401.79931641 388.49047852 C401.80314331 389.27049728 401.80697021 390.05051605 401.81091309 390.85417175 C401.81363353 392.50923956 401.80626294 394.16435027 401.78955078 395.81933594 C401.76845759 398.29994374 401.78917761 400.77754846 401.81494141 403.25805664 C401.8416794 417.20174504 399.35824718 429.23834672 393.14306641 441.84594727 C386.48994489 455.41188464 386.91281993 468.72102149 386.81176758 483.5402832 C386.79008233 486.21018964 386.75068246 488.87940612 386.70947266 491.54907227 C386.70935684 492.36168518 386.70924103 493.1742981 386.7091217 494.01153564 C386.61227248 499.58850072 385.68785561 503.94125578 381.73291016 508.17797852 C377.45464138 511.44959582 375.43455658 512.65675812 370.09466553 512.68061829 C368.99833298 512.68777359 367.90200043 512.69492889 366.77244568 512.70230103 C364.95995079 512.70633438 364.95995079 512.70633438 363.11083984 512.71044922 C361.20828178 512.72030602 361.20828178 512.72030602 359.26728821 512.73036194 C355.05401883 512.75141161 350.84074906 512.76176612 346.62744141 512.77172852 C345.17699413 512.77577593 343.72654704 512.77989285 342.27610016 512.7840786 C335.46093939 512.80313338 328.64578947 512.817363 321.83060718 512.82569057 C313.96504971 512.83546027 306.09977387 512.86177131 298.23431563 512.90219146 C292.15439928 512.93236276 286.07456359 512.94716045 279.99457383 512.95047158 C276.36358289 512.95282124 272.73289271 512.96176989 269.10198212 512.98693275 C265.04876522 513.01456778 260.99617624 513.0103793 256.94287109 513.00341797 C255.74263809 513.01622803 254.54240509 513.02903809 253.30580139 513.04223633 C246.98491495 513.00260956 243.04193388 512.84102611 238.26806641 508.53344727 C232.90146663 502.86870306 232.06660338 497.16129162 231.89306641 489.59594727 C230.87880302 467.4950524 220.29108199 451.94958994 207.79541016 434.51782227 C204.52886923 429.94530989 201.41032004 425.28350669 198.3059082 420.59985352 C194.9783365 415.5927491 191.59006158 410.62717422 188.20556641 405.65844727 C187.47313721 404.58199951 186.74070801 403.50555176 185.98608398 402.39648438 C181.77472007 396.20779734 177.555559 390.02446432 173.33178711 383.84423828 C170.88983968 380.26726987 168.45581965 376.68493469 166.02148438 373.1027832 C164.2821329 370.55405932 162.52802538 368.01599588 160.77197266 365.47875977 C159.6869421 363.89309258 158.6022871 362.30716832 157.51806641 360.72094727 C157.02846436 360.02235596 156.5388623 359.32376465 156.03442383 358.60400391 C151.12900613 351.37428004 148.45967976 344.58135493 149.77197266 335.81469727 C151.29871939 328.79406663 155.37983124 324.40034797 161.26806641 320.53344727 C171.03889743 316.21787027 182.84678379 315.96723798 192.88525391 319.51782227 C200.42186114 322.73014666 206.15568397 327.06943344 211.95556641 332.78344727 C212.47803955 333.29568848 213.0005127 333.80792969 213.53881836 334.33569336 C218.20577987 339.10753865 221.30724298 343.87512808 225.26806641 349.53344727 C225.26806641 323.79344727 225.26806641 298.05344727 225.26806641 271.53344727 C220.64806641 269.22344727 216.02806641 266.91344727 211.26806641 264.53344727 C207.7114623 261.92802798 204.50687377 259.46137434 201.26806641 256.53344727 C200.56037109 255.90696289 199.85267578 255.28047852 199.12353516 254.63500977 C192.25966829 248.20423583 187.0237164 240.1493502 183.26806641 231.53344727 C183.26806641 230.87344727 183.26806641 230.21344727 183.26806641 229.53344727 C176.00468864 233.47385372 168.77379657 237.4664103 161.58056641 241.53344727 C160.59290283 242.09177246 159.60523926 242.65009766 158.58764648 243.2253418 C150.52557424 247.79569485 142.51308403 252.44776478 134.51538086 257.12963867 C126.61691446 261.75284764 118.69737398 266.33842305 110.76806641 270.90844727 C110.18664886 271.24358337 109.60523132 271.57871948 109.00619507 271.92401123 C105.76061511 273.79462753 102.51456196 275.66442049 99.26806641 277.53344727 C100.6305762 281.6364207 101.99450424 285.73823034 103.40087891 289.82641602 C103.72830078 290.78161133 104.05572266 291.73680664 104.39306641 292.72094727 C104.72564453 293.68387695 105.05822266 294.64680664 105.40087891 295.63891602 C111.32182762 315.40208268 107.71396209 338.02133772 98.39624023 356.0168457 C95.51764279 361.31636668 92.35278303 366.07517803 88.26806641 370.53344727 C87.44435547 371.43708008 86.62064453 372.34071289 85.77197266 373.27172852 C70.00815562 389.79578638 49.47559813 398.31276175 26.76806641 398.90844727 C3.43162891 398.32013372 -16.89861887 389.5840994 -33.38330078 372.9597168 C-48.75548717 356.70260005 -55.25311414 335.20185609 -54.94677734 313.27563477 C-54.21578766 290.78294593 -43.78000502 270.87610896 -27.73193359 255.53344727 C-10.29749971 240.56034523 11.52954753 234.06593703 34.26806641 235.53344727 C52.92922161 237.89632534 69.17394736 245.02381079 82.63916016 258.04516602 C84.77892563 260.07047153 86.89993515 261.79900135 89.26806641 263.53344727 C103.64796364 255.34614181 118.0083825 247.13031135 132.29174805 238.77539062 C139.91617562 234.3170443 147.55626279 229.88642094 155.20556641 225.47094727 C156.27758301 224.85147217 157.34959961 224.23199707 158.45410156 223.59375 C164.36268929 220.18588266 170.29188017 216.82143593 176.26806641 213.53344727 C176.23326172 212.28692383 176.19845703 211.04040039 176.16259766 209.75610352 C175.76343153 189.25071695 178.8008678 172.75433376 189.91259766 155.12719727 C191.57683901 152.43035941 191.57683901 152.43035941 191.26806641 148.53344727 C186.88476535 139.87141039 179.25274116 131.52102599 170.26806641 127.53344727 C156.68484213 123.77912141 141.23457716 125.62956524 127.33868408 126.324646 C121.06718757 126.61749421 114.79109273 126.77649395 108.51507664 126.93928623 C103.64172362 127.06577257 98.77414295 127.21684016 93.90452576 127.44798279 C92.1532304 127.516796 90.40193349 127.58556957 88.65063477 127.65429688 C87.85644135 127.70166992 87.06224792 127.74904297 86.24398804 127.79785156 C82.631385 127.92042003 80.71063562 127.86825002 77.77955627 125.65089417 C76.16085788 123.38325879 75.70018334 122.28957785 75.70556641 119.53344727 C75.68365234 118.87344727 75.66173828 118.21344727 75.63916016 117.53344727 C76.64549342 114.33318249 78.48308338 113.32494138 81.26806641 111.53344727 C84.07481855 111.15821452 86.48402432 111.00827236 89.28369141 111.05102539 C90.07618286 111.04711288 90.86867432 111.04320038 91.68518066 111.03916931 C93.40009773 111.03320638 95.11506552 111.03634256 96.82995605 111.04759216 C99.54568049 111.06487298 102.26034223 111.05733684 104.97607422 111.04333496 C111.71880746 111.01370446 118.46133665 111.02687903 125.20410156 111.03851318 C130.90606082 111.04671659 136.60755516 111.03878221 142.30944824 111.00938416 C144.98247228 111.00229171 147.65467731 111.01896453 150.32763672 111.03649902 C151.96924276 111.03079101 153.61084545 111.02397365 155.25244141 111.01586914 C155.99337036 111.02718369 156.73429932 111.03849823 157.49768066 111.05015564 C161.0955905 111.00772746 163.13109311 110.61934008 166.20654297 108.6907959 C169.84567208 104.88251021 169.42158758 100.89516423 169.42919922 95.9284668 C169.43416412 95.15577454 169.43912903 94.38308228 169.44424438 93.5869751 C169.45885279 91.03006094 169.46566557 88.47320881 169.47119141 85.91625977 C169.47694367 84.13890583 169.48270139 82.3615519 169.48846436 80.584198 C169.49897038 76.85682893 169.50481575 73.1294814 169.50830078 69.40209961 C169.51378662 64.62820223 169.53781817 59.8545899 169.56627274 55.08078194 C169.58490432 51.409039 169.59010498 47.73736468 169.59163666 44.06557846 C169.59466222 42.30572831 169.60268751 40.54587933 169.61582184 38.78607559 C169.63289443 36.32290245 169.6309994 33.86042526 169.62451172 31.3972168 C169.63833389 30.30916245 169.63833389 30.30916245 169.6524353 29.1991272 C169.61633133 24.81885952 169.17628258 21.88242273 166.26806641 18.53344727 C161.79728538 16.66319566 157.95963282 16.28073664 153.13978577 16.27275085 C152.44539428 16.26892531 151.75100279 16.26509976 151.03556913 16.26115829 C148.72114433 16.25088334 146.40697016 16.25480985 144.0925293 16.25878906 C142.42814404 16.25443955 140.76376078 16.24925561 139.09938049 16.24330139 C134.58699038 16.22992634 130.0746841 16.22933103 125.56227803 16.23186469 C121.79238698 16.23293534 118.02251283 16.22804865 114.25262541 16.22325927 C105.35777579 16.2121694 96.46296841 16.21172386 87.56811523 16.21777344 C78.3976764 16.22381461 69.22739095 16.21149737 60.05697829 16.19020337 C52.17739766 16.17258076 44.29786584 16.16658702 36.41826624 16.16984111 C31.71483243 16.17165294 27.01150805 16.16902766 22.30809212 16.15512657 C17.88474898 16.14254201 13.4616448 16.14449826 9.03830528 16.15753746 C7.41739445 16.15990136 5.79646676 16.15717522 4.17557526 16.14891434 C1.95788459 16.13842909 -0.25900686 16.14656094 -2.47666931 16.15922546 C-3.71606231 16.15905772 -4.9554553 16.15888998 -6.23240566 16.15871716 C-10.67158646 16.63406547 -15.16697366 17.6634522 -18.15325928 21.23181152 C-19.00106881 24.60391334 -19.00969688 27.90666442 -18.99072266 31.35961914 C-18.99422729 32.14381729 -18.99773193 32.92801544 -19.00134277 33.73597717 C-19.01013589 36.3248076 -19.00431952 38.91336412 -18.99755859 41.50219727 C-18.99890594 43.30293836 -19.00084705 45.1036791 -19.00335693 46.90441895 C-19.00630492 50.67711859 -19.00202101 54.44972348 -18.99267578 58.22241211 C-18.98128144 63.05798637 -18.98784265 67.89333861 -18.99982071 72.72890472 C-19.00704809 76.44693677 -19.00474734 80.1649162 -18.99956512 83.88294983 C-18.99823106 85.6659396 -18.99986784 87.44893415 -19.00452423 89.23191833 C-19.00960386 91.72383276 -19.00185908 94.21538773 -18.99072266 96.70727539 C-18.99477112 97.44401993 -18.99881958 98.18076447 -19.00299072 98.93983459 C-18.97554954 104.07255131 -18.97554954 104.07255131 -16.73193359 108.53344727 C-13.45710686 110.86165272 -10.41811789 110.78956934 -6.48217773 110.8046875 C-5.21729019 110.81487411 -3.95240265 110.82506073 -2.64918518 110.83555603 C-1.63944232 110.83696752 -1.63944232 110.83696752 -0.60930061 110.83840752 C1.50549161 110.84208023 3.61981865 110.85883059 5.73451233 110.87916565 C11.74520205 110.93449349 17.75595958 110.96525461 23.7668457 110.98974609 C27.44799361 111.00564691 31.12880997 111.03589011 34.80978584 111.07451057 C36.20953406 111.08613661 37.60934162 111.09209072 39.00913811 111.0921917 C40.96911084 111.09238437 42.92905171 111.11219628 44.88891602 111.1328125 C46.00270126 111.13788315 47.11648651 111.1429538 48.26402283 111.1481781 C51.64736558 111.58209246 53.54080184 112.51685199 56.26806641 114.53344727 C57.71237495 117.42206436 57.64495146 119.32992428 57.26806641 122.53344727 C54.72317697 125.74637295 53.21436615 127.34305427 49.14581299 128.16163635 C47.97604919 128.16259811 46.8062854 128.16355988 45.60107422 128.16455078 C44.95155792 128.17170609 44.30204163 128.17886139 43.63284302 128.18623352 C41.49490019 128.20308039 39.35906782 128.18373732 37.22119141 128.16235352 C35.7253197 128.16318301 34.22944809 128.16564542 32.73358154 128.16966248 C29.59961475 128.17251822 26.46636345 128.15784971 23.33251953 128.13037109 C19.33676528 128.09640566 15.34229974 128.10226861 11.34648514 128.12103367 C8.25609827 128.13166389 5.16600511 128.12260978 2.07564545 128.10764885 C0.60381699 128.10250257 -0.86804262 128.1029052 -2.33986664 128.1091938 C-12.08963382 128.13520092 -19.13536208 126.96770706 -27.48193359 121.84594727 C-34.204503 114.93663982 -35.87963545 107.64991031 -35.89306641 98.31176758 C-35.89803131 97.48522675 -35.90299622 96.65868591 -35.90811157 95.80709839 C-35.92270449 93.07524784 -35.92953091 90.34345538 -35.93505859 87.61157227 C-35.94081302 85.70831298 -35.94657072 83.8050537 -35.95233154 81.90179443 C-35.96283379 77.91051972 -35.96868134 73.9192651 -35.97216797 69.92797852 C-35.97764681 64.82595935 -36.00166512 59.72420784 -36.03013992 54.62227249 C-36.04881064 50.68962847 -36.05397429 46.7570483 -36.05550385 42.82436371 C-36.05852159 40.94418629 -36.06652034 39.06400976 -36.07968903 37.18387604 C-36.09684014 34.54661507 -36.09484716 31.90999996 -36.08837891 29.27270508 C-36.09759369 28.50358795 -36.10680847 27.73447083 -36.11630249 26.94204712 C-36.06276447 19.9355377 -34.29041339 13.64944817 -29.54443359 8.28344727 C-29.01462891 7.65954102 -28.48482422 7.03563477 -27.93896484 6.39282227 C-19.44348564 -0.76443101 -10.50827672 -0.04313395 0 0 Z M375.26806641 37.53344727 C368.81134154 45.22714469 364.88151889 54.16464384 365.05322266 64.29516602 C366.02131199 74.38089667 370.9424612 82.99745061 378.17431641 89.92797852 C385.96270733 95.90004693 395.56248951 98.55816881 405.26806641 97.53344727 C416.1881779 95.11968094 423.94284161 90.39983061 430.20556641 81.09594727 C435.08652525 72.80283664 436.54256387 64.50569807 434.80322266 54.99047852 C432.06792521 44.55102969 426.29325319 37.32972778 417.26806641 31.53344727 C403.09910861 23.84091928 387.00564912 27.03246653 375.26806641 37.53344727 Z M207.14306641 158.53344727 C197.41042279 170.02309956 191.25852297 185.97649569 191.99462891 201.12329102 C194.05441091 219.27879812 200.47282016 234.26480047 214.26806641 246.53344727 C219.79713584 251.14167926 219.79713584 251.14167926 226.26806641 253.53344727 C226.27171204 252.80396881 226.27535767 252.07449036 226.27911377 251.32290649 C226.3171629 244.40919134 226.37420551 237.49585809 226.45196915 230.58248329 C226.49128437 227.02917403 226.52354997 223.47610664 226.5390625 219.92260742 C226.55726636 215.82634756 226.60728622 211.73098858 226.65869141 207.63500977 C226.65992004 206.37419586 226.66114868 205.11338196 226.66241455 203.81436157 C226.80678526 195.02492819 227.92141544 187.58465634 233.64306641 180.65844727 C241.7011726 174.13521844 248.92490195 171.54989482 259.26806641 172.53344727 C266.31236748 173.81634978 271.6320138 177.07926773 276.26806641 182.53344727 C279.79492039 188.48628752 281.34323772 194.51752709 281.47338867 201.41552734 C281.5033065 202.82642387 281.5033065 202.82642387 281.53382874 204.26582336 C281.55054123 205.26808456 281.56725372 206.27034576 281.58447266 207.30297852 C281.60525375 208.33911789 281.62603485 209.37525726 281.64744568 210.4427948 C281.7126877 213.74377992 281.7717082 217.04484276 281.83056641 220.34594727 C281.87377573 222.58749167 281.91739079 224.8290283 281.96142578 227.07055664 C282.06834307 232.55810533 282.17015603 238.04573088 282.26806641 243.53344727 C283.60611328 243.31688477 283.60611328 243.31688477 284.97119141 243.09594727 C286.14166016 242.91032227 287.31212891 242.72469727 288.51806641 242.53344727 C289.67822266 242.34782227 290.83837891 242.16219727 292.03369141 241.97094727 C295.26806641 241.53344727 295.26806641 241.53344727 299.26806641 241.53344727 C309.52631951 231.17136569 315.41841368 216.05559866 315.59765625 201.59619141 C315.5920166 200.81236084 315.58637695 200.02853027 315.58056641 199.22094727 C315.57492676 198.39135498 315.56928711 197.5617627 315.56347656 196.70703125 C315.2161203 179.03141224 307.58820266 164.4579783 294.92431641 152.27954102 C267.96077499 129.21170607 231.04144712 134.12362261 207.14306641 158.53344727 Z M392.35400391 184.14672852 C388.30612846 188.64326011 386.57637575 192.81004803 385.89306641 198.84594727 C386.5313269 205.12217542 388.64702087 209.79930553 392.95556641 214.40844727 C398.61122243 218.03660396 403.53035659 220.10901423 410.33056641 219.15844727 C417.04467377 217.46423326 421.28350706 213.26221637 425.26806641 207.78344727 C427.07974681 201.89548596 427.60553627 195.34588882 424.70556641 189.72094727 C420.55104263 183.63544765 415.57467055 179.91205182 408.26806641 178.53344727 C402.36548932 178.53344727 396.92642182 180.29283341 392.35400391 184.14672852 Z M-23.48193359 274.40844727 C-35.18144929 288.60715528 -40.31077679 306.2025185 -38.73193359 324.53344727 C-35.99950707 343.28722349 -26.67946706 358.9215211 -11.73193359 370.53344727 C1.25123063 380.00220324 17.37877645 383.72174886 33.26806641 382.53344727 C52.89022 379.27616977 68.94037734 370.05621206 80.74462891 353.90454102 C88.08723895 342.47642744 91.85869088 330.92916182 91.76806641 317.34594727 C91.76307129 316.34926025 91.75807617 315.35257324 91.75292969 314.32568359 C91.32911712 296.16166159 83.86297644 282.38939171 71.26806641 269.53344727 C70.67638672 268.90567383 70.08470703 268.27790039 69.47509766 267.63110352 C58.2658879 256.71882646 42.08078079 251.63986271 26.76806641 251.15844727 C7.22702806 251.77279672 -10.22951442 260.0923849 -23.48193359 274.40844727 Z " fill="#000000" transform="translate(57.73193359375,-0.533447265625)"/>
<path d="M0 0 C9.68422736 7.07693538 15.483437 16.61086158 17.4609375 28.45703125 C18.54064989 39.46179215 15.08003394 49.70129646 8.4609375 58.45703125 C1.58866354 65.88420931 -7.31982199 70.91700932 -17.515625 71.6796875 C-30.01450353 72.01630835 -39.56610071 69.03366128 -48.73828125 60.3828125 C-57.47635202 51.12788727 -60.06076691 41.87970667 -59.81640625 29.35546875 C-59.0294936 18.29435859 -53.63366507 10.12681736 -45.7265625 2.70703125 C-32.8980494 -8.05712342 -14.16544586 -8.60823249 0 0 Z M-40.12890625 20.359375 C-43.99958705 26.11714671 -44.27998472 31.7032402 -43.5390625 38.45703125 C-41.69855792 45.15507008 -37.1011911 49.54294075 -31.5390625 53.45703125 C-25.92344299 56.20510037 -19.88343125 56.54155505 -13.94921875 54.6171875 C-6.38852997 51.24045883 -2.31728459 46.63198747 0.8984375 39.08203125 C1.96105607 32.23404491 1.56589534 26.6503682 -2.1015625 20.64453125 C-5.87949675 15.4886548 -10.51975949 12.46346559 -16.5390625 10.45703125 C-26.64590358 9.21904469 -33.68435139 12.6959918 -40.12890625 20.359375 Z " fill="#000000" transform="translate(105.5390625,283.54296875)"/>
<path d="M0 0 C0.82292038 -0.0049649 1.64584076 -0.00992981 2.49369812 -0.01504517 C5.22318347 -0.02968167 7.95261071 -0.03647116 10.68212891 -0.04199219 C12.57540896 -0.0477423 14.46868899 -0.05350005 16.36196899 -0.05926514 C20.33490267 -0.06977928 24.30781608 -0.07561928 28.28076172 -0.07910156 C33.37426439 -0.08458795 38.46749995 -0.10861732 43.56091881 -0.13707352 C47.47281682 -0.15568702 51.38465033 -0.1609048 55.2965889 -0.16243744 C57.17449021 -0.16546728 59.0523903 -0.17350695 60.93024826 -0.18662262 C63.5565708 -0.20365671 66.18223855 -0.20180946 68.80859375 -0.1953125 C69.58588333 -0.20452728 70.36317291 -0.21374207 71.16401672 -0.22323608 C74.3440709 -0.19856358 76.66001624 -0.03751702 79.49307251 1.46856689 C81.93026155 4.14612921 81.90977931 6.62963797 82.03369141 10.16113281 C81.27039535 12.72858319 80.64676171 13.73987864 78.45127869 15.2484436 C75.01132755 16.54709632 71.6668175 16.45602087 68.03979492 16.45166016 C67.23769592 16.45837738 66.43559692 16.4650946 65.60919189 16.47201538 C62.96026398 16.49099833 60.31158934 16.49491953 57.66259766 16.49707031 C55.81941117 16.50349741 53.97622572 16.5102257 52.13304138 16.51724243 C48.27039219 16.52921548 44.40783245 16.53292316 40.54516602 16.53173828 C35.59743027 16.53153495 30.65026797 16.55885185 25.70266819 16.5932827 C21.89622872 16.61552616 18.08992791 16.61957663 14.2834301 16.61851883 C12.45938068 16.62087807 10.63532763 16.62971978 8.81134224 16.64518356 C6.25948072 16.66479472 3.70886427 16.65902552 1.15698242 16.64697266 C0.40513168 16.65821167 -0.34671906 16.66945068 -1.12135315 16.68103027 C-4.76914525 16.63728093 -6.80829566 16.26209991 -9.91151428 14.27920532 C-12.34493388 11.77084761 -12.96630859 10.65137651 -12.96630859 7.16113281 C-10.01249593 -0.15306997 -7.32774411 0.01048379 0 0 Z " fill="#000000" transform="translate(64.96630859375,72.8388671875)"/>
<path d="M0 0 C0.8119986 -0.0071553 1.62399719 -0.01431061 2.46060181 -0.02168274 C5.13707226 -0.03855225 7.81186351 -0.01917846 10.48828125 0.00219727 C12.35245909 0.0013684 14.21663686 -0.00109164 16.08081055 -0.00511169 C19.98476196 -0.00796849 23.88813928 0.00671985 27.79199219 0.03417969 C32.79247563 0.06826233 37.79193263 0.06224318 42.79246521 0.04351711 C46.64099663 0.03294115 50.4892898 0.04189035 54.33779907 0.05690193 C56.18135877 0.06207983 58.02494338 0.0616067 59.86849976 0.05535698 C62.44673024 0.04989751 65.02349868 0.07030215 67.6015625 0.09765625 C68.36119293 0.09113037 69.12082336 0.08460449 69.9034729 0.07788086 C73.52398645 0.14309418 75.65998247 0.5449923 78.77416992 2.44960022 C80.80078125 4.63110352 80.80078125 4.63110352 81.42578125 8.06860352 C80.63035968 12.60250645 79.40706963 13.81997374 75.80078125 16.63110352 C72.87182516 17.12613935 70.52493682 17.31702659 67.6015625 17.27807617 C66.7895639 17.28683777 65.97756531 17.29559937 65.14096069 17.30462646 C62.46451936 17.32658186 59.78973853 17.31208231 57.11328125 17.29516602 C55.2491016 17.29853528 53.38492409 17.30338882 51.52075195 17.30966187 C47.61681165 17.31702794 43.71344397 17.30633636 39.80957031 17.28295898 C34.80894899 17.25447121 29.8096694 17.27087663 24.80909729 17.3008213 C20.96055009 17.31890154 17.11232026 17.31313295 13.26376343 17.30018234 C11.42019491 17.29685033 9.57659745 17.30092823 7.73306274 17.31258011 C5.15460051 17.3253011 2.57830136 17.30589646 0 17.27807617 C-0.75963043 17.28819733 -1.51926086 17.29831848 -2.3019104 17.30874634 C-6.25886381 17.22977311 -8.03155201 16.76378347 -11.17260742 14.27816772 C-13.19921875 11.63110352 -13.19921875 11.63110352 -13.82421875 8.63110352 C-12.26059505 1.12570975 -6.81850384 -0.10495012 0 0 Z " fill="#000000" transform="translate(127.19921875,36.368896484375)"/>
<path d="M0 0 C0.65073486 -0.0038269 1.30146973 -0.00765381 1.97192383 -0.01159668 C3.34360304 -0.01431076 4.71533444 -0.00698453 6.08691406 0.00976562 C8.18151685 0.03118881 10.27269084 0.00995363 12.3671875 -0.015625 C13.70313254 -0.01298163 15.03907545 -0.00785643 16.375 0 C17.58542969 0.00451172 18.79585937 0.00902344 20.04296875 0.01367188 C23.77563968 0.6280556 24.96406786 1.51720425 27.1875 4.53125 C27.85686327 8.62180333 27.71031764 10.68043828 25.53125 14.2265625 C21.02164582 18.45667563 13.8504014 17.11629698 8.125 16.96875 C6.84560547 16.96294922 5.56621094 16.95714844 4.24804688 16.95117188 C-6.27094844 16.81312732 -6.27094844 16.81312732 -9.8125 14.53125 C-11.70136253 12.01276662 -11.81965839 10.70305132 -11.6875 7.53125 C-9.81272296 1.10344301 -6.34938316 0.0236665 0 0 Z " fill="#000000" transform="translate(180.8125,72.46875)"/>
<path d="M0 0 C2.02844287 -0.01718404 4.05524251 -0.06106773 6.08325195 -0.10522461 C7.36651367 -0.11360352 8.64977539 -0.12198242 9.97192383 -0.13061523 C11.73596558 -0.15248901 11.73596558 -0.15248901 13.53564453 -0.17480469 C17.36834323 0.38844022 19.00825707 1.59615824 21.73364258 4.29516602 C22.39770508 6.29516602 22.39770508 6.29516602 22.35864258 8.29516602 C22.3715332 8.95516602 22.38442383 9.61516602 22.39770508 10.29516602 C21.35851401 13.42496499 19.43869215 14.496413 16.73364258 16.29516602 C13.65917969 16.78100586 13.65917969 16.78100586 10.26098633 16.75610352 C9.03186523 16.75223633 7.80274414 16.74836914 6.53637695 16.74438477 C5.26084961 16.71989258 3.98532227 16.69540039 2.67114258 16.67016602 C0.75205078 16.66823242 0.75205078 16.66823242 -1.20581055 16.66625977 C-12.01569076 16.56411917 -12.01569076 16.56411917 -15.26635742 14.29516602 C-17.09702567 10.15626389 -17.60567151 8.21131406 -16.01635742 3.92016602 C-12.36056525 -1.56352224 -6.03322475 0.03562212 0 0 Z " fill="#000000" transform="translate(69.266357421875,36.704833984375)"/>
</svg>
