<?xml version="1.0" encoding="UTF-8"?>
<svg version="1.1" xmlns="http://www.w3.org/2000/svg" width="512" height="512">
<path d="M0 0 C0.73890472 -0.00671722 1.47780945 -0.01343445 2.23910522 -0.02035522 C4.67338859 -0.0392982 7.10739563 -0.04325767 9.54174805 -0.04541016 C11.24179699 -0.05184122 12.94184483 -0.05856981 14.64189148 -0.06558228 C18.20350712 -0.07754618 21.76502584 -0.08126407 25.32666016 -0.08007812 C29.87613699 -0.07987511 34.42498792 -0.10716246 38.9743166 -0.14162254 C42.48578204 -0.16393228 45.9970979 -0.16791441 49.50862694 -0.16685867 C51.18506207 -0.16920907 52.86150168 -0.17800081 54.53786659 -0.19352341 C70.7878677 -0.32989268 70.7878677 -0.32989268 77.4909668 4.29052734 C79.33081055 6.10693359 79.33081055 6.10693359 80.4284668 7.85302734 C80.99887695 8.72121094 80.99887695 8.72121094 81.58081055 9.60693359 C83.46932059 13.10027191 83.66891154 16.15554382 83.80737305 20.05224609 C83.87021484 21.72963867 83.87021484 21.72963867 83.93432617 23.44091797 C83.97364258 24.60816406 84.01295898 25.77541016 84.0534668 26.97802734 C84.09665039 28.156875 84.13983398 29.33572266 84.18432617 30.55029297 C84.29047856 33.46358617 84.39252922 36.37696491 84.4909668 39.29052734 C86.88469649 40.27511805 89.2807175 41.25331437 91.6784668 42.22802734 C92.35200195 42.50582031 93.02553711 42.78361328 93.71948242 43.06982422 C95.0388794 43.60401909 96.36537777 44.1210444 97.69873047 44.61938477 C99.16736015 45.16934567 100.61431963 45.77685693 102.0534668 46.39990234 C105.69887398 46.23632638 107.09003289 44.18002957 109.51635742 41.59716797 C110.10610352 40.93910156 110.69584961 40.28103516 111.3034668 39.60302734 C116.59539547 33.75653759 121.44877929 29.27321174 129.3972168 27.72412109 C130.2531543 27.72541016 131.1090918 27.72669922 131.9909668 27.72802734 C133.27487305 27.69515625 133.27487305 27.69515625 134.5847168 27.66162109 C143.93771451 29.68558969 150.61156756 37.95375539 157.10424805 44.47021484 C158.20627781 45.56767503 159.308676 46.66476536 160.41142273 47.76150513 C162.70999321 50.05118475 165.00286159 52.34639201 167.29199219 54.64550781 C170.21653 57.58156156 173.15667514 60.50140776 176.1014986 63.41709709 C178.37773582 65.67494034 180.64453928 67.9420741 182.9087429 70.21197891 C183.98887552 71.29226418 185.07208833 72.36947932 186.15850258 73.44344711 C187.67799779 74.94796427 189.18405618 76.46481609 190.6875 77.98535156 C191.97367973 79.27178055 191.97367973 79.27178055 193.2858429 80.584198 C196.82436148 84.92699101 198.91909966 89.59530577 198.9284668 95.29052734 C198.9574707 96.46615234 198.9574707 96.46615234 198.98706055 97.66552734 C197.56032483 105.21486911 192.04651073 110.11654679 186.7409668 115.22802734 C184.3484668 117.55865234 181.9559668 119.88927734 179.4909668 122.29052734 C183.4509668 132.19052734 183.4509668 132.19052734 187.4909668 142.29052734 C189.2750293 142.30470703 191.0590918 142.31888672 192.8972168 142.33349609 C195.26182547 142.38041293 197.62640801 142.42866022 199.9909668 142.47802734 C201.16401367 142.48382813 202.33706055 142.48962891 203.5456543 142.49560547 C210.72539506 142.67711577 216.03028037 143.36806957 221.4909668 148.29052734 C226.11026888 154.09426586 226.61393609 158.2390142 226.65209961 165.51831055 C226.65706451 166.2391684 226.66202942 166.96002625 226.66714478 167.70272827 C226.68172289 170.08226484 226.68856126 172.46173474 226.6940918 174.84130859 C226.69984701 176.50034079 226.7056047 178.15937297 226.71136475 179.81840515 C226.72186248 183.29601348 226.72771311 186.77359877 226.73120117 190.2512207 C226.73668209 194.69644788 226.76070658 199.14136818 226.78917313 203.58649921 C226.80784317 207.01383846 226.81300743 210.44110443 226.81453705 213.86849022 C226.81755446 215.5066718 226.82555208 217.14485236 226.83872223 218.78298378 C226.85587397 221.08041017 226.85388061 223.37709522 226.84741211 225.67456055 C226.85105774 226.97931839 226.85470337 228.28407623 226.85845947 229.62837219 C226.18544148 236.33516243 223.66166092 240.85850381 218.4909668 245.29052734 C214.6628858 247.9936916 211.98146979 248.68731298 207.31518555 248.80224609 C206.15825195 248.83769531 205.00131836 248.87314453 203.80932617 248.90966797 C202.61114258 248.93222656 201.41295898 248.95478516 200.1784668 248.97802734 C198.96094727 249.0121875 197.74342773 249.04634766 196.48901367 249.08154297 C193.48998562 249.16386923 190.49049115 249.22887872 187.4909668 249.29052734 C184.8509668 255.89052734 182.2109668 262.49052734 179.4909668 269.29052734 C180.69495117 270.45970703 181.89893555 271.62888672 183.1394043 272.83349609 C184.71532039 274.38127083 186.29081953 275.92947019 187.8659668 277.47802734 C189.05706055 278.63141602 189.05706055 278.63141602 190.2722168 279.80810547 C191.03276367 280.55898438 191.79331055 281.30986328 192.5769043 282.08349609 C193.2786377 282.76951904 193.98037109 283.45554199 194.70336914 284.16235352 C197.76016148 287.80153117 198.79011662 291.40790112 198.8659668 296.10302734 C198.89432617 296.89322266 198.92268555 297.68341797 198.9519043 298.49755859 C197.34009126 308.26405283 189.88646786 314.48292329 183.19018555 321.12255859 C182.06865527 322.24678808 180.94771895 323.37161038 179.8273468 324.49699402 C177.48606397 326.84414924 175.13776366 329.18398058 172.78417969 331.51879883 C169.7779942 334.50217006 166.79016311 337.50317955 163.80736065 340.50990772 C161.499092 342.8326729 159.18132823 345.14577486 156.86063576 347.45612144 C155.75537881 348.55872314 154.65304923 349.66426781 153.55380821 350.7728672 C152.01332093 352.32358658 150.46045754 353.86079021 148.90380859 355.39526367 C148.02540817 356.27048172 147.14700775 357.14569977 146.24198914 358.04743958 C140.98638739 362.33267413 135.71610847 363.89754669 128.96362305 363.62255859 C120.75206629 362.51990089 116.0576885 357.19172149 110.5925293 351.33740234 C108.74111863 349.05795248 108.74111863 349.05795248 106.4909668 349.29052734 C105.04593034 350.98088 105.04593034 350.98088 103.6159668 353.10302734 C100.83881646 357.0942722 100.83881646 357.0942722 98.33081055 358.50927734 C95.80171099 360.95783233 96.01324337 363.16625023 95.93041992 366.56201172 C95.92977539 367.35929687 95.92913086 368.15658203 95.9284668 368.97802734 C95.87447464 378.28781769 94.36683582 385.41465832 87.4909668 392.29052734 C83.82040718 394.94652778 81.14492203 396.29052734 76.4909668 396.29052734 C76.52577148 396.98017578 76.56057617 397.66982422 76.59643555 398.38037109 C76.88016893 408.22997292 75.19087147 414.82270411 68.89331055 422.46630859 C61.5484183 428.04364953 53.59367636 428.88345101 44.6394043 428.78662109 C43.54052887 428.78807632 42.44165344 428.78953156 41.30947876 428.79103088 C39.00178355 428.78938079 36.69407631 428.77792022 34.38647461 428.75708008 C30.868744 428.72805026 27.35251663 428.73650646 23.8347168 428.74951172 C21.58210536 428.74327532 19.32949865 428.73488515 17.0769043 428.72412109 C15.51255142 428.72852455 15.51255142 428.72852455 13.91659546 428.73301697 C4.78903718 428.61585626 -1.97561911 426.66701133 -8.74731445 420.29443359 C-13.41617478 414.98373437 -14.59135608 409.99689772 -14.6340332 403.04052734 C-14.67341768 399.98667647 -14.67341768 399.98667647 -15.5090332 397.29052734 C-17.87294905 395.46731814 -20.14578499 394.55998446 -22.92700195 393.49365234 C-27.85069168 391.1994066 -30.19038002 386.77931645 -32.65356445 382.13037109 C-34.09967026 377.32982808 -33.75548575 372.31191889 -33.63598633 367.32763672 C-33.68905491 362.51969246 -33.68905491 362.51969246 -36.03515625 358.47509766 C-37.86447277 356.89434267 -37.86447277 356.89434267 -39.76831055 355.59643555 C-42.44334217 353.58959906 -43.81202317 351.1415042 -45.5090332 348.29052734 C-49.85137787 351.92391778 -53.89342931 355.61411727 -57.7355957 359.77490234 C-61.34669921 362.86104367 -65.16572325 363.61348499 -69.8215332 363.72802734 C-70.70454102 363.76798828 -71.58754883 363.80794922 -72.49731445 363.84912109 C-81.91347988 362.10267277 -88.65889966 353.58132374 -95.12231445 347.07568359 C-96.22426932 345.97575353 -97.32666885 344.87626879 -98.42948914 343.77720642 C-100.72791563 341.48318045 -103.02088521 339.18387371 -105.31005859 336.88061523 C-108.23627994 333.937263 -111.17582127 331.0076412 -114.11956501 328.08182621 C-116.39415838 325.81809771 -118.66152845 323.54724252 -120.92680931 321.27419853 C-122.0078268 320.19118862 -123.09105288 319.11037836 -124.17656898 318.03187752 C-125.69363455 316.52247555 -127.20067978 315.00371003 -128.70556641 313.48217773 C-129.56301956 312.6223378 -130.42047272 311.76249786 -131.3039093 310.87660217 C-134.97111775 306.57585723 -136.93821851 302.58614955 -136.9465332 296.91552734 C-136.96586914 296.04154297 -136.98520508 295.16755859 -137.00512695 294.26708984 C-135.67813917 286.30516314 -130.94999713 281.18074927 -125.2590332 275.79052734 C-124.28450195 274.84306641 -124.28450195 274.84306641 -123.2902832 273.87646484 C-121.70537023 272.33816696 -120.11187952 270.81009228 -118.5090332 269.29052734 C-120.69940494 262.5700686 -123.06668981 255.92328732 -125.5090332 249.29052734 C-126.25475586 249.28641846 -127.00047852 249.28230957 -127.76879883 249.27807617 C-131.18298833 249.24496214 -134.59543554 249.17429625 -138.0090332 249.10302734 C-139.18208008 249.09722656 -140.35512695 249.09142578 -141.5637207 249.08544922 C-148.73456524 248.90416382 -154.06210023 248.22255425 -159.5090332 243.29052734 C-163.7459417 237.85859337 -164.6601142 233.72425768 -164.68603516 227.00854492 C-164.69589195 225.90062592 -164.69589195 225.90062592 -164.70594788 224.77032471 C-164.72566136 222.32523492 -164.7373407 219.88020659 -164.74731445 217.43505859 C-164.75138998 216.59828772 -164.75546551 215.76151684 -164.75966454 214.89938927 C-164.78051957 210.46816633 -164.79482226 206.03697428 -164.80419922 201.60571289 C-164.81524682 197.04052176 -164.849629 192.4758203 -164.88937092 187.91080189 C-164.91558661 184.3907738 -164.92389556 180.87086136 -164.9274807 177.35074425 C-164.93233592 175.66871531 -164.94391946 173.98669118 -164.96251869 172.30475807 C-165.13241055 155.91950596 -165.13241055 155.91950596 -160.5090332 149.29052734 C-155.76054691 144.77946536 -151.94730806 143.06812366 -145.4309082 142.87646484 C-144.27075195 142.83779297 -143.1105957 142.79912109 -141.9152832 142.75927734 C-140.10543945 142.71287109 -140.10543945 142.71287109 -138.2590332 142.66552734 C-137.03700195 142.62685547 -135.8149707 142.58818359 -134.5559082 142.54833984 C-131.5404338 142.45410627 -128.52496492 142.36849279 -125.5090332 142.29052734 C-124.27546005 139.38390385 -123.07678446 136.46411314 -121.8840332 133.54052734 C-121.5334082 132.71552734 -121.1827832 131.89052734 -120.8215332 131.04052734 C-120.33813477 129.84169922 -120.33813477 129.84169922 -119.8449707 128.61865234 C-119.38936768 127.5189209 -119.38936768 127.5189209 -118.92456055 126.39697266 C-118.38058088 123.6393601 -118.98325093 122.60838238 -120.5090332 120.29052734 C-122.43663196 118.32358983 -124.38150859 116.42664698 -126.3840332 114.54052734 C-133.6236497 107.45200409 -136.91679536 102.48753591 -137.0402832 92.09912109 C-135.8551466 85.83358273 -131.85776461 81.26299306 -127.46850586 76.86181641 C-126.98012741 76.368181 -126.49174896 75.87454559 -125.98857117 75.36595154 C-124.39081467 73.75511577 -122.78248511 72.1553592 -121.1730957 70.55615234 C-120.0493157 69.43034846 -118.9259811 68.30409982 -117.80307007 67.1774292 C-115.45599319 64.82594559 -113.10361769 62.47993248 -110.74731445 60.13769531 C-107.735564 57.14305534 -104.7375108 54.1351198 -101.74329567 51.12295914 C-99.42895352 48.79775139 -97.10748255 46.47976695 -94.78382492 44.16387177 C-93.6756948 43.05773494 -92.56976686 41.9493872 -91.46614456 40.83875275 C-89.92071295 39.28565875 -88.36591182 37.74257605 -86.80834961 36.20166016 C-85.92772858 35.3234259 -85.04710754 34.44519165 -84.13980103 33.54034424 C-79.75263388 29.78846516 -75.7958334 27.86564114 -70.0090332 27.91552734 C-69.1118457 27.90779297 -68.2146582 27.90005859 -67.2902832 27.89208984 C-59.6549712 28.98591263 -55.24521276 34.18661632 -50.1340332 39.47802734 C-49.02995117 40.60241211 -49.02995117 40.60241211 -47.90356445 41.74951172 C-46.09847662 43.5897636 -44.30280102 45.43923966 -42.5090332 47.29052734 C-35.9090332 44.65052734 -29.3090332 42.01052734 -22.5090332 39.29052734 C-22.48325195 37.49486328 -22.4574707 35.69919922 -22.4309082 33.84912109 C-22.37461441 31.4753993 -22.31726736 29.10170233 -22.2590332 26.72802734 C-22.24485352 25.54660156 -22.23067383 24.36517578 -22.21606445 23.14794922 C-21.98542938 14.91427721 -21.22509436 9.81602126 -15.0715332 3.97802734 C-10.09974348 0.70392192 -5.87774718 -0.00772693 0 0 Z M-7.4193573 16.12237549 C-8.96362753 19.19504357 -8.86085508 21.71101623 -8.8449707 25.13818359 C-8.85747623 26.47868329 -8.87051303 27.81917812 -8.8840332 29.15966797 C-8.88797179 31.26213662 -8.88395626 33.36412888 -8.86938477 35.46655273 C-8.86082453 37.5036521 -8.88246388 39.53875981 -8.9074707 41.57568359 C-8.90239502 43.39918335 -8.90239502 43.39918335 -8.8972168 45.25952148 C-9.5090332 48.29052734 -9.5090332 48.29052734 -11.81933594 50.12084961 C-15.23338698 51.60552952 -18.68861381 52.9243656 -22.1965332 54.16552734 C-27.81978897 56.1953293 -33.09739941 58.42247762 -38.2980957 61.40771484 C-41.26178477 62.59109599 -43.34197929 62.6797513 -46.5090332 62.29052734 C-48.89575195 60.70849609 -48.89575195 60.70849609 -51.1965332 58.47802734 C-52.47657227 57.26373047 -52.47657227 57.26373047 -53.7824707 56.02490234 C-55.6864914 54.115426 -57.56399423 52.19552335 -59.4230957 50.24365234 C-59.90689697 49.74196533 -60.39069824 49.24027832 -60.88916016 48.72338867 C-62.26265675 47.28949288 -63.61489402 45.83532419 -64.96606445 44.38037109 C-67.27425983 42.13461944 -67.27425983 42.13461944 -69.84562683 41.8789978 C-73.58683249 42.45706079 -74.99310867 44.1330782 -77.66650391 46.78515625 C-78.15491257 47.26319702 -78.64332123 47.74123779 -79.14653015 48.23376465 C-80.75555414 49.8157106 -82.34551625 51.41534474 -83.93481445 53.01708984 C-85.04802307 54.12438989 -86.16189909 55.23101934 -87.27641296 56.33700562 C-89.60883169 58.65754201 -91.93171357 60.98713698 -94.24853516 63.32324219 C-97.2171758 66.31476155 -100.20992277 69.28074822 -103.21052265 72.24016762 C-105.51604866 74.52010629 -107.80731459 76.81396424 -110.09462547 79.11216354 C-111.19249314 80.21151745 -112.29495912 81.30629921 -113.40206337 82.39635086 C-114.94910276 83.92340595 -116.47568629 85.46840124 -117.99853516 87.01953125 C-118.87169876 87.89445221 -119.74486237 88.76937317 -120.64448547 89.67080688 C-122.89898153 92.8384112 -123.036645 94.48122966 -122.5090332 98.29052734 C-120.81353239 100.71280992 -120.81353239 100.71280992 -118.38793945 102.78662109 C-117.10886719 103.99608398 -117.10886719 103.99608398 -115.80395508 105.22998047 C-113.98641359 106.89162132 -112.16870599 108.55308049 -110.35083008 110.21435547 C-103.85455106 116.35762914 -103.85455106 116.35762914 -102.1809082 120.87646484 C-102.61054926 125.34677774 -104.10985779 128.54696821 -106.1965332 132.47802734 C-109.26301029 138.56641449 -111.78859814 144.50661946 -113.7199707 151.06787109 C-114.5090332 153.29052734 -114.5090332 153.29052734 -116.5090332 155.29052734 C-119.42651367 155.56176758 -119.42651367 155.56176758 -123.1262207 155.59912109 C-124.46867288 155.62428548 -125.81112069 155.64968344 -127.15356445 155.67529297 C-129.26894968 155.70401194 -131.38425899 155.72802935 -133.49975586 155.74682617 C-135.542315 155.76852508 -137.58397427 155.80796992 -139.6262207 155.84912109 C-140.84937988 155.86257568 -142.07253906 155.87603027 -143.33276367 155.88989258 C-146.88207367 156.33758033 -148.05582343 156.73262208 -150.5090332 159.29052734 C-151.11989307 162.5155329 -151.11989307 162.5155329 -151.02661133 166.28466797 C-151.03362061 166.99229782 -151.04062988 167.69992767 -151.04785156 168.42900085 C-151.06546048 170.7686586 -151.05379978 173.10710726 -151.0402832 175.44677734 C-151.04297732 177.07198316 -151.04685906 178.6971874 -151.05187988 180.3223877 C-151.05777881 183.72875309 -151.04919968 187.13469898 -151.03051758 190.54101562 C-151.00772732 194.90952189 -151.02084836 199.27704525 -151.04480743 203.64551544 C-151.05925504 207.00156066 -151.0546643 210.35737247 -151.04429626 213.71342468 C-151.04162608 215.3241945 -151.044909 216.93498544 -151.05421448 218.54573059 C-151.06436363 220.79652101 -151.04890488 223.04571534 -151.02661133 225.29638672 C-151.02342896 226.57751343 -151.02024658 227.85864014 -151.01696777 229.17858887 C-150.80139008 232.34732088 -150.80139008 232.34732088 -148.67420959 234.20559692 C-145.60314646 235.74445067 -143.0846987 235.64233139 -139.66137695 235.62646484 C-138.32087726 235.63897037 -136.98038243 235.65200717 -135.63989258 235.66552734 C-133.53742393 235.66946593 -131.43543167 235.6654504 -129.33300781 235.65087891 C-127.29590845 235.64231867 -125.26080074 235.66395802 -123.22387695 235.68896484 C-121.4003772 235.68388916 -121.4003772 235.68388916 -119.54003906 235.67871094 C-116.5090332 236.29052734 -116.5090332 236.29052734 -114.67871094 238.60083008 C-113.19404255 242.01485462 -111.87469306 245.46994036 -110.6340332 248.97802734 C-108.60966378 254.60796457 -106.38418502 259.83194099 -103.29418945 264.98193359 C-102.11370773 268.45290225 -102.02875223 270.97516725 -103.5090332 274.29052734 C-106.41676022 277.7777518 -109.72360161 280.79350335 -113.0715332 283.85302734 C-114.85717805 285.48550751 -116.62999568 287.13216023 -118.38793945 288.79443359 C-119.57238647 289.87446655 -119.57238647 289.87446655 -120.78076172 290.97631836 C-123.06358868 294.03309428 -122.96924301 295.53164301 -122.5090332 299.29052734 C-120.66105675 302.03953 -120.66105675 302.03953 -117.99853516 304.56152344 C-117.51888809 305.05007813 -117.03924103 305.53863281 -116.5450592 306.04199219 C-114.96038911 307.64791966 -113.35496943 309.23107239 -111.74731445 310.81396484 C-110.63732915 311.92545279 -109.52830807 313.03790442 -108.42021179 314.15127563 C-106.09673915 316.47907789 -103.7630363 318.79595617 -101.42138672 321.10546875 C-98.42086116 324.0661909 -95.4455531 327.05083141 -92.47726154 330.04382896 C-90.19163674 332.34363613 -87.89402989 334.63115778 -85.59251976 336.91505814 C-84.49058161 338.01114753 -83.39220217 339.1108267 -82.29747963 340.21412277 C-80.76566594 341.75392847 -79.21868715 343.27666479 -77.66650391 344.79589844 C-76.78936234 345.66604584 -75.91222076 346.53619324 -75.00849915 347.43270874 C-72.66088657 349.48909342 -72.66088657 349.48909342 -69.82543945 349.65983582 C-62.56804003 348.50277665 -55.73027594 339.03521393 -51.20825195 333.68847656 C-47.9686018 329.11665992 -47.93725738 325.68648177 -48.6965332 320.13427734 C-49.0987207 318.23162109 -49.0987207 318.23162109 -49.5090332 316.29052734 C-49.70837955 314.82333825 -49.89542042 313.35443621 -50.0715332 311.88427734 C-52.63987654 291.9753643 -60.47289485 275.7981626 -72.42578125 259.90698242 C-91.49243721 234.32181161 -96.23602282 203.31036379 -91.73974609 172.03222656 C-86.02643544 140.04239242 -68.4952812 111.72257591 -42.5090332 92.29052734 C-27.80621367 82.08703415 -11.91628899 75.2582953 5.4909668 71.29052734 C6.54026367 71.04431641 7.58956055 70.79810547 8.6706543 70.54443359 C39.71176829 64.5749886 73.33387892 72.14689723 99.7409668 89.10302734 C128.64083656 109.37252504 147.53166121 138.30426662 153.66650391 173.16601562 C158.48030787 205.94974374 152.33200868 234.82154813 133.05395508 261.43823242 C121.35760762 277.63809385 113.5609893 294.16286171 111.4909668 314.29052734 C111.32516113 315.31388184 111.32516113 315.31388184 111.15600586 316.35791016 C110.15124781 322.74225099 109.40233197 328.94370391 112.95727539 334.64013672 C117.67086954 340.5318197 123.30782276 347.20725388 130.79589844 349.14637756 C134.51200009 349.64260427 134.51200009 349.64260427 137.23094177 347.54623413 C138.10364212 346.67084991 138.97634247 345.7954657 139.87548828 344.89355469 C140.364189 344.41405365 140.85288971 343.93455261 141.35639954 343.44052124 C142.96193472 341.8548574 144.53680818 340.24217302 146.11206055 338.62646484 C147.22168047 337.51461467 148.33271019 336.40416983 149.44508362 335.29507446 C151.76996645 332.96844957 154.0805562 330.62876659 156.38134766 328.27832031 C159.33079827 325.26646631 162.30817477 322.28422221 165.29608059 319.31056786 C167.59202567 317.02103414 169.87519733 314.71910761 172.15443611 312.41295242 C173.24800361 311.30850782 174.34489141 310.20734062 175.44512749 309.10953903 C176.98027415 307.57296498 178.49809599 306.02113705 180.01220703 304.46386719 C180.87933823 303.58370941 181.74646942 302.70355164 182.63987732 301.79672241 C184.68682561 299.4407544 184.68682561 299.4407544 184.87217712 296.60296631 C184.34254258 293.39017935 182.96055951 292.20440223 180.6237793 289.97021484 C179.41915039 288.79652344 179.41915039 288.79652344 178.19018555 287.59912109 C177.34069336 286.79603516 176.49120117 285.99294922 175.6159668 285.16552734 C173.94997026 283.56076192 172.28582334 281.95407348 170.6237793 280.34521484 C169.88015137 279.63864746 169.13652344 278.93208008 168.37036133 278.20410156 C166.02564048 275.81673835 164.60814145 274.06388006 164.1003418 270.71240234 C164.65671233 265.83859648 166.63626285 261.93467415 168.7409668 257.54052734 C169.53997637 255.83840272 170.33685513 254.13527621 171.1315918 252.43115234 C171.72037109 251.17334961 171.72037109 251.17334961 172.32104492 249.89013672 C173.90109874 246.37919911 175.30400489 242.80839264 176.68530273 239.21533203 C177.4909668 237.29052734 177.4909668 237.29052734 178.4909668 236.29052734 C180.58853685 236.15627833 182.69031519 236.086894 184.79174805 236.04443359 C186.72244141 235.99512695 186.72244141 235.99512695 188.69213867 235.94482422 C190.74604561 235.89749239 192.79992847 235.85309517 194.85400391 235.8137207 C196.83343531 235.77387919 198.81260845 235.72180224 200.79174805 235.66943359 C201.97937744 235.64437744 203.16700684 235.61932129 204.390625 235.59350586 C207.33770463 235.30550477 209.05201523 234.92458505 211.4909668 233.29052734 C212.94059974 230.39126145 212.64235396 227.84836855 212.66796875 224.609375 C212.67453995 223.92300461 212.68111115 223.23663422 212.68788147 222.52946472 C212.70761778 220.25450536 212.719277 217.97961198 212.72924805 215.70458984 C212.73332357 214.92810467 212.7373991 214.15161949 212.74159813 213.35160446 C212.76245913 209.24270645 212.77676135 205.13384186 212.78613281 201.02490234 C212.7972045 196.77875885 212.83161247 192.53313838 212.87130451 188.28717995 C212.89743392 185.02380389 212.90582128 181.76055323 212.90941429 178.49708176 C212.91428891 176.93176105 212.92592783 175.36644626 212.94445229 173.80122757 C212.9687698 171.61055122 212.96789334 169.42123839 212.9609375 167.23046875 C212.96680374 165.98407623 212.97266998 164.73768372 212.97871399 163.45352173 C212.40004538 159.70091055 211.51765684 158.51768743 208.4909668 156.29052734 C205.25500909 155.729463 205.25500909 155.729463 201.64331055 155.85693359 C200.30281457 155.84733227 198.96231979 155.83756155 197.62182617 155.82763672 C195.51939694 155.83625222 193.41727114 155.85314503 191.31494141 155.87524414 C189.27795522 155.88974819 187.24273356 155.87453273 185.20581055 155.85693359 C183.99014404 155.86668213 182.77447754 155.87643066 181.52197266 155.88647461 C178.4909668 155.29052734 178.4909668 155.29052734 176.69238281 153.04589844 C176.29591553 152.13662598 175.89944824 151.22735352 175.4909668 150.29052734 C175.15194336 149.52877197 174.81291992 148.7670166 174.46362305 147.98217773 C174.16327148 147.20865967 173.86291992 146.4351416 173.5534668 145.63818359 C173.21573242 144.77902344 172.87799805 143.91986328 172.5300293 143.03466797 C172.01569336 141.70725586 172.01569336 141.70725586 171.4909668 140.35302734 C170.80598416 138.59293099 170.11854014 136.83379029 169.4284668 135.07568359 C169.10233398 134.24439941 168.77620117 133.41311523 168.44018555 132.55664062 C167.44701621 130.08320004 167.44701621 130.08320004 165.7409668 127.03662109 C164.26190021 123.78729668 163.97571264 121.82167283 164.4909668 118.29052734 C166.07299805 115.90380859 166.07299805 115.90380859 168.3034668 113.60302734 C169.11299805 112.74966797 169.9225293 111.89630859 170.7565918 111.01708984 C172.66606815 109.11306914 174.58597079 107.23556631 176.5378418 105.37646484 C177.03952881 104.89266357 177.54121582 104.4088623 178.05810547 103.91040039 C179.49200126 102.5369038 180.94616995 101.18466652 182.40112305 99.83349609 C184.6469365 97.52548089 184.6469365 97.52548089 184.90150452 94.95492554 C184.32537288 91.21581942 182.65369522 89.79835776 180.01220703 87.1171875 C179.29755531 86.38216507 179.29755531 86.38216507 178.56846619 85.6322937 C176.99163868 84.01820286 175.39688601 82.42338092 173.79956055 80.82958984 C172.69479972 79.71384057 171.59056398 78.59757116 170.48683167 77.48080444 C168.17081766 75.14388434 165.84522674 72.81701371 163.51318359 70.49609375 C160.52709769 67.52170204 157.57168814 64.51876434 154.62345791 61.50690651 C152.35101341 59.19386433 150.06041083 56.89949412 147.76420784 54.61005783 C146.66668161 53.51032566 145.57548722 52.40423618 144.49087334 51.29176712 C142.97080633 49.73718589 141.42740269 48.21019998 139.87548828 46.6875 C138.56643776 45.37442368 138.56643776 45.37442368 137.23094177 44.03482056 C134.51292209 41.94306777 134.51292209 41.94306777 130.8004303 42.40634155 C127.05949223 43.40580394 125.68973616 44.45050597 123.1159668 47.29052734 C122.35799805 48.09490234 121.6000293 48.89927734 120.8190918 49.72802734 C120.05081055 50.57365234 119.2825293 51.41927734 118.4909668 52.29052734 C110.69370586 60.87274743 110.69370586 60.87274743 105.86987305 62.54833984 C101.86808565 62.24300115 98.90643929 61.03004105 95.4284668 59.16552734 C89.15322621 56.0013741 82.88932946 53.54105871 76.22143555 51.33349609 C73.4909668 50.29052734 73.4909668 50.29052734 71.4909668 48.29052734 C71.20385742 45.46484375 71.20385742 45.46484375 71.1472168 41.89208984 C71.11756836 40.60818359 71.08791992 39.32427734 71.05737305 38.00146484 C71.03413921 36.63950397 71.01201524 35.27752374 70.9909668 33.91552734 C70.94973318 31.26135099 70.89587901 28.60849824 70.8347168 25.95458984 C70.81602539 24.7733252 70.79733398 23.59206055 70.77807617 22.375 C70.50372744 19.4276174 70.12528234 17.72826084 68.4909668 15.29052734 C65.56601074 13.82804932 62.96848812 14.13893229 59.70214844 14.11352539 C59.00441818 14.10695419 58.30668793 14.100383 57.58781433 14.09361267 C55.27558286 14.07387794 52.96341625 14.06221848 50.65112305 14.05224609 C49.46797421 14.0461328 49.46797421 14.0461328 48.26092339 14.03989601 C44.0883396 14.01903728 39.91578871 14.00473317 35.74316406 13.99536133 C31.42742415 13.98428047 27.11219753 13.94986131 22.79663944 13.91018963 C19.48269165 13.88408722 16.16886754 13.87567535 12.85482597 13.87207985 C11.26355957 13.86719948 9.67229921 13.85554437 8.08113289 13.83704185 C5.85672993 13.8127781 3.63367354 13.81359074 1.40917969 13.82055664 C0.14280167 13.8146904 -1.12357635 13.80882416 -2.42832947 13.80278015 C-5.56951 13.9997082 -5.56951 13.9997082 -7.4193573 16.12237549 Z M-40.5090332 108.29052734 C-41.71172852 109.28246094 -41.71172852 109.28246094 -42.9387207 110.29443359 C-58.20617969 123.20756479 -69.56482706 141.25595548 -75.5090332 160.29052734 C-75.9009082 161.50611328 -76.2927832 162.72169922 -76.6965332 163.97412109 C-82.26082283 183.34670289 -82.11657847 208.27742524 -75.5090332 227.29052734 C-75.18161133 228.31791016 -74.85418945 229.34529297 -74.5168457 230.40380859 C-71.16022259 239.65289783 -65.2196981 247.37983467 -59.5090332 255.29052734 C-43.58850031 277.64573482 -37.52936196 298.38476183 -36.27978516 325.68334961 C-35.84744731 333.96778297 -34.90100404 340.50342369 -29.1418457 346.93505859 C-24.17166237 351.06102418 -18.64735866 352.38657174 -12.32226562 352.33203125 C-10.97052498 352.32304306 -10.97052498 352.32304306 -9.59147644 352.31387329 C-8.90427017 352.30616913 -8.2170639 352.29846497 -7.5090332 352.29052734 C-7.01871367 343.31155427 -6.64760271 334.33728552 -6.42097759 325.34777069 C-6.31208929 321.17099738 -6.16507828 317.00347354 -5.92480469 312.83203125 C-4.26016545 294.79938959 -4.26016545 294.79938959 -9.58966064 278.19140625 C-14.47058515 273.18760193 -20.01266084 269.60438787 -26.2615509 266.52062988 C-28.56444921 265.2601968 -29.99616443 264.4372262 -31.5090332 262.29052734 C-31.86065674 259.5269928 -31.86065674 259.5269928 -31.83032227 256.13842773 C-31.82752258 254.87023697 -31.8247229 253.6020462 -31.82183838 252.29542542 C-31.81379433 251.61814455 -31.80575027 250.94086369 -31.79746246 250.24305916 C-31.77446225 248.12009707 -31.77333799 245.99817544 -31.77874756 243.87510681 C-31.79142438 237.84022157 -31.77438968 231.80588796 -31.71850586 225.77124023 C-31.68584871 222.07804131 -31.68708955 218.38612511 -31.70952606 214.69286919 C-31.71127433 213.28663155 -31.7000021 211.88031475 -31.67542267 210.47429085 C-31.15476773 203.03748313 -31.15476773 203.03748313 -34.03723145 196.62838745 C-36.13212999 195.40095052 -36.13212999 195.40095052 -39.5090332 194.29052734 C-44.53998886 187.80324242 -45.18448343 182.29289528 -44.5090332 174.29052734 C-43.0715332 170.79052734 -43.0715332 170.79052734 -41.5090332 168.29052734 C-41.0140332 166.80552734 -41.0140332 166.80552734 -40.5090332 165.29052734 C-38.7590332 164.22802734 -38.7590332 164.22802734 -36.5090332 163.29052734 C-35.3662793 162.778125 -35.3662793 162.778125 -34.20043945 162.25537109 C-28.31331808 160.14489362 -21.75870634 160.34744351 -16.0715332 162.97802734 C-11.82773742 165.49479785 -9.28922032 167.89174307 -7.72387695 172.70458984 C-6.14732928 179.40727757 -6.21307483 185.12945482 -9.5090332 191.29052734 C-12.13177237 194.26377082 -14.96540619 196.51871384 -18.5090332 198.29052734 C-18.92958817 205.60864992 -19.24755266 212.92410477 -19.4416523 220.25193977 C-19.53492815 223.65705176 -19.66079612 227.05380706 -19.86694336 230.45410156 C-21.23409587 245.25332994 -21.23409587 245.25332994 -16.76477051 258.89147949 C-12.64827771 263.16520186 -7.95814157 266.29229751 -2.71115112 269.02536011 C0.06380915 270.61963841 2.24121398 271.98258304 4.4909668 274.29052734 C4.99991768 277.03115735 5.18345245 279.16430174 5.15039062 281.90478516 C5.16087433 282.66614777 5.17135803 283.42751038 5.18215942 284.21194458 C5.21090994 286.72292839 5.20461843 289.23253342 5.19799805 291.74365234 C5.21111318 293.48673226 5.22641684 295.22979698 5.24382019 296.97283936 C5.28370507 301.55631511 5.29386285 306.13939363 5.29785156 310.72302246 C5.30717647 315.40189694 5.34458594 320.08053738 5.37963867 324.75927734 C5.44425032 333.93640475 5.47486509 343.11318646 5.4909668 352.29052734 C11.1009668 352.29052734 16.7109668 352.29052734 22.4909668 352.29052734 C22.67628118 337.26987216 22.81898456 322.24939023 22.90546417 307.2278347 C22.94668877 300.25273055 23.00287388 293.27835034 23.09448242 286.30371094 C23.18284035 279.57334056 23.22923399 272.84387771 23.24998474 266.11290359 C23.26477301 263.54436017 23.29365167 260.97585817 23.33680725 258.40763474 C23.39484506 254.81088914 23.40288118 251.21725528 23.39916992 247.62011719 C23.42793213 246.55700317 23.45669434 245.49388916 23.48632812 244.39855957 C23.50506504 238.91362051 23.50506504 238.91362051 20.75437927 234.40001297 C18.67311157 232.8125235 18.67311157 232.8125235 16.50200653 231.59534645 C13.15941559 229.42657949 11.73734497 227.02966186 10.4909668 223.29052734 C9.99164498 216.63610394 9.78390782 211.07353935 13.4909668 205.29052734 C13.9859668 203.80552734 13.9859668 203.80552734 14.4909668 202.29052734 C16.1784668 201.22802734 16.1784668 201.22802734 18.4909668 200.29052734 C19.3778418 199.91927734 20.2647168 199.54802734 21.1784668 199.16552734 C27.92470184 197.38350299 33.54191878 197.568754 39.69799805 201.00927734 C43.12172484 203.45586207 45.60308071 206.51475517 47.4909668 210.29052734 C48.14750784 217.98604938 48.37158567 224.09082229 43.4909668 230.29052734 C40.93791502 232.59450089 38.35115273 234.38373672 35.4909668 236.29052734 C35.04457182 238.42414267 35.04457182 238.42414267 35.13020325 240.93484497 C35.12607925 241.91363617 35.12195526 242.89242737 35.1177063 243.90087891 C35.12849213 244.97837402 35.13927795 246.05586914 35.15039062 247.16601562 C35.14995255 248.29772186 35.14951447 249.4294281 35.14906311 250.59542847 C35.15115966 254.35073873 35.17453207 258.1056072 35.19799805 261.86083984 C35.2035909 264.45872758 35.20786246 267.05661847 35.21086121 269.6545105 C35.22116054 275.80274002 35.24482482 281.95078615 35.27490968 288.09894645 C35.3084147 295.09762795 35.32492985 302.09631698 35.33999598 309.09505868 C35.37137346 323.49363639 35.4247609 337.89207048 35.4909668 352.29052734 C41.1009668 352.29052734 46.7109668 352.29052734 52.4909668 352.29052734 C52.44999878 348.81694702 52.44999878 348.81694702 52.40820312 345.27319336 C52.32575614 337.59771348 52.30422504 329.92291706 52.31218433 322.24702549 C52.31515571 317.59546346 52.29800391 312.94583718 52.23388672 308.29467773 C52.17268996 303.80048908 52.16562998 299.30909509 52.19513512 294.81461906 C52.19702974 293.10545114 52.17984799 291.39614594 52.14274025 289.68737984 C51.87263074 276.39688415 51.87263074 276.39688415 55.79382324 271.29322815 C59.61571902 268.06141337 63.62775183 265.59244316 68.15063477 263.47338867 C71.89271256 261.68513637 74.54608142 259.96558257 76.4909668 256.29052734 C78.54913007 247.40067984 77.93736255 238.07909682 77.66467285 229.019104 C77.5996007 226.29218926 77.60186473 223.56708322 77.60550117 220.83952618 C77.60347667 217.57657349 77.55047319 214.31473546 77.4987793 211.05224609 C77.49210236 209.83244553 77.48542542 208.61264496 77.47854614 207.35588074 C77.3722763 204.21365113 77.22556943 201.34754904 76.4909668 198.29052734 C73.75669686 195.52484369 73.75669686 195.52484369 70.4909668 194.29052734 C66.45047307 190.13779768 64.61021905 185.96747172 64.4206543 180.12255859 C64.76390563 174.25699902 66.528369 169.66816032 70.4909668 165.29052734 C75.4666034 161.28519629 80.70158509 160.7023236 86.94799805 160.97802734 C93.2203122 161.74881864 96.4172887 164.93462915 100.29174805 169.57177734 C103.50814134 174.18159184 103.01863935 179.92585634 102.4909668 185.29052734 C100.86105394 190.64089346 98.24608193 194.24237662 93.4909668 197.29052734 C92.5009668 197.62052734 91.5109668 197.95052734 90.4909668 198.29052734 C90.1609668 220.07052734 89.8309668 241.85052734 89.4909668 264.29052734 C87.41527172 265.32837488 85.33559826 266.36072932 83.22076416 267.31629944 C76.15851186 270.68623251 69.82576408 274.63563507 65.4909668 281.29052734 C62.34592807 292.2016926 63.50437384 304.022681 64.11767578 315.23339844 C64.32434702 319.41511467 64.41403611 323.59929031 64.5144043 327.78466797 C64.72730818 335.96000118 65.06731985 344.12341148 65.4909668 352.29052734 C67.72914294 352.32441913 69.96746775 352.34858652 72.20581055 352.36865234 C73.45225342 352.3831543 74.69869629 352.39765625 75.98291016 352.41259766 C82.48085711 352.18648773 87.95073516 350.07617691 92.4909668 345.29052734 C97.75755475 338.50214911 97.95994984 331.53846295 98.18823242 323.31103516 C98.92353055 297.69815041 105.78810083 276.56946812 120.93237305 255.83740234 C138.97007534 231.03813068 144.44849618 206.14468297 141.06518555 175.56396484 C137.59729406 154.67151429 128.15422042 136.27008362 114.4909668 120.29052734 C113.77553711 119.3759375 113.77553711 119.3759375 113.0456543 118.44287109 C96.95907947 98.2657101 69.10223096 85.82556342 43.97924805 82.57177734 C13.64277115 80.1258352 -17.48683297 87.45502355 -40.5090332 108.29052734 Z M-30.3840332 175.41552734 C-32.05566946 178.20158777 -31.97279945 180.11041596 -31.5090332 183.29052734 C-29.93207688 185.36908815 -29.93207688 185.36908815 -27.5090332 186.29052734 C-24.30964624 186.21249352 -22.97773776 185.72798493 -20.6340332 183.54052734 C-19.28300753 181.31641575 -19.28300753 181.31641575 -19.6965332 178.66552734 C-20.36579871 176.14032369 -20.36579871 176.14032369 -22.5090332 174.29052734 C-25.61250575 173.96037069 -27.66684497 173.7852144 -30.3840332 175.41552734 Z M78.5534668 175.97802734 C77.30226432 178.25469808 77.30226432 178.25469808 77.5534668 180.85302734 C78.70644257 183.85076435 79.6222189 184.85615339 82.4909668 186.29052734 C85.8613299 186.04978712 87.078947 185.70254714 89.4909668 183.29052734 C89.82112345 180.1870548 89.99627974 178.13271558 88.3659668 175.41552734 C84.85552242 173.30926072 81.66111932 173.27136225 78.5534668 175.97802734 Z M24.6159668 212.47802734 C22.93102964 215.18414808 22.93102964 215.18414808 22.4909668 218.29052734 C24.00687979 221.14382047 24.00687979 221.14382047 26.4909668 223.29052734 C28.9909668 224.12386068 28.9909668 224.12386068 31.4909668 223.29052734 C34.08218584 221.28069165 34.08218584 221.28069165 35.4909668 218.29052734 C34.87060361 215.00948262 34.87060361 215.00948262 33.4909668 212.29052734 C28.8846287 211.09156003 28.8846287 211.09156003 24.6159668 212.47802734 Z M-19.5090332 365.29052734 C-20.52307346 376.18300525 -20.52307346 376.18300525 -17.6340332 380.47802734 C-13.68775937 383.84396679 -10.16822711 383.45745402 -5.19140625 383.48339844 C-4.33107788 383.49157593 -3.47074951 383.49975342 -2.58435059 383.50817871 C0.27017516 383.53304444 3.12465116 383.54955134 5.97924805 383.56396484 C6.95307119 383.56928852 7.92689434 383.5746122 8.93022728 383.5800972 C14.08417347 383.60683335 19.23809538 383.62620714 24.39208984 383.640625 C29.71882956 383.65727804 35.0449512 383.70206006 40.3714571 383.75299644 C44.46439841 383.78663153 48.55719231 383.79819831 52.65025902 383.80385208 C54.61389072 383.81057443 56.5775124 383.82582195 58.5410099 383.84974289 C61.28957302 383.88131864 64.03645981 383.88144284 66.78515625 383.87402344 C67.59625351 383.89042877 68.40735077 383.90683411 69.24302673 383.92373657 C73.51254513 383.87656084 75.02652827 383.66615584 78.47257996 380.87905884 C83.03082573 375.03322071 81.4909668 375.15913712 81.4909668 365.29052734 C48.1609668 365.29052734 14.8309668 365.29052734 -19.5090332 365.29052734 Z M-0.5090332 397.29052734 C-1.43353353 406.61737554 -1.43353353 406.61737554 1.8659668 410.85302734 C5.23527128 413.98166722 6.6643459 414.41580829 11.12084961 414.48339844 C12.08234924 414.49946136 13.04384888 414.51552429 14.03448486 414.53207397 C18.43875448 414.5765276 22.84287288 414.61759768 27.24731445 414.640625 C29.56935657 414.65717624 31.89134791 414.684455 34.21313477 414.72265625 C37.56122266 414.77746481 40.90811548 414.7993069 44.2565918 414.81396484 C45.80845184 414.8479689 45.80845184 414.8479689 47.3916626 414.88265991 C53.70939624 414.87284091 53.70939624 414.87284091 59.13061523 411.9453125 C63.60052999 406.91781425 62.4909668 404.79063004 62.4909668 397.29052734 C41.7009668 397.29052734 20.9109668 397.29052734 -0.5090332 397.29052734 Z " fill="#000000" transform="translate(223.509033203125,64.70947265625)"/>
<path d="M0 0 C7.05181803 0.84864454 13.88002412 2.05047655 20.75927734 3.82446289 C21.79383057 4.08984863 22.82838379 4.35523438 23.89428711 4.62866211 C56.69180435 13.30837376 87.32384416 28.50439002 113.38427734 50.26196289 C113.95984375 50.73601562 114.53541016 51.21006836 115.12841797 51.69848633 C127.77438228 62.13454397 139.29733701 73.30342512 149.38427734 86.26196289 C150.17189453 87.23262695 150.95951172 88.20329102 151.77099609 89.20336914 C177.32368148 121.25453967 192.61455917 160.07522341 199.38427734 200.26196289 C199.50287109 200.93565918 199.62146484 201.60935547 199.74365234 202.3034668 C206.42599149 241.95002359 202.03078553 292.35184559 183.38427734 328.26196289 C184.45355469 327.82883789 184.45355469 327.82883789 185.54443359 327.38696289 C195.73276617 323.43778418 195.73276617 323.43778418 201.38427734 324.26196289 C203.32177734 325.32446289 203.32177734 325.32446289 204.38427734 327.26196289 C204.82177734 330.69946289 204.82177734 330.69946289 204.38427734 334.26196289 C201.47152951 337.93838183 198.44112388 339.28172118 194.07958984 340.84008789 C192.24460937 341.49750977 192.24460937 341.49750977 190.37255859 342.16821289 C189.73785645 342.38864258 189.1031543 342.60907227 188.44921875 342.83618164 C186.51668335 343.509383 184.59310035 344.20450284 182.66943359 344.90258789 C171.3067498 348.91716387 171.3067498 348.91716387 166.38427734 348.26196289 C162.61610086 345.5247575 161.35307717 342.29720402 159.80615234 337.99243164 C159.36787109 336.77362305 158.92958984 335.55481445 158.47802734 334.29907227 C158.25759766 333.66638428 158.03716797 333.03369629 157.81005859 332.38183594 C157.13790139 330.45982573 156.44225029 328.54754465 155.74365234 326.63500977 C153.60703979 320.60353059 151.99168949 315.73522369 152.38427734 309.26196289 C153.44677734 307.32446289 153.44677734 307.32446289 155.38427734 306.26196289 C161.49156935 305.60761018 161.49156935 305.60761018 163.93505859 307.39868164 C165.88264 309.90271488 166.90086284 312.50635345 168.07177734 315.44946289 C168.50876953 316.53614258 168.94576172 317.62282227 169.39599609 318.74243164 C169.72212891 319.57387695 170.04826172 320.40532227 170.38427734 321.26196289 C176.17160676 306.89637301 180.27700789 292.43260466 183.38427734 277.26196289 C183.65546387 275.9594458 183.65546387 275.9594458 183.93212891 274.63061523 C188.95584588 249.24736139 188.73195721 219.55893909 183.38427734 194.26196289 C183.18560059 193.31434082 182.98692383 192.36671875 182.78222656 191.39038086 C171.53242232 139.48959859 143.10832697 90.52804319 100.11962891 58.55297852 C98.9890607 57.71189176 97.86313438 56.86451775 96.74267578 56.01000977 C70.02041527 35.63327698 37.67393856 21.01112738 4.40869141 15.76635742 C-0.73030004 14.85711596 -3.37461174 13.35897883 -6.61572266 9.26196289 C-7.17822266 6.69946289 -7.17822266 6.69946289 -6.61572266 4.26196289 C-4.50798371 1.56894402 -3.46366334 0.34688359 0 0 Z " fill="#000000" transform="translate(291.61572265625,21.738037109375)"/>
<path d="M0 0 C2.375 1.625 2.375 1.625 4 4 C4.390625 6.85546875 4.390625 6.85546875 4 10 C2.0234375 12.44921875 2.0234375 12.44921875 -0.625 14.6875 C-1.48351562 15.43386719 -2.34203125 16.18023437 -3.2265625 16.94921875 C-6.06805127 19.0503196 -8.73667684 20.64398697 -12 22 C-15.25 21.375 -15.25 21.375 -18 20 C-20 17 -20 17 -20.01171875 13.65234375 C-18.74819703 9.09098156 -16.5135802 7.21079223 -12.8125 4.5625 C-12.24724609 4.11712891 -11.68199219 3.67175781 -11.09960938 3.21289062 C-7.31520572 0.39084391 -4.6967947 -0.66712005 0 0 Z " fill="#000000" transform="translate(120,64)"/>
<path d="M0 0 C3.5625 0.3125 3.5625 0.3125 5.4375 1.5 C6.9291649 3.9032379 7.33098855 5.46765597 7.5625 8.3125 C6.60764135 10.85686656 5.63462295 13.05849045 4.375 15.4375 C3.91770508 16.36755859 3.91770508 16.36755859 3.45117188 17.31640625 C1.64552963 20.83684081 0.02580237 23.33044712 -3.4375 25.3125 C-5.9375 25.75 -5.9375 25.75 -8.4375 25.3125 C-10.75 23.6875 -10.75 23.6875 -12.4375 21.3125 C-13.03920585 16.12742984 -11.59143636 13.04233012 -9.0625 8.5625 C-8.43601562 7.43328125 -7.80953125 6.3040625 -7.1640625 5.140625 C-4.26228064 0.38748006 -4.26228064 0.38748006 0 0 Z " fill="#000000" transform="translate(50.4375,140.6875)"/>
<path d="M0 0 C0.80695313 -0.00708984 1.61390625 -0.01417969 2.4453125 -0.02148438 C5.98662637 0.01650001 8.36537976 0.08801334 11.50390625 1.81640625 C13.55217001 4.03580431 13.9282199 5.42273577 14 8.4375 C11.80597015 13.03451493 11.80597015 13.03451493 9 14.4375 C6.19648462 14.56229416 3.4286626 14.62267138 0.625 14.625 C-0.14328125 14.63724609 -0.9115625 14.64949219 -1.703125 14.66210938 C-8.93013267 14.68086459 -8.93013267 14.68086459 -12 12.4375 C-13.42041821 9.59666359 -13.31452272 7.58272722 -13 4.4375 C-9.61070014 -0.60556011 -5.53905248 -0.13714906 0 0 Z " fill="#000000" transform="translate(254,18.5625)"/>
<path d="M0 0 C1.9375 1 1.9375 1 3 3 C3.94241582 10.27006488 1.8331456 17.31036525 -1 24 C-4.49565336 26.33043558 -5.8865729 26.58763244 -10 26 C-12.4375 24 -12.4375 24 -14 21 C-13.89289674 14.68090778 -12.58838739 6.31225844 -8.6171875 1.23046875 C-5.86295573 -0.86514238 -3.31287767 -0.35495118 0 0 Z " fill="#000000" transform="translate(35,188)"/>
<path d="M0 0 C1.875 1.1875 1.875 1.1875 3 3 C3.50150625 6.36725622 3.53378601 8.19932099 1.625 11.0625 C-3.7263287 15.01229023 -10.21343017 18.838415 -17 19 C-19.74954328 18.03394425 -20.69007757 17.61984486 -22 15 C-22.375 11.625 -22.375 11.625 -22 8 C-17.36651153 2.5676342 -6.99345491 -2.79738196 0 0 Z " fill="#000000" transform="translate(165,39)"/>
<path d="M0 0 C2 1.6875 2 1.6875 3 4 C2.87706357 7.01194257 2.6478983 9.09652935 0.87109375 11.57421875 C-1.84281498 13.64222853 -4.48927006 14.05633326 -7.8125 14.75 C-9.01519531 15.01296875 -10.21789062 15.2759375 -11.45703125 15.546875 C-14.99903204 15.9998762 -17.56112994 15.91870543 -21 15 C-23 12.8125 -23 12.8125 -24 10 C-23.23827309 6.46835704 -22.56128588 4.56128588 -20 2 C-13.48921291 -0.06706108 -6.65971344 -2.17164569 0 0 Z " fill="#000000" transform="translate(214,24)"/>
<path d="M0 0 C3.4375 1 3.4375 1 5.25 2.875 C7.86051117 9.74476625 9.27610132 16.7988115 7.4375 24 C5.4375 26 5.4375 26 1.5 26.375 C-2.24102292 26.24646576 -2.24102292 26.24646576 -4.4375 24.5625 C-7.25023501 18.15571469 -9.03943374 9.93407874 -7.5625 3 C-4.84557853 0.30075915 -3.93382618 0 0 0 Z " fill="#000000" transform="translate(26.5625,289)"/>
<path d="M0 0 C1.6875 2 1.6875 2 3 5 C3.350625 5.68835938 3.70125 6.37671875 4.0625 7.0859375 C6.41096984 11.86442128 7.65157591 15.57020078 7 21 C5 24 5 24 2.6875 24.875 C-0.86049945 25.04002323 -2.15183633 24.09011396 -5 22 C-9.18168748 15.87713873 -12.35529113 9.45410123 -11 2 C-7.95993994 -2.01287928 -4.5186828 -1.31452591 0 0 Z " fill="#000000" transform="translate(44,339)"/>
<path d="M0 0 C3.4375 1 3.4375 1 5.1640625 2.49609375 C7.1170757 6.33622094 6.58144675 9.84743473 6.25 14.0625 C6.20552734 14.87783203 6.16105469 15.69316406 6.11523438 16.53320312 C5.71225325 22.58787012 5.71225325 22.58787012 3.4375 26 C0.09061016 27.04125462 -1.88205183 27.22249258 -5.2265625 26.12890625 C-7.96088263 23.63692553 -7.95483139 23.027255 -8.19140625 19.47265625 C-8.19539339 17.6691394 -8.17220978 15.86540326 -8.125 14.0625 C-8.13595703 13.15564453 -8.14691406 12.24878906 -8.15820312 11.31445312 C-8.08584802 4.7590802 -8.08584802 4.7590802 -5.75 1.37109375 C-3.5625 0 -3.5625 0 0 0 Z " fill="#000000" transform="translate(23.5625,238)"/>
<path d="M0 0 C3.5625 0.3125 3.5625 0.3125 5.4375 1.5625 C6.78440543 3.65768622 7.41907513 4.80256482 7.5625 7.3125 C4.78061856 13.66475794 0.81062893 18.78795031 -4.4375 23.3125 C-8.32917078 24.12849549 -9.9356826 24.13607728 -13.375 22.25 C-15.05963843 19.17801228 -14.75090554 16.76356332 -14.4375 13.3125 C-12.5390625 10.29296875 -12.5390625 10.29296875 -10.0625 7.5 C-8.84433594 6.09814453 -8.84433594 6.09814453 -7.6015625 4.66796875 C-3.6148318 0.32862107 -3.6148318 0.32862107 0 0 Z " fill="#000000" transform="translate(79.4375,98.6875)"/>
</svg>
