<?xml version="1.0" encoding="UTF-8"?>
<svg version="1.1" xmlns="http://www.w3.org/2000/svg" width="512" height="512">
<path d="M0 0 C6.2756437 5.29539018 9.23454995 9.92613372 10.36328125 18.109375 C10.44976422 20.28027828 10.48706456 22.45346399 10.48632908 24.6260891 C10.48832013 25.92689175 10.49031118 27.2276944 10.49236256 28.56791532 C10.48950984 30.00445471 10.48656425 31.44099393 10.48353577 32.87753296 C10.48397194 34.40888761 10.48484771 35.94024218 10.48612493 37.47159636 C10.48836076 41.67663212 10.48436106 45.88164241 10.47934687 50.08667493 C10.47502949 54.62239916 10.47648971 59.15812195 10.47724915 63.69384766 C10.47777356 71.5513175 10.47463534 79.40877904 10.46901131 87.2662468 C10.46088519 98.62683453 10.45827994 109.98741826 10.45702332 121.34800859 C10.45483455 139.7796968 10.4481792 158.21138059 10.4387207 176.64306641 C10.42954206 194.5480141 10.42246344 212.45296059 10.41821289 230.35791016 C10.41781881 232.01332819 10.41781881 232.01332819 10.41741676 233.70218901 C10.41611172 239.23867156 10.41484802 244.77515412 10.41360486 250.31163669 C10.4032377 296.24421919 10.38562413 342.17679687 10.36328125 388.109375 C11.30647217 388.09890137 12.24966309 388.08842773 13.22143555 388.07763672 C16.73448143 388.04346859 20.24734965 388.0184342 23.76049805 387.99951172 C25.27843011 387.98947955 26.79634298 387.97585062 28.31420898 387.95849609 C30.50118765 387.93412465 32.68790989 387.92286405 34.875 387.9140625 C36.18944092 387.90358887 37.50388184 387.89311523 38.8581543 387.88232422 C42.21579141 388.09982109 44.4018615 388.55986922 47.36328125 390.109375 C49.98625454 393.16951051 50.37081132 394.67263113 50.30078125 398.734375 C49.36328125 402.109375 49.36328125 402.109375 47.77984619 403.79671729 C44.46587154 405.59684039 41.43687971 405.52276211 37.76074219 405.48689842 C36.9874268 405.49125874 36.2141114 405.49561907 35.41736221 405.50011152 C32.81061776 405.5111118 30.20439737 405.50062371 27.59765625 405.49032593 C25.71614307 405.49378061 23.8346319 405.49854389 21.953125 405.50450766 C16.77071247 405.5170734 11.58846489 405.510822 6.40605164 405.50154901 C0.82179628 405.49478161 -4.76243004 405.50522824 -10.34667969 405.51348877 C-21.2910239 405.52685303 -32.23530651 405.52393639 -43.17965317 405.51525085 C-52.07159685 405.50848529 -60.96352323 405.50755269 -69.85546875 405.5108223 C-71.75127056 405.51151184 -71.75127056 405.51151184 -73.6853714 405.51221532 C-76.25261434 405.51317447 -78.81985728 405.5141471 -81.38710022 405.5151331 C-104.79260112 405.52345064 -128.19806244 405.51481404 -151.60355568 405.49910531 C-172.9792114 405.48486802 -194.3548135 405.48614189 -215.73046875 405.50048828 C-239.73499407 405.51654513 -263.73948587 405.52287084 -287.74401855 405.51365149 C-290.30200195 405.51269581 -292.85998535 405.5117527 -295.41796875 405.5108223 C-297.30600597 405.51012806 -297.30600597 405.51012806 -299.23218536 405.50941979 C-308.11703713 405.50682573 -317.00186992 405.51120985 -325.88671875 405.51826096 C-336.70923372 405.52666072 -347.53168338 405.52442797 -358.35419083 405.50841872 C-363.87967779 405.50051546 -369.40505575 405.49747932 -374.93054199 405.50736618 C-379.98355644 405.51627113 -385.03636027 405.5114499 -390.08935547 405.49543352 C-391.92240184 405.49206784 -393.75546582 405.49381959 -395.58850098 405.50106089 C-398.0706507 405.51011825 -400.55206886 405.50089375 -403.03417969 405.48689842 C-403.75410976 405.49392192 -404.47403984 405.50094542 -405.21578598 405.50818175 C-408.25196954 405.47371479 -410.36389456 405.2575708 -413.05328369 403.79671729 C-415.5839536 401.09998128 -415.57443457 398.7218574 -415.63671875 395.109375 C-414.38162552 391.97164191 -413.49105044 390.55638758 -410.48754883 388.98486328 C-406.92957868 387.89221269 -403.87008575 387.88440793 -400.1484375 387.9140625 C-399.09363945 387.91830734 -399.09363945 387.91830734 -398.01753235 387.92263794 C-395.78624983 387.93377349 -393.55537858 387.95886503 -391.32421875 387.984375 C-389.80534437 387.9944134 -388.28646365 388.00353774 -386.76757812 388.01171875 C-383.05715954 388.03369087 -379.34697933 388.06817453 -375.63671875 388.109375 C-375.63856234 387.18999932 -375.64040592 386.27062365 -375.64230537 385.3233881 C-375.68650115 362.9384102 -375.71958349 340.55343984 -375.74034309 318.16842747 C-375.75064948 307.34314468 -375.76469765 296.51789103 -375.78759766 285.69262695 C-375.80755102 276.25578556 -375.82043982 266.81896528 -375.82489574 257.38210338 C-375.82749981 252.38677954 -375.8336073 247.39151609 -375.84817886 242.39621162 C-375.8617935 237.69065332 -375.86593354 232.98518008 -375.86293411 228.27960396 C-375.86348254 226.55633074 -375.86743679 224.83305456 -375.8751297 223.10979843 C-375.96983161 200.79399038 -375.96983161 200.79399038 -369.51953125 192.95703125 C-358.59700728 182.23845482 -341.60958683 179.25947878 -326.88671875 178.796875 C-311.74217417 179.11739446 -294.93133742 182.33185936 -283.63671875 193.109375 C-279.31190708 198.30419252 -278.4896094 202.93970679 -278.51646423 209.53141785 C-278.5151826 210.67457387 -278.5151826 210.67457387 -278.51387507 211.84082395 C-278.51222411 214.40196297 -278.51773537 216.96303691 -278.52319336 219.52416992 C-278.52347534 221.35710142 -278.52331728 223.19003304 -278.52275085 225.02296448 C-278.5224633 230.00610883 -278.52835322 234.98922923 -278.53532481 239.972368 C-278.54156537 245.17740365 -278.54216271 250.38243982 -278.54335022 255.58747864 C-278.54646146 265.44718934 -278.55467206 275.30688898 -278.56469971 285.1665948 C-278.57586727 296.39014946 -278.58137292 307.61370464 -278.58639514 318.83726346 C-278.59685483 341.92797486 -278.61519775 365.01867109 -278.63671875 388.109375 C-262.79671875 388.109375 -246.95671875 388.109375 -230.63671875 388.109375 C-230.64782181 384.7069751 -230.65892487 381.3045752 -230.67036438 377.79907227 C-230.76987399 346.5934582 -230.84451089 315.38787445 -230.8920454 284.18213785 C-230.89829888 280.09163977 -230.9047705 276.00114206 -230.91137695 271.91064453 C-230.91334428 270.68913551 -230.91334428 270.68913551 -230.91535135 269.44294953 C-230.93710385 256.25981542 -230.9765245 243.0767904 -231.02248273 229.89372098 C-231.06925174 216.3651807 -231.09701508 202.83669753 -231.10716122 189.30807972 C-231.11401949 180.96113584 -231.13567504 172.61450033 -231.17630108 164.26765138 C-231.20274497 158.54274438 -231.21071605 152.81799664 -231.20422564 147.09303302 C-231.2010252 143.7906166 -231.20864613 140.48885178 -231.23274612 137.18650627 C-231.25762064 133.60242342 -231.25164251 130.01966022 -231.23799133 126.43554688 C-231.25983764 124.87715765 -231.25983764 124.87715765 -231.28212529 123.2872858 C-231.20379476 115.67949196 -229.21650702 110.92581915 -224.02139169 105.38726044 C-212.2852558 93.99541378 -195.11073477 92.61016711 -179.66455078 92.68774414 C-166.11543699 93.00882825 -151.72930071 95.51524918 -141.48046875 105.1328125 C-137.3203692 109.71915176 -134.38478674 113.50348294 -134.39062309 119.86510849 C-134.386641 120.82403968 -134.3826589 121.78297086 -134.37855613 122.77096057 C-134.38438182 123.82153809 -134.3902075 124.87211561 -134.39620972 125.95452881 C-134.39364644 127.63187005 -134.39364644 127.63187005 -134.39103138 129.34309697 C-134.38772777 133.10347025 -134.39875469 136.8636665 -134.40966797 140.62402344 C-134.41023189 143.31423852 -134.41000403 146.00444263 -134.40878296 148.69465637 C-134.40773387 154.49338374 -134.41401295 160.29206612 -134.42525864 166.09078217 C-134.44150746 174.47476228 -134.44672101 182.85872063 -134.44923462 191.24271479 C-134.45361269 204.84492766 -134.46692484 218.44711656 -134.48583984 232.04931641 C-134.50419573 245.26318237 -134.51835366 258.47704183 -134.52685547 271.69091797 C-134.52738092 272.50531687 -134.52790636 273.31971577 -134.52844773 274.15879342 C-134.53105779 278.24436229 -134.53358521 282.32993121 -134.53607154 286.41550016 C-134.55680754 320.31347655 -134.59258626 354.21142116 -134.63671875 388.109375 C-118.79671875 388.109375 -102.95671875 388.109375 -86.63671875 388.109375 C-86.6456012 383.42911133 -86.65448364 378.74884766 -86.66363525 373.92675781 C-86.74321459 331.01770361 -86.80293857 288.10865813 -86.84098007 245.19954628 C-86.84598295 239.57687836 -86.85116024 233.95421062 -86.85644531 228.33154297 C-86.85749455 227.21216091 -86.8585438 226.09277886 -86.85962483 224.93947613 C-86.87703479 206.80948029 -86.90857576 188.67953513 -86.94532993 170.54956937 C-86.98272287 151.94952979 -87.00495112 133.34951677 -87.01307273 114.74944115 C-87.01856391 103.27020379 -87.03591361 91.79110968 -87.06838462 80.31191641 C-87.08951214 72.44249976 -87.09592278 64.57315727 -87.09072426 56.70371431 C-87.08815975 52.16197733 -87.09211859 47.62049085 -87.11354065 43.07879829 C-87.13301475 38.91972943 -87.13398328 34.76107938 -87.12031433 30.60199118 C-87.1186251 29.09848562 -87.12369218 27.59495386 -87.13625148 26.09149981 C-87.26208173 10.0967609 -87.26208173 10.0967609 -81.05363679 3.40238667 C-61.91313237 -14.97585352 -20.94766445 -15.02025125 0 0 Z M-69.63671875 17.109375 C-69.54317213 19.91577368 -68.7064562 21.03242333 -66.82421875 23.109375 C-54.21285526 31.02238738 -38.7821542 31.40503931 -24.53515625 28.8046875 C-18.02667475 27.24335366 -12.62616498 24.6159716 -7.63671875 20.109375 C-7.71539124 17.70562371 -7.71539124 17.70562371 -8.63671875 15.109375 C-24.70744981 3.38065365 -55.0568183 2.52947455 -69.63671875 17.109375 Z M-69.63671875 41.109375 C-69.63671875 155.619375 -69.63671875 270.129375 -69.63671875 388.109375 C-49.17671875 388.109375 -28.71671875 388.109375 -7.63671875 388.109375 C-7.63671875 273.599375 -7.63671875 159.089375 -7.63671875 41.109375 C-12.91671875 42.429375 -18.19671875 43.749375 -23.63671875 45.109375 C-26.75358133 45.6015112 -29.52844885 45.98148554 -32.63671875 46.109375 C-33.53261719 46.14933594 -34.42851562 46.18929687 -35.3515625 46.23046875 C-47.33668603 46.49820476 -58.07484461 44.2626134 -69.63671875 41.109375 Z M-213.63671875 119.109375 C-213.93696924 121.5507016 -213.93696924 121.5507016 -212.63671875 124.109375 C-202.29921895 133.48460753 -187.25195313 132.96414777 -174.20800781 132.32958984 C-166.55485117 131.67414479 -158.38635201 129.37987216 -152.63671875 124.109375 C-151.67452173 121.48171111 -151.67452173 121.48171111 -151.63671875 119.109375 C-166.97863857 107.03169344 -198.831753 104.30440925 -213.63671875 119.109375 Z M-213.63671875 144.109375 C-213.63671875 224.629375 -213.63671875 305.149375 -213.63671875 388.109375 C-193.17671875 388.109375 -172.71671875 388.109375 -151.63671875 388.109375 C-151.63671875 307.589375 -151.63671875 227.069375 -151.63671875 144.109375 C-158.29125022 145.58591314 -158.29125022 145.58591314 -164.91015625 147.2109375 C-170.65984893 148.47950862 -176.39464512 148.49122056 -182.26171875 148.484375 C-183.40584229 148.48566406 -184.54996582 148.48695313 -185.72875977 148.48828125 C-193.6195479 148.39003019 -200.50096716 147.45621364 -207.9765625 144.984375 C-210.64495651 143.95314549 -210.64495651 143.95314549 -213.63671875 144.109375 Z M-356.40234375 204.421875 C-357.87774776 206.09567626 -357.87774776 206.09567626 -357.6640625 208.59765625 C-355.87070509 212.98217646 -351.99374854 213.93368806 -347.875 215.81640625 C-334.82178449 221.02824501 -318.85641362 220.70281207 -305.63671875 216.109375 C-301.81880828 214.22120155 -298.64654596 212.11920221 -295.63671875 209.109375 C-295.58590737 207.13355832 -295.58590737 207.13355832 -296.63671875 205.109375 C-303.53339448 198.74800081 -313.46109301 196.72108338 -322.63671875 196.109375 C-323.28253906 196.0578125 -323.92835938 196.00625 -324.59375 195.953125 C-335.43520897 195.47038842 -347.61553172 197.89008553 -356.40234375 204.421875 Z M-357.63671875 230.109375 C-357.63671875 282.249375 -357.63671875 334.389375 -357.63671875 388.109375 C-337.17671875 388.109375 -316.71671875 388.109375 -295.63671875 388.109375 C-295.63671875 335.969375 -295.63671875 283.829375 -295.63671875 230.109375 C-300.58671875 231.429375 -305.53671875 232.749375 -310.63671875 234.109375 C-327.06426061 236.84729864 -341.76080755 234.64534963 -357.63671875 230.109375 Z " fill="#000000" transform="translate(438.63671875,99.890625)"/>
<path d="M0 0 C0.94101562 -0.0213501 1.88203125 -0.0427002 2.8515625 -0.06469727 C4.17607422 -0.07134399 4.17607422 -0.07134399 5.52734375 -0.078125 C6.307146 -0.0874707 7.08694824 -0.09681641 7.89038086 -0.10644531 C10.81010954 0.37268292 12.04107318 1.07184117 14.0625 3.25 C15.50969102 8.77630669 14.841988 13.77968892 13.98828125 19.32421875 C13.86317673 20.17047318 13.7380722 21.0167276 13.60917664 21.8886261 C13.34271191 23.66685312 13.07095924 25.444295 12.79418945 27.22094727 C12.37506519 29.93707754 11.98464021 32.65635659 11.59570312 35.37695312 C11.33246278 37.10963927 11.06754622 38.84207176 10.80078125 40.57421875 C10.63017937 41.78992805 10.63017937 41.78992805 10.45613098 43.03019714 C9.71217493 47.61251222 8.99850686 50.37359823 5.0625 53.25 C1.43686334 54.40711808 -0.20012402 54.5851709 -3.6875 53 C-5.9375 51.25 -5.9375 51.25 -7.9375 48.25 C-7.92032088 45.46984591 -7.80352139 42.82219487 -7.5625 40.0625 C-7.50578125 39.31291016 -7.4490625 38.56332031 -7.390625 37.79101562 C-7.24939331 35.94323441 -7.09473833 34.096488 -6.9375 32.25 C-13.56241333 37.40488818 -20.16860996 42.55878125 -26.5625 48 C-35.05998612 55.13020444 -44.01228169 61.66935264 -52.9375 68.25 C-53.70400879 68.81654297 -54.47051758 69.38308594 -55.26025391 69.96679688 C-92.9089376 97.72269693 -133.30311515 121.99022793 -174.9375 143.25 C-175.63053223 143.60481445 -176.32356445 143.95962891 -177.03759766 144.32519531 C-180.85243139 146.27256583 -184.68559219 148.17971421 -188.53125 150.06542969 C-190.29943981 150.93589001 -192.06464093 151.81242809 -193.828125 152.69238281 C-222.9764384 167.22210611 -252.98545418 179.77786688 -283.5546875 191.00195312 C-287.04397703 192.28928339 -290.52207338 193.60418709 -294 194.921875 C-296.24960681 195.76147093 -298.49959075 196.60005726 -300.75 197.4375 C-301.76425049 197.82478271 -302.77850098 198.21206543 -303.82348633 198.61108398 C-309.4475787 200.67244169 -313.93911541 201.84033875 -319.9375 201.25 C-323.00208538 199.20694308 -323.75903128 197.80920198 -324.875 194.3125 C-324.95436625 190.4235537 -324.54090099 189.15968345 -321.9375 186.25 C-314.85814233 182.27000917 -306.74340827 179.99274949 -299.10296631 177.30783081 C-270.47629442 167.21141181 -242.33152103 155.76275014 -214.93505859 142.68115234 C-211.85373824 141.21000884 -208.76522507 139.75477798 -205.67578125 138.30078125 C-183.41802227 127.77767816 -161.76046241 116.41123361 -140.59863281 103.82666016 C-138.21696249 102.41557511 -135.82691681 101.02114839 -133.4296875 99.63671875 C-116.79354719 90.0125375 -100.59432712 79.64716668 -84.86621094 68.60205078 C-82.8875921 67.21501393 -80.90130592 65.83948906 -78.9140625 64.46484375 C-62.88797573 53.3272055 -47.44099048 41.4285125 -32.359375 29.046875 C-28.28128506 25.70040252 -24.12960416 22.45230179 -19.9375 19.25 C-20.89011719 19.28480469 -21.84273438 19.31960937 -22.82421875 19.35546875 C-24.07847656 19.38253906 -25.33273437 19.40960937 -26.625 19.4375 C-28.48705078 19.48970703 -28.48705078 19.48970703 -30.38671875 19.54296875 C-34.1832708 19.22972188 -35.95217371 18.55757653 -38.9375 16.25 C-41.27918764 12.73746854 -41.43373677 11.38530644 -40.9375 7.25 C-39.3125 4.4375 -39.3125 4.4375 -36.9375 2.25 C-25.16726699 -0.45539684 -12.02554093 0.1447297 0 0 Z " fill="#000000" transform="translate(410.9375,6.75)"/>
</svg>
