<?xml version="1.0" encoding="UTF-8"?>
<svg version="1.1" xmlns="http://www.w3.org/2000/svg" width="512" height="512">
<path d="M0 0 C3.09775072 1.31207988 5.9677824 2.93783221 8.875 4.625 C9.74431152 5.11645508 10.61362305 5.60791016 11.50927734 6.11425781 C14.34893156 7.72700031 17.17566699 9.36058831 20 11 C20.94294922 11.5455957 21.88589844 12.09119141 22.85742188 12.65332031 C27.81745582 15.52731147 32.76718058 18.4184224 37.7109375 21.3203125 C43.10192683 24.48183087 48.51402614 27.6052529 53.93286133 30.71875 C63.13424023 36.00647845 72.318202 41.32168672 81.4375 46.75 C82.26604492 47.23936035 83.09458984 47.7287207 83.94824219 48.23291016 C84.7065332 48.68714355 85.46482422 49.14137695 86.24609375 49.609375 C86.90279053 50.00092773 87.5594873 50.39248047 88.23608398 50.79589844 C90.12957397 52.08845105 91.53314182 53.23106289 93 55 C93.38590336 57.07308769 93.38590336 57.07308769 93.40113831 59.50314331 C93.41393326 60.42559845 93.42672821 61.34805359 93.43991089 62.29846191 C93.43855133 63.3084021 93.43719177 64.31834229 93.43579102 65.35888672 C93.44586685 66.4241861 93.45594269 67.48948547 93.46632385 68.58706665 C93.49488292 72.11804624 93.50068455 75.64859952 93.50390625 79.1796875 C93.51354202 81.62965066 93.52363408 84.07961206 93.53416443 86.52957153 C93.55214589 91.66933189 93.55768339 96.80894086 93.5559082 101.94873047 C93.5556033 108.53892757 93.59655807 115.12815523 93.64822483 121.71812248 C93.6815613 126.77959665 93.68766659 131.84083587 93.68607903 136.9024086 C93.68962304 139.33213772 93.70291441 141.76187268 93.72607613 144.19149399 C93.75543226 147.58913016 93.74686398 150.98465493 93.72875977 154.38232422 C93.75404755 155.8911618 93.75404755 155.8911618 93.77984619 157.43048096 C93.68955725 164.08975118 93.68955725 164.08975118 91.70887184 166.70435143 C90.1204071 168.0569458 90.1204071 168.0569458 87 170 C86.12375977 170.56315918 85.24751953 171.12631836 84.34472656 171.70654297 C83.45237305 172.21330566 82.56001953 172.72006836 81.640625 173.2421875 C80.62097656 173.82548828 79.60132813 174.40878906 78.55078125 175.00976562 C77.46152344 175.62529297 76.37226563 176.24082031 75.25 176.875 C73.49993101 177.87405513 71.74986705 178.87311921 70.00012207 179.8727417 C68.19183576 180.90488121 66.38215381 181.93453968 64.57226562 182.96386719 C59.03343723 186.11697508 53.51806864 189.31075408 48 192.5 C45.85556354 193.73714349 43.71103176 194.97412176 41.56640625 196.2109375 C37.60665788 198.49529301 33.64770173 200.78100906 29.68978882 203.06854248 C27.91637392 204.09345403 26.14278354 205.11806123 24.36914062 206.14257812 C22.15004227 207.42452738 19.93126984 208.70704107 17.71289062 209.99023438 C15.72381659 211.13899762 13.73224503 212.28345107 11.73779297 213.42285156 C9.96993099 214.44125609 8.21271545 215.478477 6.46923828 216.53808594 C-1.03242436 220.9987032 -1.03242436 220.9987032 -6 220 C-9.09775072 218.68792012 -11.9677824 217.06216779 -14.875 215.375 C-15.74431152 214.88354492 -16.61362305 214.39208984 -17.50927734 213.88574219 C-20.34893156 212.27299969 -23.17566699 210.63941169 -26 209 C-27.41442383 208.18160645 -27.41442383 208.18160645 -28.85742188 207.34667969 C-33.81745582 204.47268853 -38.76718058 201.5815776 -43.7109375 198.6796875 C-49.10192683 195.51816913 -54.51402614 192.3947471 -59.93286133 189.28125 C-69.13424023 183.99352155 -78.318202 178.67831328 -87.4375 173.25 C-88.26604492 172.76063965 -89.09458984 172.2712793 -89.94824219 171.76708984 C-90.7065332 171.31285645 -91.46482422 170.85862305 -92.24609375 170.390625 C-92.90279053 169.99907227 -93.5594873 169.60751953 -94.23608398 169.20410156 C-96.12957397 167.91154895 -97.53314182 166.76893711 -99 165 C-99.38590336 162.92691231 -99.38590336 162.92691231 -99.40113831 160.49685669 C-99.41393326 159.57440155 -99.42672821 158.65194641 -99.43991089 157.70153809 C-99.43855133 156.6915979 -99.43719177 155.68165771 -99.43579102 154.64111328 C-99.45090477 153.04316422 -99.45090477 153.04316422 -99.46632385 151.41293335 C-99.49488292 147.88195376 -99.50068455 144.35140048 -99.50390625 140.8203125 C-99.51354202 138.37034934 -99.52363408 135.92038794 -99.53416443 133.47042847 C-99.55214589 128.33066811 -99.55768339 123.19105914 -99.5559082 118.05126953 C-99.5556033 111.46107243 -99.59655807 104.87184477 -99.64822483 98.28187752 C-99.6815613 93.22040335 -99.68766659 88.15916413 -99.68607903 83.0975914 C-99.68962304 80.66786228 -99.70291441 78.23812732 -99.72607613 75.80850601 C-99.75543226 72.41086984 -99.74686398 69.01534507 -99.72875977 65.61767578 C-99.75404755 64.1088382 -99.75404755 64.1088382 -99.77984619 62.56951904 C-99.68955725 55.91024882 -99.68955725 55.91024882 -97.70887184 53.29564857 C-96.1204071 51.9430542 -96.1204071 51.9430542 -93 50 C-92.12375977 49.43684082 -91.24751953 48.87368164 -90.34472656 48.29345703 C-89.45237305 47.78669434 -88.56001953 47.27993164 -87.640625 46.7578125 C-86.62097656 46.17451172 -85.60132813 45.59121094 -84.55078125 44.99023438 C-83.46152344 44.37470703 -82.37226563 43.75917969 -81.25 43.125 C-79.49993101 42.12594487 -77.74986705 41.12688079 -76.00012207 40.1272583 C-74.19183576 39.09511879 -72.38215381 38.06546032 -70.57226562 37.03613281 C-65.03343723 33.88302492 -59.51806864 30.68924592 -54 27.5 C-51.85556354 26.26285651 -49.71103176 25.02587824 -47.56640625 23.7890625 C-43.60665788 21.50470699 -39.64770173 19.21899094 -35.68978882 16.93145752 C-33.91637392 15.90654597 -32.14278354 14.88193877 -30.36914062 13.85742188 C-28.15004227 12.57547262 -25.93126984 11.29295893 -23.71289062 10.00976562 C-21.72381659 8.86100238 -19.73224503 7.71654893 -17.73779297 6.57714844 C-15.96993099 5.55874391 -14.21271545 4.521523 -12.46923828 3.46191406 C-4.96757564 -0.9987032 -4.96757564 -0.9987032 0 0 Z M-10.1640625 21.75390625 C-11.19104248 22.35380371 -12.21802246 22.95370117 -13.27612305 23.57177734 C-14.38125244 24.22871582 -15.48638184 24.8856543 -16.625 25.5625 C-17.78308357 26.24259647 -18.94170259 26.92178191 -20.10083008 27.60009766 C-22.51830504 29.01562354 -24.93340293 30.4350919 -27.34716797 31.85693359 C-32.00026564 34.59289374 -36.68173277 37.27860735 -41.36328125 39.96557617 C-45.63391508 42.41861871 -49.89568564 44.88680764 -54.15673828 47.35644531 C-56.75464876 48.85817409 -59.35903574 50.3479756 -61.96484375 51.8359375 C-63.35199871 52.63987281 -64.73875756 53.44449224 -66.125 54.25 C-66.74076904 54.59659668 -67.35653809 54.94319336 -67.9909668 55.30029297 C-69.79836894 56.32590817 -69.79836894 56.32590817 -72 58 C-72 58.99 -72 59.98 -72 61 C-71.27111572 61.40202637 -70.54223145 61.80405273 -69.79125977 62.21826172 C-45.37233052 75.69992621 -45.37233052 75.69992621 -36.3125 81.0625 C-35.36080933 81.62251709 -35.36080933 81.62251709 -34.38989258 82.19384766 C-30.17063154 84.68617228 -25.98705544 87.2328319 -21.80859375 89.79296875 C-19.62256332 91.11225672 -17.43636591 92.43126807 -15.25 93.75 C-14.21270752 94.39590088 -13.17541504 95.04180176 -12.10668945 95.70727539 C-11.12788818 96.29371826 -10.14908691 96.88016113 -9.140625 97.484375 C-8.26954102 98.01772461 -7.39845703 98.55107422 -6.50097656 99.10058594 C-4.0266822 100.25793889 -4.0266822 100.25793889 -1.52563477 99.34375 C-0.69217529 98.9003125 0.14128418 98.456875 1 98 C2.31931519 97.31599121 2.31931519 97.31599121 3.6652832 96.61816406 C4.61749756 96.08932617 5.56971191 95.56048828 6.55078125 95.015625 C7.62996826 94.4170166 8.70915527 93.8184082 9.82104492 93.20166016 C10.9732251 92.5576123 12.12540527 91.91356445 13.3125 91.25 C13.90592194 90.91941589 14.49934387 90.58883179 15.11074829 90.24822998 C24.69463898 84.90847111 34.19627787 79.43595836 43.6574707 73.88134766 C51.71520101 69.15129157 59.83364815 64.53953088 68 60 C65.50615208 57.20436225 62.74784919 55.56746596 59.49609375 53.734375 C58.37525391 53.09878662 57.25441406 52.46319824 56.09960938 51.80834961 C54.87890775 51.1222304 53.65820459 50.43611393 52.4375 49.75 C50.54079955 48.67659498 48.64511534 47.60140903 46.74942017 46.52622986 C45.44813164 45.78839924 44.14651229 45.0511518 42.84457397 44.31446838 C36.20855923 40.55860578 29.60227174 36.75233984 23 32.9375 C21.97060303 32.34356445 20.94120605 31.74962891 19.88061523 31.13769531 C18.88876221 30.5650293 17.89690918 29.99236328 16.875 29.40234375 C15.91335938 28.8491748 14.95171875 28.29600586 13.9609375 27.72607422 C11.87118199 26.50785428 9.79412101 25.26773071 7.7265625 24.01220703 C6.66179687 23.37009277 5.59703125 22.72797852 4.5 22.06640625 C3.5409375 21.47931885 2.581875 20.89223145 1.59375 20.28735352 C-3.16649101 17.92470754 -5.9012514 19.2375315 -10.1640625 21.75390625 Z M-83 74 C-83 101.06 -83 128.12 -83 156 C-69.14 163.92 -69.14 163.92 -55 172 C-27.75014171 187.67800066 -27.75014171 187.67800066 -16.80786133 194.20849609 C-14.07707746 196.14334135 -14.07707746 196.14334135 -11 197 C-11 169.94 -11 142.88 -11 115 C-23.87 107.575 -23.87 107.575 -37 100 C-49.3125 92.8125 -49.3125 92.8125 -55.1796875 89.38671875 C-61.0867234 85.94476887 -67.00691046 82.52619539 -72.9375 79.125 C-73.83831299 78.60655518 -74.73912598 78.08811035 -75.66723633 77.55395508 C-76.48732178 77.08497803 -77.30740723 76.61600098 -78.15234375 76.1328125 C-78.87413818 75.71918457 -79.59593262 75.30555664 -80.33959961 74.87939453 C-81.83413486 73.92199384 -81.83413486 73.92199384 -83 74 Z M71.4609375 76.60546875 C70.49994141 77.17007813 69.53894531 77.7346875 68.54882812 78.31640625 C67.50146484 78.93386719 66.45410156 79.55132812 65.375 80.1875 C58.10398038 84.45385856 50.82884342 88.70776285 43.4694519 92.82038879 C41.59416352 93.88110824 39.72878309 94.95972025 37.87814331 96.06288147 C32.90636583 98.99259535 28.15692036 101.38638056 22.6796875 103.22509766 C15.61448345 105.89250704 9.54606937 108.77834831 5 115 C0.56386983 126.87720356 2.65406153 141.59717993 3.35205078 153.97338867 C3.59941805 158.82480783 3.70754824 163.67922481 3.828125 168.53515625 C4.08411837 178.03134544 4.49253344 187.51415357 5 197 C28.63465508 184.43114928 28.63465508 184.43114928 51.59132385 170.7019043 C55.31429808 168.3591657 58.64710613 166.72407116 62.90795898 165.58935547 C68.89231828 163.68179924 73.52983314 161.41094267 77 156 C80.75101948 143.96745337 78.85397347 129.62325816 78.30462646 117.23260498 C78.10920033 112.36039418 78.02326952 107.48633942 77.92773438 102.61132812 C77.72477887 93.06931354 77.40116866 83.53559569 77 74 C75.00685998 74 73.11389724 75.63019443 71.4609375 76.60546875 Z " fill="#000000" transform="translate(259,146)"/>
<path d="M0 0 C2.85170603 0.52999917 5.62524687 1.26743993 8.41796875 2.046875 C9.58746819 2.36558563 9.58746819 2.36558563 10.78059387 2.69073486 C12.41806288 3.14015451 14.05425999 3.59423184 15.68920898 4.05273438 C18.18635864 4.74968145 20.68922787 5.42238265 23.19335938 6.09375 C24.78946539 6.53500358 26.38518326 6.9776641 27.98046875 7.421875 C29.09774605 7.71901398 29.09774605 7.71901398 30.2375946 8.02215576 C34.48108172 9.23773881 37.37274879 10.37977519 40 14 C41.84812209 18.68215081 40.2948498 22.99323197 39.05078125 27.66015625 C38.7299482 28.90048866 38.7299482 28.90048866 38.40263367 30.1658783 C37.94808908 31.90961787 37.48798723 33.65191705 37.02270508 35.39282227 C36.3151883 38.05239462 35.63417552 40.71781415 34.95507812 43.38476562 C34.50940176 45.0811475 34.06218713 46.77712613 33.61328125 48.47265625 C33.31143669 49.66496605 33.31143669 49.66496605 33.00349426 50.88136292 C31.80809686 55.2617013 30.74402614 58.13556954 27 61 C24.00957837 62.07348469 22.45234395 62.11847103 19.375 61.3125 C16.5278155 59.73905594 15.37376758 58.97649641 14 56 C13.93085489 51.16971996 15.09807282 46.4078867 16.05078125 41.6953125 C16.22907471 40.81117676 16.40736816 39.92704102 16.59106445 39.01611328 C16.72601318 38.3507959 16.86096191 37.68547852 17 37 C16.11368896 37.51832397 16.11368896 37.51832397 15.20947266 38.04711914 C14.3694873 38.53817139 13.52950195 39.02922363 12.6640625 39.53515625 C11.714104 40.09058105 10.76414551 40.64600586 9.78540039 41.21826172 C7.6559611 42.46088701 5.5249025 43.700741 3.39233398 44.93798828 C-1.86504803 47.98972439 -7.11094574 51.05363233 -12.30883789 54.20585632 C-14.05114577 55.26029566 -15.79830383 56.3061696 -17.54736328 57.34936523 C-19.76732056 58.67580809 -21.97839067 60.0172667 -24.17919922 61.37524414 C-30.43679592 65.08295648 -34.68867863 67.11811667 -42 66 C-44.65050501 63.9207674 -44.99383078 63.02379557 -45.875 59.625 C-46.01893632 55.45084666 -45.43554754 54.30039288 -43 51 C-40.65356445 49.27758789 -40.65356445 49.27758789 -37.86328125 47.72265625 C-36.82163818 47.13307129 -35.77999512 46.54348633 -34.70678711 45.93603516 C-33.58667236 45.31776855 -32.46655762 44.69950195 -31.3125 44.0625 C-29.56336016 43.07602003 -27.81423215 42.08951795 -26.06599426 41.10144043 C-24.25778917 40.0810129 -22.44684916 39.0655593 -20.63574219 38.05029297 C-14.86546736 34.80656618 -9.15304522 31.46396484 -3.4375 28.125 C-2.40343018 27.52437744 -1.36936035 26.92375488 -0.30395508 26.30493164 C0.64326416 25.75313232 1.5904834 25.20133301 2.56640625 24.6328125 C3.40115479 24.14699707 4.23590332 23.66118164 5.09594727 23.16064453 C6.93846097 22.14011742 6.93846097 22.14011742 8 21 C6.80761719 20.68546875 5.61523438 20.3709375 4.38671875 20.046875 C2.82010071 19.61535147 1.25370581 19.18301729 -0.3125 18.75 C-1.09818359 18.54503906 -1.88386719 18.34007812 -2.69335938 18.12890625 C-8.48309554 16.50285269 -8.48309554 16.50285269 -11.01171875 14.04296875 C-12.57119765 10.81922384 -12.49423341 8.52141304 -12 5 C-8.42756208 -0.08801765 -5.98503642 -0.40004183 0 0 Z " fill="#000000" transform="translate(411,130)"/>
<path d="M0 0 C3.69186542 2.59216083 4.82883761 4.04149064 5.625 8.5 C4.82530558 12.97828877 3.48794272 14.13110936 0 17 C-2.54477145 18.08426418 -5.1164751 18.7165366 -7.8125 19.3125 C-8.50537109 19.48072266 -9.19824219 19.64894531 -9.91210938 19.82226562 C-11.60431714 20.23072957 -13.30170866 20.61761742 -15 21 C-4.54989114 27.3631851 6.02296168 33.50375719 16.63427734 39.59399414 C18.75555792 40.81277617 20.87445611 42.03571595 22.99072266 43.26318359 C24.95508062 44.39692062 26.92845341 45.51521924 28.91162109 46.61572266 C30.24507568 47.37248291 30.24507568 47.37248291 31.60546875 48.14453125 C32.77372192 48.7938562 32.77372192 48.7938562 33.96557617 49.45629883 C36.47435194 51.35993368 37.64343725 53.17000892 39 56 C38.93611417 59.70537805 38.79259706 62.01717965 36.4375 64.9375 C32.81161938 66.51801207 29.83295665 66.73362126 26 66 C21.41501566 63.96789202 17.16358234 61.39798606 12.875 58.8125 C11.64120984 58.08569198 10.40649788 57.36044665 9.17089844 56.63671875 C6.04228883 54.79917227 2.92571576 52.94218915 -0.18835449 51.08013916 C-3.02670578 49.38785755 -5.87676077 47.71590005 -8.7265625 46.04296875 C-13.82778398 43.04544753 -18.91841409 40.03067926 -24 37 C-23.7834375 37.86882812 -23.566875 38.73765625 -23.34375 39.6328125 C-23.0653125 40.78523438 -22.786875 41.93765625 -22.5 43.125 C-22.2215625 44.26195312 -21.943125 45.39890625 -21.65625 46.5703125 C-20.75865858 51.26129624 -20.19400926 54.60501603 -22.625 58.8125 C-25.5319778 61.48997956 -27.06440609 62 -31 62 C-33.87872577 60.6260627 -35.74989437 59.25010563 -38 57 C-38.89776759 54.25026081 -39.7033041 51.52858366 -40.453125 48.73828125 C-40.78893585 47.5022541 -40.78893585 47.5022541 -41.13153076 46.24125671 C-41.60256039 44.4946233 -42.06968092 42.74693173 -42.53320312 40.99829102 C-43.24387553 38.33544799 -43.98072217 35.68076146 -44.71875 33.02539062 C-45.17351364 31.32595848 -45.62668992 29.62610062 -46.078125 27.92578125 C-46.41230438 26.74258049 -46.41230438 26.74258049 -46.75323486 25.53547668 C-48.06059386 20.45307954 -48.18295857 16.97659288 -46 12 C-44.36767578 10.59082031 -44.36767578 10.59082031 -42.3203125 9.828125 C-41.5149707 9.52583984 -40.70962891 9.22355469 -39.87988281 8.91210938 C-34.5830539 7.2345108 -29.26161008 5.69025635 -23.88818359 4.28027344 C-21.8686474 3.74832672 -19.85433757 3.19913428 -17.83984375 2.6484375 C-16.53673582 2.30104079 -15.23335887 1.95465128 -13.9296875 1.609375 C-12.76679199 1.29967773 -11.60389648 0.98998047 -10.40576172 0.67089844 C-6.80850455 -0.03772254 -3.65655084 -0.25816117 0 0 Z " fill="#000000" transform="translate(108,130)"/>
<path d="M0 0 C2.5 1.5 2.5 1.5 4 4 C4.77403846 9.41826923 4.77403846 9.41826923 4 12 C-0.07646286 17.1355027 -5.56276762 19.78876752 -11.25 22.875 C-20.25298716 27.85442813 -29.1289852 32.99972969 -37.9375 38.3125 C-39.03932617 38.97685059 -40.14115234 39.64120117 -41.27636719 40.32568359 C-43.85237644 41.88138953 -46.42702181 43.43928774 -49 45 C-47.87980469 45.32613281 -46.75960937 45.65226562 -45.60546875 45.98828125 C-44.13266203 46.42918517 -42.66001393 46.87061921 -41.1875 47.3125 C-40.08051758 47.63250977 -40.08051758 47.63250977 -38.95117188 47.95898438 C-38.23896484 48.17490234 -37.52675781 48.39082031 -36.79296875 48.61328125 C-36.1383667 48.80704346 -35.48376465 49.00080566 -34.80932617 49.20043945 C-32.67751759 50.14250842 -31.48939522 51.21824097 -30 53 C-29.32114622 56.07181335 -29.43256975 58.91251188 -30 62 C-31.875 64.625 -31.875 64.625 -35 66 C-43.20878372 66.28749561 -51.38685589 63.51663526 -59.20654297 61.29907227 C-61.3874946 60.68397613 -63.57400729 60.09249351 -65.76171875 59.50195312 C-67.1618528 59.11078421 -68.56160752 58.71825439 -69.9609375 58.32421875 C-71.84498291 57.7996106 -71.84498291 57.7996106 -73.76708984 57.2644043 C-77.17021812 55.933427 -78.82123846 54.9101514 -81 52 C-82.83658955 47.33066958 -81.31414808 43.03334877 -80.0859375 38.375 C-79.87442047 37.5504834 -79.66290344 36.7259668 -79.44497681 35.87646484 C-78.99475336 34.13689876 -78.53884347 32.39879578 -78.07763672 30.66210938 C-77.37869312 28.01399228 -76.70999985 25.35943484 -76.04296875 22.703125 C-75.60078298 21.0099391 -75.15683013 19.31721349 -74.7109375 17.625 C-74.51486908 16.83528809 -74.31880066 16.04557617 -74.11679077 15.23193359 C-72.76269784 10.26873944 -71.18198019 7.28086398 -67 4 C-63.5 3.375 -63.5 3.375 -60 4 C-57.0625 6.0625 -57.0625 6.0625 -55 9 C-54.1904594 13.85724362 -55.41110994 17.98344655 -56.53125 22.75 C-56.80517578 23.92046875 -57.07910156 25.0909375 -57.36132812 26.296875 C-57.57208984 27.18890625 -57.78285156 28.0809375 -58 29 C-57.40912598 28.65445068 -56.81825195 28.30890137 -56.20947266 27.95288086 C-55.3694873 27.46182861 -54.52950195 26.97077637 -53.6640625 26.46484375 C-52.71402344 25.90941895 -51.76398438 25.35399414 -50.78515625 24.78173828 C-48.65636624 23.5393959 -46.52612616 22.29953531 -44.39453125 21.06201172 C-39.13118464 18.00525731 -33.87742912 14.93772977 -28.66537476 11.79414368 C-26.91496301 10.74041691 -25.16023164 9.69430576 -23.40380859 8.65063477 C-21.17193396 7.32242764 -18.94793198 5.98088154 -16.73291016 4.62475586 C-10.86468998 1.15867986 -6.85974263 -1.02266805 0 0 Z " fill="#000000" transform="translate(142,316)"/>
<path d="M0 0 C4.56268086 2.03629479 8.79324954 4.6059986 13.0625 7.1875 C14.29351176 7.91459982 15.52562303 8.63984111 16.75878906 9.36328125 C19.27371319 10.84017158 21.78399195 12.32452883 24.29150391 13.81396484 C29.89443269 17.13061898 35.57301985 20.31213995 41.25 23.5 C43.15121754 24.57260498 45.05227751 25.64548936 46.953125 26.71875 C48.30202482 27.47927046 49.65095814 28.23973153 51 29 C50.69964844 28.05898438 50.39929688 27.11796875 50.08984375 26.1484375 C49.70957031 24.90320313 49.32929688 23.65796875 48.9375 22.375 C48.55464844 21.14523437 48.17179687 19.91546875 47.77734375 18.6484375 C46.98492672 14.92925405 47.02029578 12.64344056 48 9 C49.625 6.625 49.625 6.625 52 5 C55.4375 4.4375 55.4375 4.4375 59 5 C63.85498815 8.8332522 65.24308505 12.58992397 66.74609375 18.3359375 C66.96572281 19.13351471 67.18535187 19.93109192 67.41163635 20.75283813 C67.86932807 22.43322131 68.31847926 24.11595156 68.75952148 25.80078125 C69.43544903 28.36721267 70.14826585 30.92133289 70.86523438 33.4765625 C71.30694572 35.11658095 71.74647275 36.7571896 72.18359375 38.3984375 C72.50365639 39.53471085 72.50365639 39.53471085 72.83018494 40.69393921 C74.100421 45.68676377 74.11807693 49.1147953 72 54 C70.36987305 55.40917969 70.36987305 55.40917969 68.32421875 56.171875 C67.51903809 56.47416016 66.71385742 56.77644531 65.88427734 57.08789062 C60.56864745 58.76887872 55.22600274 60.30898138 49.83325195 61.71972656 C47.80299305 62.25249476 45.77751732 62.80124635 43.75195312 63.3515625 C42.44556708 63.69887565 41.13893441 64.04526279 39.83203125 64.390625 C38.66389893 64.70032227 37.4957666 65.01001953 36.29223633 65.32910156 C31.61533282 66.28217022 28.35301781 66.81181069 24.1875 64.3125 C21.72462518 61.70888948 21.08672181 60.55559424 21 57 C22.0673949 52.92449221 23.47487551 51.21263992 27 49 C31.605859 47.44213593 36.3053953 46.2605883 41 45 C31.49182879 39.05912373 21.84311059 33.43052675 12.07861328 27.92456055 C-10.37574087 15.24851826 -10.37574087 15.24851826 -12 12 C-12.56872038 4.9478673 -12.56872038 4.9478673 -10.5 1.5 C-6.9117974 -0.65292156 -4.0131835 -0.7948061 0 0 Z " fill="#000000" transform="translate(378,316)"/>
<path d="M0 0 C0.66 -0.0103125 1.32 -0.020625 2 -0.03125 C4.94013875 0.74972436 6.09475831 2.15388299 8 4.5 C8.51898193 7.33477783 8.51898193 7.33477783 8.54589844 10.64550781 C8.56561707 11.88649231 8.58533569 13.12747681 8.60565186 14.40606689 C8.60731488 15.75508581 8.60854582 17.10410532 8.609375 18.453125 C8.62435961 19.83748305 8.64108737 21.22182324 8.65948486 22.60614014 C8.70314018 26.24260283 8.72315303 29.87882439 8.73822021 33.51550293 C8.75779818 37.22923022 8.79976729 40.94269735 8.83984375 44.65625 C8.91512587 51.93743003 8.96542897 59.21850079 9 66.5 C9.77085937 65.71753906 10.54171875 64.93507813 11.3359375 64.12890625 C12.34882573 63.10663943 13.36185384 62.08451119 14.375 61.0625 C14.88289063 60.54623047 15.39078125 60.02996094 15.9140625 59.49804688 C20.73744594 54.64293065 20.73744594 54.64293065 25.3125 54.125 C29 54.5 29 54.5 31.9375 56.5625 C34 59.5 34 59.5 34.75 62.8125 C32.91974251 71.81126601 22.46933948 79.18167228 16.1875 85.4375 C15.22444087 86.40412902 14.26154919 87.3709249 13.29882812 88.33789062 C11.93467773 89.70010742 11.93467773 89.70010742 10.54296875 91.08984375 C9.71821045 91.91347412 8.89345215 92.73710449 8.04370117 93.58569336 C4.93764937 96.49508915 2.47410161 97.03861654 -1.81469727 96.9597168 C-4.48558921 96.39784778 -5.58942791 95.48732704 -7.58984375 93.64453125 C-8.6272168 92.69151123 -8.6272168 92.69151123 -9.68554688 91.71923828 C-14.15877324 87.43003705 -18.56447133 83.07871174 -22.9375 78.6875 C-23.90412902 77.72444087 -24.8709249 76.76154919 -25.83789062 75.79882812 C-26.74603516 74.88939453 -27.65417969 73.97996094 -28.58984375 73.04296875 C-29.41347412 72.21821045 -30.23710449 71.39345215 -31.08569336 70.54370117 C-33.59215692 67.86781717 -33.95598899 66.88876394 -34.375 63.1875 C-34 59.5 -34 59.5 -31.9375 56.5625 C-29 54.5 -29 54.5 -25.6875 53.75 C-20.40984501 54.82342135 -17.70165968 57.74753323 -14 61.5 C-12.33387588 63.16720904 -10.66726629 64.83393318 -9 66.5 C-8.99635437 65.73214172 -8.99270874 64.96428345 -8.98895264 64.17315674 C-8.95107254 56.93377588 -8.8942207 49.69490964 -8.81609726 42.45586014 C-8.77660173 38.73422746 -8.74442382 35.01283211 -8.72900391 31.29101562 C-8.71385039 27.6986273 -8.67942976 24.10689132 -8.63169098 20.5147934 C-8.61686339 19.14494245 -8.60895819 17.77499837 -8.60811615 16.40506744 C-8.60574929 14.48510368 -8.57640188 12.56523071 -8.54589844 10.64550781 C-8.53701599 9.55296692 -8.52813354 8.46042603 -8.51898193 7.33477783 C-7.65501074 2.61560319 -4.84616681 -0.07572136 0 0 Z " fill="#000000" transform="translate(256,383.5)"/>
<path d="M0 0 C1.79272461 1.19995117 1.79272461 1.19995117 3.58984375 2.85546875 C4.28142578 3.49081543 4.97300781 4.12616211 5.68554688 4.78076172 C10.15877324 9.06996295 14.56447133 13.42128826 18.9375 17.8125 C19.90412902 18.77555913 20.8709249 19.73845081 21.83789062 20.70117188 C22.74603516 21.61060547 23.65417969 22.52003906 24.58984375 23.45703125 C25.41347412 24.28178955 26.23710449 25.10654785 27.08569336 25.95629883 C29.59215692 28.63218283 29.95598899 29.61123606 30.375 33.3125 C30 37 30 37 27.9375 39.9375 C25 42 25 42 21.6875 42.75 C16.40984501 41.67657865 13.70165968 38.75246677 10 35 C8.33387588 33.33279096 6.66726629 31.66606682 5 30 C4.99635437 30.76785828 4.99270874 31.53571655 4.98895264 32.32684326 C4.95107254 39.56622412 4.8942207 46.80509036 4.81609726 54.04413986 C4.77660173 57.76577254 4.74442382 61.48716789 4.72900391 65.20898438 C4.71385039 68.8013727 4.67942976 72.39310868 4.63169098 75.9852066 C4.61686339 77.35505755 4.60895819 78.72500163 4.60811615 80.09493256 C4.60574929 82.01489632 4.57640188 83.93476929 4.54589844 85.85449219 C4.53257477 87.49330353 4.53257477 87.49330353 4.51898193 89.16522217 C3.88110973 92.64940122 2.74619217 93.83403783 0 96 C-2 96.53125 -2 96.53125 -4 96.5 C-4.99 96.51546875 -4.99 96.51546875 -6 96.53125 C-8.94013875 95.75027564 -10.09475831 94.34611701 -12 92 C-12.51898193 89.16522217 -12.51898193 89.16522217 -12.54589844 85.85449219 C-12.56561707 84.61350769 -12.58533569 83.37252319 -12.60565186 82.09393311 C-12.60731488 80.74491419 -12.60854582 79.39589468 -12.609375 78.046875 C-12.62435961 76.66251695 -12.64108737 75.27817676 -12.65948486 73.89385986 C-12.70314018 70.25739717 -12.72315303 66.62117561 -12.73822021 62.98449707 C-12.75779818 59.27076978 -12.79976729 55.55730265 -12.83984375 51.84375 C-12.91512587 44.56256997 -12.96542897 37.28149921 -13 30 C-13.77085937 30.78246094 -14.54171875 31.56492187 -15.3359375 32.37109375 C-16.34882573 33.39336057 -17.36185384 34.41548881 -18.375 35.4375 C-18.88289063 35.95376953 -19.39078125 36.47003906 -19.9140625 37.00195312 C-24.73744594 41.85706935 -24.73744594 41.85706935 -29.3125 42.375 C-33 42 -33 42 -35.9375 39.9375 C-38 37 -38 37 -38.75 33.6875 C-36.91974251 24.68873399 -26.46933948 17.31832772 -20.1875 11.0625 C-19.22444087 10.09587098 -18.26154919 9.1290751 -17.29882812 8.16210938 C-16.38939453 7.25396484 -15.47996094 6.34582031 -14.54296875 5.41015625 C-13.71821045 4.58652588 -12.89345215 3.76289551 -12.04370117 2.91430664 C-8.45119941 -0.4507401 -4.77168856 -1.00380846 0 0 Z " fill="#000000" transform="translate(260,32)"/>
</svg>
